<?xml version="1.0" encoding="utf-8" standalone="no"?>
<!DOCTYPE svg PUBLIC "-//W3C//DTD SVG 1.1//EN"
  "http://www.w3.org/Graphics/SVG/1.1/DTD/svg11.dtd">
<!-- Created with matplotlib (https://matplotlib.org/) -->
<svg height="327.302012pt" version="1.1" viewBox="0 0 410.222806 327.302012" width="410.222806pt" xmlns="http://www.w3.org/2000/svg" xmlns:xlink="http://www.w3.org/1999/xlink">
 <defs>
  <style type="text/css">
*{stroke-linecap:butt;stroke-linejoin:round;white-space:pre;}
  </style>
 </defs>
 <g id="figure_1">
  <g id="patch_1">
   <path d="M -0 327.302012 
L 410.222806 327.302012 
L 410.222806 0 
L -0 0 
z
" style="fill:#ffffff;"/>
  </g>
  <g id="axes_1">
   <g id="patch_2">
    <path d="M 68.222806 279 
L 403.022806 279 
L 403.022806 7.2 
L 68.222806 7.2 
z
" style="fill:#ffffff;"/>
   </g>
   <g id="matplotlib.axis_1">
    <g id="xtick_1">
     <g id="line2d_1">
      <defs>
       <path d="M 0 0 
L 0 6 
" id="m9c57de192c" style="stroke:#262626;stroke-width:1.25;"/>
      </defs>
      <g>
       <use style="fill:#262626;stroke:#262626;stroke-width:1.25;" x="83.440988" xlink:href="#m9c57de192c" y="279"/>
      </g>
     </g>
     <g id="text_1">
      <!-- 0.0 -->
      <defs>
       <path d="M 31.78125 66.40625 
Q 24.171875 66.40625 20.328125 58.90625 
Q 16.5 51.421875 16.5 36.375 
Q 16.5 21.390625 20.328125 13.890625 
Q 24.171875 6.390625 31.78125 6.390625 
Q 39.453125 6.390625 43.28125 13.890625 
Q 47.125 21.390625 47.125 36.375 
Q 47.125 51.421875 43.28125 58.90625 
Q 39.453125 66.40625 31.78125 66.40625 
z
M 31.78125 74.21875 
Q 44.046875 74.21875 50.515625 64.515625 
Q 56.984375 54.828125 56.984375 36.375 
Q 56.984375 17.96875 50.515625 8.265625 
Q 44.046875 -1.421875 31.78125 -1.421875 
Q 19.53125 -1.421875 13.0625 8.265625 
Q 6.59375 17.96875 6.59375 36.375 
Q 6.59375 54.828125 13.0625 64.515625 
Q 19.53125 74.21875 31.78125 74.21875 
z
" id="DejaVuSans-48"/>
       <path d="M 10.6875 12.40625 
L 21 12.40625 
L 21 0 
L 10.6875 0 
z
" id="DejaVuSans-46"/>
      </defs>
      <g style="fill:#262626;" transform="translate(72.595057 298.864269)scale(0.1364 -0.1364)">
       <use xlink:href="#DejaVuSans-48"/>
       <use x="63.623047" xlink:href="#DejaVuSans-46"/>
       <use x="95.410156" xlink:href="#DejaVuSans-48"/>
      </g>
     </g>
    </g>
    <g id="xtick_2">
     <g id="line2d_2">
      <g>
       <use style="fill:#262626;stroke:#262626;stroke-width:1.25;" x="125.713715" xlink:href="#m9c57de192c" y="279"/>
      </g>
     </g>
     <g id="text_2">
      <!-- 2.5 -->
      <defs>
       <path d="M 19.1875 8.296875 
L 53.609375 8.296875 
L 53.609375 0 
L 7.328125 0 
L 7.328125 8.296875 
Q 12.9375 14.109375 22.625 23.890625 
Q 32.328125 33.6875 34.8125 36.53125 
Q 39.546875 41.84375 41.421875 45.53125 
Q 43.3125 49.21875 43.3125 52.78125 
Q 43.3125 58.59375 39.234375 62.25 
Q 35.15625 65.921875 28.609375 65.921875 
Q 23.96875 65.921875 18.8125 64.3125 
Q 13.671875 62.703125 7.8125 59.421875 
L 7.8125 69.390625 
Q 13.765625 71.78125 18.9375 73 
Q 24.125 74.21875 28.421875 74.21875 
Q 39.75 74.21875 46.484375 68.546875 
Q 53.21875 62.890625 53.21875 53.421875 
Q 53.21875 48.921875 51.53125 44.890625 
Q 49.859375 40.875 45.40625 35.40625 
Q 44.1875 33.984375 37.640625 27.21875 
Q 31.109375 20.453125 19.1875 8.296875 
z
" id="DejaVuSans-50"/>
       <path d="M 10.796875 72.90625 
L 49.515625 72.90625 
L 49.515625 64.59375 
L 19.828125 64.59375 
L 19.828125 46.734375 
Q 21.96875 47.46875 24.109375 47.828125 
Q 26.265625 48.1875 28.421875 48.1875 
Q 40.625 48.1875 47.75 41.5 
Q 54.890625 34.8125 54.890625 23.390625 
Q 54.890625 11.625 47.5625 5.09375 
Q 40.234375 -1.421875 26.90625 -1.421875 
Q 22.3125 -1.421875 17.546875 -0.640625 
Q 12.796875 0.140625 7.71875 1.703125 
L 7.71875 11.625 
Q 12.109375 9.234375 16.796875 8.0625 
Q 21.484375 6.890625 26.703125 6.890625 
Q 35.15625 6.890625 40.078125 11.328125 
Q 45.015625 15.765625 45.015625 23.390625 
Q 45.015625 31 40.078125 35.4375 
Q 35.15625 39.890625 26.703125 39.890625 
Q 22.75 39.890625 18.8125 39.015625 
Q 14.890625 38.140625 10.796875 36.28125 
z
" id="DejaVuSans-53"/>
      </defs>
      <g style="fill:#262626;" transform="translate(114.867784 298.864269)scale(0.1364 -0.1364)">
       <use xlink:href="#DejaVuSans-50"/>
       <use x="63.623047" xlink:href="#DejaVuSans-46"/>
       <use x="95.410156" xlink:href="#DejaVuSans-53"/>
      </g>
     </g>
    </g>
    <g id="xtick_3">
     <g id="line2d_3">
      <g>
       <use style="fill:#262626;stroke:#262626;stroke-width:1.25;" x="167.986443" xlink:href="#m9c57de192c" y="279"/>
      </g>
     </g>
     <g id="text_3">
      <!-- 5.0 -->
      <g style="fill:#262626;" transform="translate(157.140511 298.864269)scale(0.1364 -0.1364)">
       <use xlink:href="#DejaVuSans-53"/>
       <use x="63.623047" xlink:href="#DejaVuSans-46"/>
       <use x="95.410156" xlink:href="#DejaVuSans-48"/>
      </g>
     </g>
    </g>
    <g id="xtick_4">
     <g id="line2d_4">
      <g>
       <use style="fill:#262626;stroke:#262626;stroke-width:1.25;" x="210.25917" xlink:href="#m9c57de192c" y="279"/>
      </g>
     </g>
     <g id="text_4">
      <!-- 7.5 -->
      <defs>
       <path d="M 8.203125 72.90625 
L 55.078125 72.90625 
L 55.078125 68.703125 
L 28.609375 0 
L 18.3125 0 
L 43.21875 64.59375 
L 8.203125 64.59375 
z
" id="DejaVuSans-55"/>
      </defs>
      <g style="fill:#262626;" transform="translate(199.413239 298.864269)scale(0.1364 -0.1364)">
       <use xlink:href="#DejaVuSans-55"/>
       <use x="63.623047" xlink:href="#DejaVuSans-46"/>
       <use x="95.410156" xlink:href="#DejaVuSans-53"/>
      </g>
     </g>
    </g>
    <g id="xtick_5">
     <g id="line2d_5">
      <g>
       <use style="fill:#262626;stroke:#262626;stroke-width:1.25;" x="252.531897" xlink:href="#m9c57de192c" y="279"/>
      </g>
     </g>
     <g id="text_5">
      <!-- 10.0 -->
      <defs>
       <path d="M 12.40625 8.296875 
L 28.515625 8.296875 
L 28.515625 63.921875 
L 10.984375 60.40625 
L 10.984375 69.390625 
L 28.421875 72.90625 
L 38.28125 72.90625 
L 38.28125 8.296875 
L 54.390625 8.296875 
L 54.390625 0 
L 12.40625 0 
z
" id="DejaVuSans-49"/>
      </defs>
      <g style="fill:#262626;" transform="translate(237.346741 298.864269)scale(0.1364 -0.1364)">
       <use xlink:href="#DejaVuSans-49"/>
       <use x="63.623047" xlink:href="#DejaVuSans-48"/>
       <use x="127.246094" xlink:href="#DejaVuSans-46"/>
       <use x="159.033203" xlink:href="#DejaVuSans-48"/>
      </g>
     </g>
    </g>
    <g id="xtick_6">
     <g id="line2d_6">
      <g>
       <use style="fill:#262626;stroke:#262626;stroke-width:1.25;" x="294.804624" xlink:href="#m9c57de192c" y="279"/>
      </g>
     </g>
     <g id="text_6">
      <!-- 12.5 -->
      <g style="fill:#262626;" transform="translate(279.619468 298.864269)scale(0.1364 -0.1364)">
       <use xlink:href="#DejaVuSans-49"/>
       <use x="63.623047" xlink:href="#DejaVuSans-50"/>
       <use x="127.246094" xlink:href="#DejaVuSans-46"/>
       <use x="159.033203" xlink:href="#DejaVuSans-53"/>
      </g>
     </g>
    </g>
    <g id="xtick_7">
     <g id="line2d_7">
      <g>
       <use style="fill:#262626;stroke:#262626;stroke-width:1.25;" x="337.077352" xlink:href="#m9c57de192c" y="279"/>
      </g>
     </g>
     <g id="text_7">
      <!-- 15.0 -->
      <g style="fill:#262626;" transform="translate(321.892195 298.864269)scale(0.1364 -0.1364)">
       <use xlink:href="#DejaVuSans-49"/>
       <use x="63.623047" xlink:href="#DejaVuSans-53"/>
       <use x="127.246094" xlink:href="#DejaVuSans-46"/>
       <use x="159.033203" xlink:href="#DejaVuSans-48"/>
      </g>
     </g>
    </g>
    <g id="xtick_8">
     <g id="line2d_8">
      <g>
       <use style="fill:#262626;stroke:#262626;stroke-width:1.25;" x="379.350079" xlink:href="#m9c57de192c" y="279"/>
      </g>
     </g>
     <g id="text_8">
      <!-- 17.5 -->
      <g style="fill:#262626;" transform="translate(364.164923 298.864269)scale(0.1364 -0.1364)">
       <use xlink:href="#DejaVuSans-49"/>
       <use x="63.623047" xlink:href="#DejaVuSans-55"/>
       <use x="127.246094" xlink:href="#DejaVuSans-46"/>
       <use x="159.033203" xlink:href="#DejaVuSans-53"/>
      </g>
     </g>
    </g>
    <g id="text_9">
     <!-- time (minutes) -->
     <defs>
      <path d="M 18.3125 70.21875 
L 18.3125 54.6875 
L 36.8125 54.6875 
L 36.8125 47.703125 
L 18.3125 47.703125 
L 18.3125 18.015625 
Q 18.3125 11.328125 20.140625 9.421875 
Q 21.96875 7.515625 27.59375 7.515625 
L 36.8125 7.515625 
L 36.8125 0 
L 27.59375 0 
Q 17.1875 0 13.234375 3.875 
Q 9.28125 7.765625 9.28125 18.015625 
L 9.28125 47.703125 
L 2.6875 47.703125 
L 2.6875 54.6875 
L 9.28125 54.6875 
L 9.28125 70.21875 
z
" id="DejaVuSans-116"/>
      <path d="M 9.421875 54.6875 
L 18.40625 54.6875 
L 18.40625 0 
L 9.421875 0 
z
M 9.421875 75.984375 
L 18.40625 75.984375 
L 18.40625 64.59375 
L 9.421875 64.59375 
z
" id="DejaVuSans-105"/>
      <path d="M 52 44.1875 
Q 55.375 50.25 60.0625 53.125 
Q 64.75 56 71.09375 56 
Q 79.640625 56 84.28125 50.015625 
Q 88.921875 44.046875 88.921875 33.015625 
L 88.921875 0 
L 79.890625 0 
L 79.890625 32.71875 
Q 79.890625 40.578125 77.09375 44.375 
Q 74.3125 48.1875 68.609375 48.1875 
Q 61.625 48.1875 57.5625 43.546875 
Q 53.515625 38.921875 53.515625 30.90625 
L 53.515625 0 
L 44.484375 0 
L 44.484375 32.71875 
Q 44.484375 40.625 41.703125 44.40625 
Q 38.921875 48.1875 33.109375 48.1875 
Q 26.21875 48.1875 22.15625 43.53125 
Q 18.109375 38.875 18.109375 30.90625 
L 18.109375 0 
L 9.078125 0 
L 9.078125 54.6875 
L 18.109375 54.6875 
L 18.109375 46.1875 
Q 21.1875 51.21875 25.484375 53.609375 
Q 29.78125 56 35.6875 56 
Q 41.65625 56 45.828125 52.96875 
Q 50 49.953125 52 44.1875 
z
" id="DejaVuSans-109"/>
      <path d="M 56.203125 29.59375 
L 56.203125 25.203125 
L 14.890625 25.203125 
Q 15.484375 15.921875 20.484375 11.0625 
Q 25.484375 6.203125 34.421875 6.203125 
Q 39.59375 6.203125 44.453125 7.46875 
Q 49.3125 8.734375 54.109375 11.28125 
L 54.109375 2.78125 
Q 49.265625 0.734375 44.1875 -0.34375 
Q 39.109375 -1.421875 33.890625 -1.421875 
Q 20.796875 -1.421875 13.15625 6.1875 
Q 5.515625 13.8125 5.515625 26.8125 
Q 5.515625 40.234375 12.765625 48.109375 
Q 20.015625 56 32.328125 56 
Q 43.359375 56 49.78125 48.890625 
Q 56.203125 41.796875 56.203125 29.59375 
z
M 47.21875 32.234375 
Q 47.125 39.59375 43.09375 43.984375 
Q 39.0625 48.390625 32.421875 48.390625 
Q 24.90625 48.390625 20.390625 44.140625 
Q 15.875 39.890625 15.1875 32.171875 
z
" id="DejaVuSans-101"/>
      <path id="DejaVuSans-32"/>
      <path d="M 31 75.875 
Q 24.46875 64.65625 21.28125 53.65625 
Q 18.109375 42.671875 18.109375 31.390625 
Q 18.109375 20.125 21.3125 9.0625 
Q 24.515625 -2 31 -13.1875 
L 23.1875 -13.1875 
Q 15.875 -1.703125 12.234375 9.375 
Q 8.59375 20.453125 8.59375 31.390625 
Q 8.59375 42.28125 12.203125 53.3125 
Q 15.828125 64.359375 23.1875 75.875 
z
" id="DejaVuSans-40"/>
      <path d="M 54.890625 33.015625 
L 54.890625 0 
L 45.90625 0 
L 45.90625 32.71875 
Q 45.90625 40.484375 42.875 44.328125 
Q 39.84375 48.1875 33.796875 48.1875 
Q 26.515625 48.1875 22.3125 43.546875 
Q 18.109375 38.921875 18.109375 30.90625 
L 18.109375 0 
L 9.078125 0 
L 9.078125 54.6875 
L 18.109375 54.6875 
L 18.109375 46.1875 
Q 21.34375 51.125 25.703125 53.5625 
Q 30.078125 56 35.796875 56 
Q 45.21875 56 50.046875 50.171875 
Q 54.890625 44.34375 54.890625 33.015625 
z
" id="DejaVuSans-110"/>
      <path d="M 8.5 21.578125 
L 8.5 54.6875 
L 17.484375 54.6875 
L 17.484375 21.921875 
Q 17.484375 14.15625 20.5 10.265625 
Q 23.53125 6.390625 29.59375 6.390625 
Q 36.859375 6.390625 41.078125 11.03125 
Q 45.3125 15.671875 45.3125 23.6875 
L 45.3125 54.6875 
L 54.296875 54.6875 
L 54.296875 0 
L 45.3125 0 
L 45.3125 8.40625 
Q 42.046875 3.421875 37.71875 1 
Q 33.40625 -1.421875 27.6875 -1.421875 
Q 18.265625 -1.421875 13.375 4.4375 
Q 8.5 10.296875 8.5 21.578125 
z
M 31.109375 56 
z
" id="DejaVuSans-117"/>
      <path d="M 44.28125 53.078125 
L 44.28125 44.578125 
Q 40.484375 46.53125 36.375 47.5 
Q 32.28125 48.484375 27.875 48.484375 
Q 21.1875 48.484375 17.84375 46.4375 
Q 14.5 44.390625 14.5 40.28125 
Q 14.5 37.15625 16.890625 35.375 
Q 19.28125 33.59375 26.515625 31.984375 
L 29.59375 31.296875 
Q 39.15625 29.25 43.1875 25.515625 
Q 47.21875 21.78125 47.21875 15.09375 
Q 47.21875 7.46875 41.1875 3.015625 
Q 35.15625 -1.421875 24.609375 -1.421875 
Q 20.21875 -1.421875 15.453125 -0.5625 
Q 10.6875 0.296875 5.421875 2 
L 5.421875 11.28125 
Q 10.40625 8.6875 15.234375 7.390625 
Q 20.0625 6.109375 24.8125 6.109375 
Q 31.15625 6.109375 34.5625 8.28125 
Q 37.984375 10.453125 37.984375 14.40625 
Q 37.984375 18.0625 35.515625 20.015625 
Q 33.0625 21.96875 24.703125 23.78125 
L 21.578125 24.515625 
Q 13.234375 26.265625 9.515625 29.90625 
Q 5.8125 33.546875 5.8125 39.890625 
Q 5.8125 47.609375 11.28125 51.796875 
Q 16.75 56 26.8125 56 
Q 31.78125 56 36.171875 55.265625 
Q 40.578125 54.546875 44.28125 53.078125 
z
" id="DejaVuSans-115"/>
      <path d="M 8.015625 75.875 
L 15.828125 75.875 
Q 23.140625 64.359375 26.78125 53.3125 
Q 30.421875 42.28125 30.421875 31.390625 
Q 30.421875 20.453125 26.78125 9.375 
Q 23.140625 -1.703125 15.828125 -13.1875 
L 8.015625 -13.1875 
Q 14.5 -2 17.703125 9.0625 
Q 20.90625 20.125 20.90625 31.390625 
Q 20.90625 42.671875 17.703125 53.65625 
Q 14.5 64.65625 8.015625 75.875 
z
" id="DejaVuSans-41"/>
     </defs>
     <g style="fill:#262626;" transform="translate(180.529606 317.007437)scale(0.1488 -0.1488)">
      <use xlink:href="#DejaVuSans-116"/>
      <use x="39.208984" xlink:href="#DejaVuSans-105"/>
      <use x="66.992188" xlink:href="#DejaVuSans-109"/>
      <use x="164.404297" xlink:href="#DejaVuSans-101"/>
      <use x="225.927734" xlink:href="#DejaVuSans-32"/>
      <use x="257.714844" xlink:href="#DejaVuSans-40"/>
      <use x="296.728516" xlink:href="#DejaVuSans-109"/>
      <use x="394.140625" xlink:href="#DejaVuSans-105"/>
      <use x="421.923828" xlink:href="#DejaVuSans-110"/>
      <use x="485.302734" xlink:href="#DejaVuSans-117"/>
      <use x="548.681641" xlink:href="#DejaVuSans-116"/>
      <use x="587.890625" xlink:href="#DejaVuSans-101"/>
      <use x="649.414062" xlink:href="#DejaVuSans-115"/>
      <use x="701.513672" xlink:href="#DejaVuSans-41"/>
     </g>
    </g>
   </g>
   <g id="matplotlib.axis_2">
    <g id="ytick_1">
     <g id="line2d_9">
      <defs>
       <path d="M 0 0 
L -6 0 
" id="m8ecc7e66b1" style="stroke:#262626;stroke-width:1.25;"/>
      </defs>
      <g>
       <use style="fill:#262626;stroke:#262626;stroke-width:1.25;" x="68.222806" xlink:href="#m8ecc7e66b1" y="239.311476"/>
      </g>
     </g>
     <g id="text_10">
      <!-- −0.1 -->
      <defs>
       <path d="M 10.59375 35.5 
L 73.1875 35.5 
L 73.1875 27.203125 
L 10.59375 27.203125 
z
" id="DejaVuSans-8722"/>
      </defs>
      <g style="fill:#262626;" transform="translate(25.60105 244.49361)scale(0.1364 -0.1364)">
       <use xlink:href="#DejaVuSans-8722"/>
       <use x="83.789062" xlink:href="#DejaVuSans-48"/>
       <use x="147.412109" xlink:href="#DejaVuSans-46"/>
       <use x="179.199219" xlink:href="#DejaVuSans-49"/>
      </g>
     </g>
    </g>
    <g id="ytick_2">
     <g id="line2d_10">
      <g>
       <use style="fill:#262626;stroke:#262626;stroke-width:1.25;" x="68.222806" xlink:href="#m8ecc7e66b1" y="194.993031"/>
      </g>
     </g>
     <g id="text_11">
      <!-- 0.0 -->
      <g style="fill:#262626;" transform="translate(37.030944 200.175165)scale(0.1364 -0.1364)">
       <use xlink:href="#DejaVuSans-48"/>
       <use x="63.623047" xlink:href="#DejaVuSans-46"/>
       <use x="95.410156" xlink:href="#DejaVuSans-48"/>
      </g>
     </g>
    </g>
    <g id="ytick_3">
     <g id="line2d_11">
      <g>
       <use style="fill:#262626;stroke:#262626;stroke-width:1.25;" x="68.222806" xlink:href="#m8ecc7e66b1" y="150.674586"/>
      </g>
     </g>
     <g id="text_12">
      <!-- 0.1 -->
      <g style="fill:#262626;" transform="translate(37.030944 155.85672)scale(0.1364 -0.1364)">
       <use xlink:href="#DejaVuSans-48"/>
       <use x="63.623047" xlink:href="#DejaVuSans-46"/>
       <use x="95.410156" xlink:href="#DejaVuSans-49"/>
      </g>
     </g>
    </g>
    <g id="ytick_4">
     <g id="line2d_12">
      <g>
       <use style="fill:#262626;stroke:#262626;stroke-width:1.25;" x="68.222806" xlink:href="#m8ecc7e66b1" y="106.356141"/>
      </g>
     </g>
     <g id="text_13">
      <!-- 0.2 -->
      <g style="fill:#262626;" transform="translate(37.030944 111.538276)scale(0.1364 -0.1364)">
       <use xlink:href="#DejaVuSans-48"/>
       <use x="63.623047" xlink:href="#DejaVuSans-46"/>
       <use x="95.410156" xlink:href="#DejaVuSans-50"/>
      </g>
     </g>
    </g>
    <g id="ytick_5">
     <g id="line2d_13">
      <g>
       <use style="fill:#262626;stroke:#262626;stroke-width:1.25;" x="68.222806" xlink:href="#m8ecc7e66b1" y="62.037697"/>
      </g>
     </g>
     <g id="text_14">
      <!-- 0.3 -->
      <defs>
       <path d="M 40.578125 39.3125 
Q 47.65625 37.796875 51.625 33 
Q 55.609375 28.21875 55.609375 21.1875 
Q 55.609375 10.40625 48.1875 4.484375 
Q 40.765625 -1.421875 27.09375 -1.421875 
Q 22.515625 -1.421875 17.65625 -0.515625 
Q 12.796875 0.390625 7.625 2.203125 
L 7.625 11.71875 
Q 11.71875 9.328125 16.59375 8.109375 
Q 21.484375 6.890625 26.8125 6.890625 
Q 36.078125 6.890625 40.9375 10.546875 
Q 45.796875 14.203125 45.796875 21.1875 
Q 45.796875 27.640625 41.28125 31.265625 
Q 36.765625 34.90625 28.71875 34.90625 
L 20.21875 34.90625 
L 20.21875 43.015625 
L 29.109375 43.015625 
Q 36.375 43.015625 40.234375 45.921875 
Q 44.09375 48.828125 44.09375 54.296875 
Q 44.09375 59.90625 40.109375 62.90625 
Q 36.140625 65.921875 28.71875 65.921875 
Q 24.65625 65.921875 20.015625 65.03125 
Q 15.375 64.15625 9.8125 62.3125 
L 9.8125 71.09375 
Q 15.4375 72.65625 20.34375 73.4375 
Q 25.25 74.21875 29.59375 74.21875 
Q 40.828125 74.21875 47.359375 69.109375 
Q 53.90625 64.015625 53.90625 55.328125 
Q 53.90625 49.265625 50.4375 45.09375 
Q 46.96875 40.921875 40.578125 39.3125 
z
" id="DejaVuSans-51"/>
      </defs>
      <g style="fill:#262626;" transform="translate(37.030944 67.219831)scale(0.1364 -0.1364)">
       <use xlink:href="#DejaVuSans-48"/>
       <use x="63.623047" xlink:href="#DejaVuSans-46"/>
       <use x="95.410156" xlink:href="#DejaVuSans-51"/>
      </g>
     </g>
    </g>
    <g id="ytick_6">
     <g id="line2d_14">
      <g>
       <use style="fill:#262626;stroke:#262626;stroke-width:1.25;" x="68.222806" xlink:href="#m8ecc7e66b1" y="17.719252"/>
      </g>
     </g>
     <g id="text_15">
      <!-- 0.4 -->
      <defs>
       <path d="M 37.796875 64.3125 
L 12.890625 25.390625 
L 37.796875 25.390625 
z
M 35.203125 72.90625 
L 47.609375 72.90625 
L 47.609375 25.390625 
L 58.015625 25.390625 
L 58.015625 17.1875 
L 47.609375 17.1875 
L 47.609375 0 
L 37.796875 0 
L 37.796875 17.1875 
L 4.890625 17.1875 
L 4.890625 26.703125 
z
" id="DejaVuSans-52"/>
      </defs>
      <g style="fill:#262626;" transform="translate(37.030944 22.901386)scale(0.1364 -0.1364)">
       <use xlink:href="#DejaVuSans-48"/>
       <use x="63.623047" xlink:href="#DejaVuSans-46"/>
       <use x="95.410156" xlink:href="#DejaVuSans-52"/>
      </g>
     </g>
    </g>
    <g id="text_16">
     <!-- signal (au) -->
     <defs>
      <path d="M 45.40625 27.984375 
Q 45.40625 37.75 41.375 43.109375 
Q 37.359375 48.484375 30.078125 48.484375 
Q 22.859375 48.484375 18.828125 43.109375 
Q 14.796875 37.75 14.796875 27.984375 
Q 14.796875 18.265625 18.828125 12.890625 
Q 22.859375 7.515625 30.078125 7.515625 
Q 37.359375 7.515625 41.375 12.890625 
Q 45.40625 18.265625 45.40625 27.984375 
z
M 54.390625 6.78125 
Q 54.390625 -7.171875 48.1875 -13.984375 
Q 42 -20.796875 29.203125 -20.796875 
Q 24.46875 -20.796875 20.265625 -20.09375 
Q 16.0625 -19.390625 12.109375 -17.921875 
L 12.109375 -9.1875 
Q 16.0625 -11.328125 19.921875 -12.34375 
Q 23.78125 -13.375 27.78125 -13.375 
Q 36.625 -13.375 41.015625 -8.765625 
Q 45.40625 -4.15625 45.40625 5.171875 
L 45.40625 9.625 
Q 42.625 4.78125 38.28125 2.390625 
Q 33.9375 0 27.875 0 
Q 17.828125 0 11.671875 7.65625 
Q 5.515625 15.328125 5.515625 27.984375 
Q 5.515625 40.671875 11.671875 48.328125 
Q 17.828125 56 27.875 56 
Q 33.9375 56 38.28125 53.609375 
Q 42.625 51.21875 45.40625 46.390625 
L 45.40625 54.6875 
L 54.390625 54.6875 
z
" id="DejaVuSans-103"/>
      <path d="M 34.28125 27.484375 
Q 23.390625 27.484375 19.1875 25 
Q 14.984375 22.515625 14.984375 16.5 
Q 14.984375 11.71875 18.140625 8.90625 
Q 21.296875 6.109375 26.703125 6.109375 
Q 34.1875 6.109375 38.703125 11.40625 
Q 43.21875 16.703125 43.21875 25.484375 
L 43.21875 27.484375 
z
M 52.203125 31.203125 
L 52.203125 0 
L 43.21875 0 
L 43.21875 8.296875 
Q 40.140625 3.328125 35.546875 0.953125 
Q 30.953125 -1.421875 24.3125 -1.421875 
Q 15.921875 -1.421875 10.953125 3.296875 
Q 6 8.015625 6 15.921875 
Q 6 25.140625 12.171875 29.828125 
Q 18.359375 34.515625 30.609375 34.515625 
L 43.21875 34.515625 
L 43.21875 35.40625 
Q 43.21875 41.609375 39.140625 45 
Q 35.0625 48.390625 27.6875 48.390625 
Q 23 48.390625 18.546875 47.265625 
Q 14.109375 46.140625 10.015625 43.890625 
L 10.015625 52.203125 
Q 14.9375 54.109375 19.578125 55.046875 
Q 24.21875 56 28.609375 56 
Q 40.484375 56 46.34375 49.84375 
Q 52.203125 43.703125 52.203125 31.203125 
z
" id="DejaVuSans-97"/>
      <path d="M 9.421875 75.984375 
L 18.40625 75.984375 
L 18.40625 0 
L 9.421875 0 
z
" id="DejaVuSans-108"/>
     </defs>
     <g style="fill:#262626;" transform="translate(18.506475 182.551762)rotate(-90)scale(0.1488 -0.1488)">
      <use xlink:href="#DejaVuSans-115"/>
      <use x="52.099609" xlink:href="#DejaVuSans-105"/>
      <use x="79.882812" xlink:href="#DejaVuSans-103"/>
      <use x="143.359375" xlink:href="#DejaVuSans-110"/>
      <use x="206.738281" xlink:href="#DejaVuSans-97"/>
      <use x="268.017578" xlink:href="#DejaVuSans-108"/>
      <use x="295.800781" xlink:href="#DejaVuSans-32"/>
      <use x="327.587891" xlink:href="#DejaVuSans-40"/>
      <use x="366.601562" xlink:href="#DejaVuSans-97"/>
      <use x="427.880859" xlink:href="#DejaVuSans-117"/>
      <use x="491.259766" xlink:href="#DejaVuSans-41"/>
     </g>
    </g>
   </g>
   <g id="PolyCollection_1">
    <defs>
     <path d="M 83.440988 -134.627182 
L 83.440988 -107.835923 
L 100.350079 -100.088684 
L 117.25917 -102.499446 
L 134.168261 -125.410688 
L 151.077352 -169.013196 
L 167.986443 -206.680199 
L 184.895534 -207.693062 
L 201.804624 -174.541946 
L 218.713715 -132.194033 
L 235.622806 -99.141403 
L 252.531897 -78.488155 
L 269.440988 -64.89152 
L 286.350079 -60.656558 
L 303.25917 -65.742687 
L 320.168261 -76.15112 
L 337.077352 -85.720199 
L 353.986443 -91.759938 
L 370.895534 -94.602803 
L 387.804624 -96.464081 
L 387.804624 -119.812941 
L 387.804624 -119.812941 
L 370.895534 -122.316227 
L 353.986443 -121.630422 
L 337.077352 -118.453047 
L 320.168261 -114.329368 
L 303.25917 -111.393609 
L 286.350079 -111.715255 
L 269.440988 -117.425749 
L 252.531897 -139.041524 
L 235.622806 -182.371499 
L 218.713715 -237.731193 
L 201.804624 -286.335771 
L 184.895534 -307.747467 
L 167.986443 -294.793894 
L 151.077352 -252.607949 
L 134.168261 -193.473953 
L 117.25917 -144.336159 
L 100.350079 -128.667191 
L 83.440988 -134.627182 
z
" id="mfa45070c45" style="stroke:#1f77b4;stroke-opacity:0.2;"/>
    </defs>
    <g clip-path="url(#p85fd4671cb)">
     <use style="fill:#1f77b4;fill-opacity:0.2;stroke:#1f77b4;stroke-opacity:0.2;" x="0" xlink:href="#mfa45070c45" y="327.302012"/>
    </g>
   </g>
   <g id="PolyCollection_2">
    <defs>
     <path d="M 83.440988 -144.25643 
L 83.440988 -115.620056 
L 100.350079 -109.598483 
L 117.25917 -111.967909 
L 134.168261 -123.284252 
L 151.077352 -142.690254 
L 167.986443 -159.21429 
L 184.895534 -158.000545 
L 201.804624 -137.1836 
L 218.713715 -106.141941 
L 235.622806 -82.218569 
L 252.531897 -74.771783 
L 269.440988 -76.254594 
L 286.350079 -80.936712 
L 303.25917 -89.140018 
L 320.168261 -98.337234 
L 337.077352 -105.734829 
L 353.986443 -109.710162 
L 370.895534 -109.373094 
L 387.804624 -108.112965 
L 387.804624 -136.259248 
L 387.804624 -136.259248 
L 370.895534 -135.590282 
L 353.986443 -133.341914 
L 337.077352 -132.188016 
L 320.168261 -129.221203 
L 303.25917 -124.234911 
L 286.350079 -119.304231 
L 269.440988 -115.7413 
L 252.531897 -122.873 
L 235.622806 -145.132617 
L 218.713715 -180.558253 
L 201.804624 -224.931645 
L 184.895534 -258.879229 
L 167.986443 -258.482467 
L 151.077352 -222.145524 
L 134.168261 -173.590135 
L 117.25917 -143.990471 
L 100.350079 -141.158634 
L 83.440988 -144.25643 
z
" id="m835de3e712" style="stroke:#1f77b4;stroke-opacity:0.2;"/>
    </defs>
    <g clip-path="url(#p85fd4671cb)">
     <use style="fill:#1f77b4;fill-opacity:0.2;stroke:#1f77b4;stroke-opacity:0.2;" x="0" xlink:href="#m835de3e712" y="327.302012"/>
    </g>
   </g>
   <g id="PolyCollection_3">
    <defs>
     <path d="M 83.440988 -133.237497 
L 83.440988 -110.847081 
L 100.350079 -108.190518 
L 117.25917 -111.02623 
L 134.168261 -120.317819 
L 151.077352 -131.546585 
L 167.986443 -135.013133 
L 184.895534 -126.450923 
L 201.804624 -107.32282 
L 218.713715 -90.70357 
L 235.622806 -86.205974 
L 252.531897 -89.190435 
L 269.440988 -95.750479 
L 286.350079 -104.683565 
L 303.25917 -112.675681 
L 320.168261 -117.397717 
L 337.077352 -119.549583 
L 353.986443 -118.674178 
L 370.895534 -116.368462 
L 387.804624 -113.024317 
L 387.804624 -140.632316 
L 387.804624 -140.632316 
L 370.895534 -139.225667 
L 353.986443 -139.201499 
L 337.077352 -140.183765 
L 320.168261 -139.043434 
L 303.25917 -136.715391 
L 286.350079 -134.218074 
L 269.440988 -130.689711 
L 252.531897 -126.71516 
L 235.622806 -126.215671 
L 218.713715 -134.104507 
L 201.804624 -150.111366 
L 184.895534 -173.165678 
L 167.986443 -191.063751 
L 151.077352 -187.407578 
L 134.168261 -163.744042 
L 117.25917 -139.867768 
L 100.350079 -131.34569 
L 83.440988 -133.237497 
z
" id="m99e2625a22" style="stroke:#ff7f0e;stroke-opacity:0.2;"/>
    </defs>
    <g clip-path="url(#p85fd4671cb)">
     <use style="fill:#ff7f0e;fill-opacity:0.2;stroke:#ff7f0e;stroke-opacity:0.2;" x="0" xlink:href="#m99e2625a22" y="327.302012"/>
    </g>
   </g>
   <g id="PolyCollection_4">
    <defs>
     <path d="M 83.440988 -136.666279 
L 83.440988 -116.307629 
L 100.350079 -115.245474 
L 117.25917 -118.713443 
L 134.168261 -122.582894 
L 151.077352 -123.791492 
L 167.986443 -124.18735 
L 184.895534 -122.731908 
L 201.804624 -106.348528 
L 218.713715 -88.573898 
L 235.622806 -89.323257 
L 252.531897 -101.479983 
L 269.440988 -111.376595 
L 286.350079 -115.990209 
L 303.25917 -118.429008 
L 320.168261 -121.004341 
L 337.077352 -122.179656 
L 353.986443 -120.806754 
L 370.895534 -119.989661 
L 387.804624 -119.069396 
L 387.804624 -147.566055 
L 387.804624 -147.566055 
L 370.895534 -145.245612 
L 353.986443 -143.877298 
L 337.077352 -142.706376 
L 320.168261 -143.645512 
L 303.25917 -145.798303 
L 286.350079 -144.737994 
L 269.440988 -140.014785 
L 252.531897 -135.573184 
L 235.622806 -134.262582 
L 218.713715 -136.04464 
L 201.804624 -139.946339 
L 184.895534 -155.905328 
L 167.986443 -177.338819 
L 151.077352 -177.41459 
L 134.168261 -158.195327 
L 117.25917 -140.428921 
L 100.350079 -135.534406 
L 83.440988 -136.666279 
z
" id="m0f3c6dfe99" style="stroke:#ff7f0e;stroke-opacity:0.2;"/>
    </defs>
    <g clip-path="url(#p85fd4671cb)">
     <use style="fill:#ff7f0e;fill-opacity:0.2;stroke:#ff7f0e;stroke-opacity:0.2;" x="0" xlink:href="#m0f3c6dfe99" y="327.302012"/>
    </g>
   </g>
   <g id="line2d_15">
    <path clip-path="url(#p85fd4671cb)" d="M 83.440988 206.07046 
L 100.350079 212.924075 
L 117.25917 203.88421 
L 134.168261 167.859692 
L 151.077352 116.49144 
L 167.986443 76.564966 
L 184.895534 69.581748 
L 201.804624 96.863154 
L 218.713715 142.3394 
L 235.622806 186.545561 
L 252.531897 218.537173 
L 269.440988 236.143378 
L 286.350079 241.116106 
L 303.25917 238.733864 
L 320.168261 232.061769 
L 337.077352 225.21539 
L 353.986443 220.606833 
L 370.895534 218.842497 
L 387.804624 219.163501 
" style="fill:none;stroke:#1f77b4;stroke-linecap:round;stroke-width:2;"/>
    <defs>
     <path d="M -3 3 
L 3 3 
L 3 -3 
L -3 -3 
z
" id="md5ad860ed5" style="stroke:#ffffff;stroke-linejoin:miter;stroke-width:0.75;"/>
    </defs>
    <g clip-path="url(#p85fd4671cb)">
     <use style="fill:#1f77b4;stroke:#ffffff;stroke-linejoin:miter;stroke-width:0.75;" x="83.440988" xlink:href="#md5ad860ed5" y="206.07046"/>
     <use style="fill:#1f77b4;stroke:#ffffff;stroke-linejoin:miter;stroke-width:0.75;" x="100.350079" xlink:href="#md5ad860ed5" y="212.924075"/>
     <use style="fill:#1f77b4;stroke:#ffffff;stroke-linejoin:miter;stroke-width:0.75;" x="117.25917" xlink:href="#md5ad860ed5" y="203.88421"/>
     <use style="fill:#1f77b4;stroke:#ffffff;stroke-linejoin:miter;stroke-width:0.75;" x="134.168261" xlink:href="#md5ad860ed5" y="167.859692"/>
     <use style="fill:#1f77b4;stroke:#ffffff;stroke-linejoin:miter;stroke-width:0.75;" x="151.077352" xlink:href="#md5ad860ed5" y="116.49144"/>
     <use style="fill:#1f77b4;stroke:#ffffff;stroke-linejoin:miter;stroke-width:0.75;" x="167.986443" xlink:href="#md5ad860ed5" y="76.564966"/>
     <use style="fill:#1f77b4;stroke:#ffffff;stroke-linejoin:miter;stroke-width:0.75;" x="184.895534" xlink:href="#md5ad860ed5" y="69.581748"/>
     <use style="fill:#1f77b4;stroke:#ffffff;stroke-linejoin:miter;stroke-width:0.75;" x="201.804624" xlink:href="#md5ad860ed5" y="96.863154"/>
     <use style="fill:#1f77b4;stroke:#ffffff;stroke-linejoin:miter;stroke-width:0.75;" x="218.713715" xlink:href="#md5ad860ed5" y="142.3394"/>
     <use style="fill:#1f77b4;stroke:#ffffff;stroke-linejoin:miter;stroke-width:0.75;" x="235.622806" xlink:href="#md5ad860ed5" y="186.545561"/>
     <use style="fill:#1f77b4;stroke:#ffffff;stroke-linejoin:miter;stroke-width:0.75;" x="252.531897" xlink:href="#md5ad860ed5" y="218.537173"/>
     <use style="fill:#1f77b4;stroke:#ffffff;stroke-linejoin:miter;stroke-width:0.75;" x="269.440988" xlink:href="#md5ad860ed5" y="236.143378"/>
     <use style="fill:#1f77b4;stroke:#ffffff;stroke-linejoin:miter;stroke-width:0.75;" x="286.350079" xlink:href="#md5ad860ed5" y="241.116106"/>
     <use style="fill:#1f77b4;stroke:#ffffff;stroke-linejoin:miter;stroke-width:0.75;" x="303.25917" xlink:href="#md5ad860ed5" y="238.733864"/>
     <use style="fill:#1f77b4;stroke:#ffffff;stroke-linejoin:miter;stroke-width:0.75;" x="320.168261" xlink:href="#md5ad860ed5" y="232.061769"/>
     <use style="fill:#1f77b4;stroke:#ffffff;stroke-linejoin:miter;stroke-width:0.75;" x="337.077352" xlink:href="#md5ad860ed5" y="225.21539"/>
     <use style="fill:#1f77b4;stroke:#ffffff;stroke-linejoin:miter;stroke-width:0.75;" x="353.986443" xlink:href="#md5ad860ed5" y="220.606833"/>
     <use style="fill:#1f77b4;stroke:#ffffff;stroke-linejoin:miter;stroke-width:0.75;" x="370.895534" xlink:href="#md5ad860ed5" y="218.842497"/>
     <use style="fill:#1f77b4;stroke:#ffffff;stroke-linejoin:miter;stroke-width:0.75;" x="387.804624" xlink:href="#md5ad860ed5" y="219.163501"/>
    </g>
   </g>
   <g id="line2d_16">
    <path clip-path="url(#p85fd4671cb)" d="M 83.440988 197.363769 
L 100.350079 201.923454 
L 117.25917 199.322822 
L 134.168261 178.864819 
L 151.077352 144.884124 
L 167.986443 118.453634 
L 184.895534 118.862126 
L 201.804624 146.24439 
L 218.713715 183.951916 
L 235.622806 213.62642 
L 252.531897 228.479621 
L 269.440988 231.304066 
L 286.350079 227.181541 
L 303.25917 220.614548 
L 320.168261 213.522794 
L 337.077352 208.34059 
L 353.986443 205.775975 
L 370.895534 204.820324 
L 387.804624 205.115906 
" style="fill:none;stroke:#1f77b4;stroke-dasharray:8,3;stroke-dashoffset:0;stroke-width:2;"/>
    <defs>
     <path d="M 0 3 
C 0.795609 3 1.55874 2.683901 2.12132 2.12132 
C 2.683901 1.55874 3 0.795609 3 0 
C 3 -0.795609 2.683901 -1.55874 2.12132 -2.12132 
C 1.55874 -2.683901 0.795609 -3 0 -3 
C -0.795609 -3 -1.55874 -2.683901 -2.12132 -2.12132 
C -2.683901 -1.55874 -3 -0.795609 -3 0 
C -3 0.795609 -2.683901 1.55874 -2.12132 2.12132 
C -1.55874 2.683901 -0.795609 3 0 3 
z
" id="m8be77bc035" style="stroke:#ffffff;stroke-width:0.75;"/>
    </defs>
    <g clip-path="url(#p85fd4671cb)">
     <use style="fill:#1f77b4;stroke:#ffffff;stroke-width:0.75;" x="83.440988" xlink:href="#m8be77bc035" y="197.363769"/>
     <use style="fill:#1f77b4;stroke:#ffffff;stroke-width:0.75;" x="100.350079" xlink:href="#m8be77bc035" y="201.923454"/>
     <use style="fill:#1f77b4;stroke:#ffffff;stroke-width:0.75;" x="117.25917" xlink:href="#m8be77bc035" y="199.322822"/>
     <use style="fill:#1f77b4;stroke:#ffffff;stroke-width:0.75;" x="134.168261" xlink:href="#m8be77bc035" y="178.864819"/>
     <use style="fill:#1f77b4;stroke:#ffffff;stroke-width:0.75;" x="151.077352" xlink:href="#m8be77bc035" y="144.884124"/>
     <use style="fill:#1f77b4;stroke:#ffffff;stroke-width:0.75;" x="167.986443" xlink:href="#m8be77bc035" y="118.453634"/>
     <use style="fill:#1f77b4;stroke:#ffffff;stroke-width:0.75;" x="184.895534" xlink:href="#m8be77bc035" y="118.862126"/>
     <use style="fill:#1f77b4;stroke:#ffffff;stroke-width:0.75;" x="201.804624" xlink:href="#m8be77bc035" y="146.24439"/>
     <use style="fill:#1f77b4;stroke:#ffffff;stroke-width:0.75;" x="218.713715" xlink:href="#m8be77bc035" y="183.951916"/>
     <use style="fill:#1f77b4;stroke:#ffffff;stroke-width:0.75;" x="235.622806" xlink:href="#m8be77bc035" y="213.62642"/>
     <use style="fill:#1f77b4;stroke:#ffffff;stroke-width:0.75;" x="252.531897" xlink:href="#m8be77bc035" y="228.479621"/>
     <use style="fill:#1f77b4;stroke:#ffffff;stroke-width:0.75;" x="269.440988" xlink:href="#m8be77bc035" y="231.304066"/>
     <use style="fill:#1f77b4;stroke:#ffffff;stroke-width:0.75;" x="286.350079" xlink:href="#m8be77bc035" y="227.181541"/>
     <use style="fill:#1f77b4;stroke:#ffffff;stroke-width:0.75;" x="303.25917" xlink:href="#m8be77bc035" y="220.614548"/>
     <use style="fill:#1f77b4;stroke:#ffffff;stroke-width:0.75;" x="320.168261" xlink:href="#m8be77bc035" y="213.522794"/>
     <use style="fill:#1f77b4;stroke:#ffffff;stroke-width:0.75;" x="337.077352" xlink:href="#m8be77bc035" y="208.34059"/>
     <use style="fill:#1f77b4;stroke:#ffffff;stroke-width:0.75;" x="353.986443" xlink:href="#m8be77bc035" y="205.775975"/>
     <use style="fill:#1f77b4;stroke:#ffffff;stroke-width:0.75;" x="370.895534" xlink:href="#m8be77bc035" y="204.820324"/>
     <use style="fill:#1f77b4;stroke:#ffffff;stroke-width:0.75;" x="387.804624" xlink:href="#m8be77bc035" y="205.115906"/>
    </g>
   </g>
   <g id="line2d_17">
    <path clip-path="url(#p85fd4671cb)" d="M 83.440988 205.259724 
L 100.350079 207.533909 
L 117.25917 201.855014 
L 134.168261 185.271082 
L 151.077352 167.824931 
L 167.986443 164.263571 
L 184.895534 177.493712 
L 201.804624 198.58492 
L 218.713715 214.897974 
L 235.622806 221.09119 
L 252.531897 219.349215 
L 269.440988 214.081918 
L 286.350079 207.851193 
L 303.25917 202.606477 
L 320.168261 199.081437 
L 337.077352 197.435338 
L 353.986443 198.364174 
L 370.895534 199.504948 
L 387.804624 200.473696 
" style="fill:none;stroke:#ff7f0e;stroke-linecap:round;stroke-width:2;"/>
    <defs>
     <path d="M -3 3 
L 3 3 
L 3 -3 
L -3 -3 
z
" id="mec2de21060" style="stroke:#ffffff;stroke-linejoin:miter;stroke-width:0.75;"/>
    </defs>
    <g clip-path="url(#p85fd4671cb)">
     <use style="fill:#ff7f0e;stroke:#ffffff;stroke-linejoin:miter;stroke-width:0.75;" x="83.440988" xlink:href="#mec2de21060" y="205.259724"/>
     <use style="fill:#ff7f0e;stroke:#ffffff;stroke-linejoin:miter;stroke-width:0.75;" x="100.350079" xlink:href="#mec2de21060" y="207.533909"/>
     <use style="fill:#ff7f0e;stroke:#ffffff;stroke-linejoin:miter;stroke-width:0.75;" x="117.25917" xlink:href="#mec2de21060" y="201.855014"/>
     <use style="fill:#ff7f0e;stroke:#ffffff;stroke-linejoin:miter;stroke-width:0.75;" x="134.168261" xlink:href="#mec2de21060" y="185.271082"/>
     <use style="fill:#ff7f0e;stroke:#ffffff;stroke-linejoin:miter;stroke-width:0.75;" x="151.077352" xlink:href="#mec2de21060" y="167.824931"/>
     <use style="fill:#ff7f0e;stroke:#ffffff;stroke-linejoin:miter;stroke-width:0.75;" x="167.986443" xlink:href="#mec2de21060" y="164.263571"/>
     <use style="fill:#ff7f0e;stroke:#ffffff;stroke-linejoin:miter;stroke-width:0.75;" x="184.895534" xlink:href="#mec2de21060" y="177.493712"/>
     <use style="fill:#ff7f0e;stroke:#ffffff;stroke-linejoin:miter;stroke-width:0.75;" x="201.804624" xlink:href="#mec2de21060" y="198.58492"/>
     <use style="fill:#ff7f0e;stroke:#ffffff;stroke-linejoin:miter;stroke-width:0.75;" x="218.713715" xlink:href="#mec2de21060" y="214.897974"/>
     <use style="fill:#ff7f0e;stroke:#ffffff;stroke-linejoin:miter;stroke-width:0.75;" x="235.622806" xlink:href="#mec2de21060" y="221.09119"/>
     <use style="fill:#ff7f0e;stroke:#ffffff;stroke-linejoin:miter;stroke-width:0.75;" x="252.531897" xlink:href="#mec2de21060" y="219.349215"/>
     <use style="fill:#ff7f0e;stroke:#ffffff;stroke-linejoin:miter;stroke-width:0.75;" x="269.440988" xlink:href="#mec2de21060" y="214.081918"/>
     <use style="fill:#ff7f0e;stroke:#ffffff;stroke-linejoin:miter;stroke-width:0.75;" x="286.350079" xlink:href="#mec2de21060" y="207.851193"/>
     <use style="fill:#ff7f0e;stroke:#ffffff;stroke-linejoin:miter;stroke-width:0.75;" x="303.25917" xlink:href="#mec2de21060" y="202.606477"/>
     <use style="fill:#ff7f0e;stroke:#ffffff;stroke-linejoin:miter;stroke-width:0.75;" x="320.168261" xlink:href="#mec2de21060" y="199.081437"/>
     <use style="fill:#ff7f0e;stroke:#ffffff;stroke-linejoin:miter;stroke-width:0.75;" x="337.077352" xlink:href="#mec2de21060" y="197.435338"/>
     <use style="fill:#ff7f0e;stroke:#ffffff;stroke-linejoin:miter;stroke-width:0.75;" x="353.986443" xlink:href="#mec2de21060" y="198.364174"/>
     <use style="fill:#ff7f0e;stroke:#ffffff;stroke-linejoin:miter;stroke-width:0.75;" x="370.895534" xlink:href="#mec2de21060" y="199.504948"/>
     <use style="fill:#ff7f0e;stroke:#ffffff;stroke-linejoin:miter;stroke-width:0.75;" x="387.804624" xlink:href="#mec2de21060" y="200.473696"/>
    </g>
   </g>
   <g id="line2d_18">
    <path clip-path="url(#p85fd4671cb)" d="M 83.440988 200.815059 
L 100.350079 201.912072 
L 117.25917 197.730831 
L 134.168261 186.912902 
L 151.077352 176.698972 
L 167.986443 176.538928 
L 184.895534 187.983395 
L 201.804624 204.154579 
L 218.713715 214.992744 
L 235.622806 215.509093 
L 252.531897 208.775429 
L 269.440988 201.606322 
L 286.350079 196.937911 
L 303.25917 195.188357 
L 320.168261 194.977086 
L 337.077352 194.858997 
L 353.986443 194.959986 
L 370.895534 194.684376 
L 387.804624 193.984287 
" style="fill:none;stroke:#ff7f0e;stroke-dasharray:8,3;stroke-dashoffset:0;stroke-width:2;"/>
    <defs>
     <path d="M 0 3 
C 0.795609 3 1.55874 2.683901 2.12132 2.12132 
C 2.683901 1.55874 3 0.795609 3 0 
C 3 -0.795609 2.683901 -1.55874 2.12132 -2.12132 
C 1.55874 -2.683901 0.795609 -3 0 -3 
C -0.795609 -3 -1.55874 -2.683901 -2.12132 -2.12132 
C -2.683901 -1.55874 -3 -0.795609 -3 0 
C -3 0.795609 -2.683901 1.55874 -2.12132 2.12132 
C -1.55874 2.683901 -0.795609 3 0 3 
z
" id="m286c0b3f78" style="stroke:#ffffff;stroke-width:0.75;"/>
    </defs>
    <g clip-path="url(#p85fd4671cb)">
     <use style="fill:#ff7f0e;stroke:#ffffff;stroke-width:0.75;" x="83.440988" xlink:href="#m286c0b3f78" y="200.815059"/>
     <use style="fill:#ff7f0e;stroke:#ffffff;stroke-width:0.75;" x="100.350079" xlink:href="#m286c0b3f78" y="201.912072"/>
     <use style="fill:#ff7f0e;stroke:#ffffff;stroke-width:0.75;" x="117.25917" xlink:href="#m286c0b3f78" y="197.730831"/>
     <use style="fill:#ff7f0e;stroke:#ffffff;stroke-width:0.75;" x="134.168261" xlink:href="#m286c0b3f78" y="186.912902"/>
     <use style="fill:#ff7f0e;stroke:#ffffff;stroke-width:0.75;" x="151.077352" xlink:href="#m286c0b3f78" y="176.698972"/>
     <use style="fill:#ff7f0e;stroke:#ffffff;stroke-width:0.75;" x="167.986443" xlink:href="#m286c0b3f78" y="176.538928"/>
     <use style="fill:#ff7f0e;stroke:#ffffff;stroke-width:0.75;" x="184.895534" xlink:href="#m286c0b3f78" y="187.983395"/>
     <use style="fill:#ff7f0e;stroke:#ffffff;stroke-width:0.75;" x="201.804624" xlink:href="#m286c0b3f78" y="204.154579"/>
     <use style="fill:#ff7f0e;stroke:#ffffff;stroke-width:0.75;" x="218.713715" xlink:href="#m286c0b3f78" y="214.992744"/>
     <use style="fill:#ff7f0e;stroke:#ffffff;stroke-width:0.75;" x="235.622806" xlink:href="#m286c0b3f78" y="215.509093"/>
     <use style="fill:#ff7f0e;stroke:#ffffff;stroke-width:0.75;" x="252.531897" xlink:href="#m286c0b3f78" y="208.775429"/>
     <use style="fill:#ff7f0e;stroke:#ffffff;stroke-width:0.75;" x="269.440988" xlink:href="#m286c0b3f78" y="201.606322"/>
     <use style="fill:#ff7f0e;stroke:#ffffff;stroke-width:0.75;" x="286.350079" xlink:href="#m286c0b3f78" y="196.937911"/>
     <use style="fill:#ff7f0e;stroke:#ffffff;stroke-width:0.75;" x="303.25917" xlink:href="#m286c0b3f78" y="195.188357"/>
     <use style="fill:#ff7f0e;stroke:#ffffff;stroke-width:0.75;" x="320.168261" xlink:href="#m286c0b3f78" y="194.977086"/>
     <use style="fill:#ff7f0e;stroke:#ffffff;stroke-width:0.75;" x="337.077352" xlink:href="#m286c0b3f78" y="194.858997"/>
     <use style="fill:#ff7f0e;stroke:#ffffff;stroke-width:0.75;" x="353.986443" xlink:href="#m286c0b3f78" y="194.959986"/>
     <use style="fill:#ff7f0e;stroke:#ffffff;stroke-width:0.75;" x="370.895534" xlink:href="#m286c0b3f78" y="194.684376"/>
     <use style="fill:#ff7f0e;stroke:#ffffff;stroke-width:0.75;" x="387.804624" xlink:href="#m286c0b3f78" y="193.984287"/>
    </g>
   </g>
   <g id="line2d_19"/>
   <g id="line2d_20"/>
   <g id="line2d_21"/>
   <g id="line2d_22"/>
   <g id="line2d_23"/>
   <g id="line2d_24"/>
   <g id="patch_3">
    <path d="M 68.222806 279 
L 68.222806 7.2 
" style="fill:none;stroke:#262626;stroke-linecap:square;stroke-linejoin:miter;stroke-width:1.25;"/>
   </g>
   <g id="patch_4">
    <path d="M 68.222806 279 
L 403.022806 279 
" style="fill:none;stroke:#262626;stroke-linecap:square;stroke-linejoin:miter;stroke-width:1.25;"/>
   </g>
   <g id="legend_1">
    <g id="patch_5">
     <path d="M 297.5238 138.237775 
L 393.474806 138.237775 
Q 396.202806 138.237775 396.202806 135.509775 
L 396.202806 16.748 
Q 396.202806 14.02 393.474806 14.02 
L 297.5238 14.02 
Q 294.7958 14.02 294.7958 16.748 
L 294.7958 135.509775 
Q 294.7958 138.237775 297.5238 138.237775 
z
" style="fill:#ffffff;opacity:0.8;stroke:#cccccc;stroke-linejoin:miter;"/>
    </g>
    <g id="line2d_25">
     <path d="M 300.2518 25.066269 
L 327.5318 25.066269 
" style="fill:none;"/>
    </g>
    <g id="line2d_26"/>
    <g id="text_17">
     <!-- event -->
     <defs>
      <path d="M 2.984375 54.6875 
L 12.5 54.6875 
L 29.59375 8.796875 
L 46.6875 54.6875 
L 56.203125 54.6875 
L 35.6875 0 
L 23.484375 0 
z
" id="DejaVuSans-118"/>
     </defs>
     <g style="fill:#262626;" transform="translate(338.4438 29.840269)scale(0.1364 -0.1364)">
      <use xlink:href="#DejaVuSans-101"/>
      <use x="61.523438" xlink:href="#DejaVuSans-118"/>
      <use x="120.703125" xlink:href="#DejaVuSans-101"/>
      <use x="182.226562" xlink:href="#DejaVuSans-110"/>
      <use x="245.605469" xlink:href="#DejaVuSans-116"/>
     </g>
    </g>
    <g id="line2d_27">
     <path d="M 300.2518 45.087231 
L 327.5318 45.087231 
" style="fill:none;stroke:#1f77b4;stroke-linecap:round;stroke-width:2;"/>
    </g>
    <g id="line2d_28"/>
    <g id="text_18">
     <!-- stim -->
     <g style="fill:#262626;" transform="translate(338.4438 49.861231)scale(0.1364 -0.1364)">
      <use xlink:href="#DejaVuSans-115"/>
      <use x="52.099609" xlink:href="#DejaVuSans-116"/>
      <use x="91.308594" xlink:href="#DejaVuSans-105"/>
      <use x="119.091797" xlink:href="#DejaVuSans-109"/>
     </g>
    </g>
    <g id="line2d_29">
     <path d="M 300.2518 65.108194 
L 327.5318 65.108194 
" style="fill:none;stroke:#ff7f0e;stroke-linecap:round;stroke-width:2;"/>
    </g>
    <g id="line2d_30"/>
    <g id="text_19">
     <!-- cue -->
     <defs>
      <path d="M 48.78125 52.59375 
L 48.78125 44.1875 
Q 44.96875 46.296875 41.140625 47.34375 
Q 37.3125 48.390625 33.40625 48.390625 
Q 24.65625 48.390625 19.8125 42.84375 
Q 14.984375 37.3125 14.984375 27.296875 
Q 14.984375 17.28125 19.8125 11.734375 
Q 24.65625 6.203125 33.40625 6.203125 
Q 37.3125 6.203125 41.140625 7.25 
Q 44.96875 8.296875 48.78125 10.40625 
L 48.78125 2.09375 
Q 45.015625 0.34375 40.984375 -0.53125 
Q 36.96875 -1.421875 32.421875 -1.421875 
Q 20.0625 -1.421875 12.78125 6.34375 
Q 5.515625 14.109375 5.515625 27.296875 
Q 5.515625 40.671875 12.859375 48.328125 
Q 20.21875 56 33.015625 56 
Q 37.15625 56 41.109375 55.140625 
Q 45.0625 54.296875 48.78125 52.59375 
z
" id="DejaVuSans-99"/>
     </defs>
     <g style="fill:#262626;" transform="translate(338.4438 69.882194)scale(0.1364 -0.1364)">
      <use xlink:href="#DejaVuSans-99"/>
      <use x="54.980469" xlink:href="#DejaVuSans-117"/>
      <use x="118.359375" xlink:href="#DejaVuSans-101"/>
     </g>
    </g>
    <g id="line2d_31">
     <path d="M 300.2518 85.129156 
L 327.5318 85.129156 
" style="fill:none;"/>
    </g>
    <g id="line2d_32"/>
    <g id="text_20">
     <!-- region -->
     <defs>
      <path d="M 41.109375 46.296875 
Q 39.59375 47.171875 37.8125 47.578125 
Q 36.03125 48 33.890625 48 
Q 26.265625 48 22.1875 43.046875 
Q 18.109375 38.09375 18.109375 28.8125 
L 18.109375 0 
L 9.078125 0 
L 9.078125 54.6875 
L 18.109375 54.6875 
L 18.109375 46.1875 
Q 20.953125 51.171875 25.484375 53.578125 
Q 30.03125 56 36.53125 56 
Q 37.453125 56 38.578125 55.875 
Q 39.703125 55.765625 41.0625 55.515625 
z
" id="DejaVuSans-114"/>
      <path d="M 30.609375 48.390625 
Q 23.390625 48.390625 19.1875 42.75 
Q 14.984375 37.109375 14.984375 27.296875 
Q 14.984375 17.484375 19.15625 11.84375 
Q 23.34375 6.203125 30.609375 6.203125 
Q 37.796875 6.203125 41.984375 11.859375 
Q 46.1875 17.53125 46.1875 27.296875 
Q 46.1875 37.015625 41.984375 42.703125 
Q 37.796875 48.390625 30.609375 48.390625 
z
M 30.609375 56 
Q 42.328125 56 49.015625 48.375 
Q 55.71875 40.765625 55.71875 27.296875 
Q 55.71875 13.875 49.015625 6.21875 
Q 42.328125 -1.421875 30.609375 -1.421875 
Q 18.84375 -1.421875 12.171875 6.21875 
Q 5.515625 13.875 5.515625 27.296875 
Q 5.515625 40.765625 12.171875 48.375 
Q 18.84375 56 30.609375 56 
z
" id="DejaVuSans-111"/>
     </defs>
     <g style="fill:#262626;" transform="translate(338.4438 89.903156)scale(0.1364 -0.1364)">
      <use xlink:href="#DejaVuSans-114"/>
      <use x="41.082031" xlink:href="#DejaVuSans-101"/>
      <use x="102.605469" xlink:href="#DejaVuSans-103"/>
      <use x="166.082031" xlink:href="#DejaVuSans-105"/>
      <use x="193.865234" xlink:href="#DejaVuSans-111"/>
      <use x="255.046875" xlink:href="#DejaVuSans-110"/>
     </g>
    </g>
    <g id="line2d_33">
     <path d="M 300.2518 105.150119 
L 327.5318 105.150119 
" style="fill:none;stroke:#333333;stroke-linecap:round;stroke-width:2;"/>
    </g>
    <g id="line2d_34">
     <defs>
      <path d="M -3 3 
L 3 3 
L 3 -3 
L -3 -3 
z
" id="me6fce588bd" style="stroke:#333333;stroke-linejoin:miter;"/>
     </defs>
     <g>
      <use style="fill:#333333;stroke:#333333;stroke-linejoin:miter;" x="313.8918" xlink:href="#me6fce588bd" y="105.150119"/>
     </g>
    </g>
    <g id="text_21">
     <!-- parietal -->
     <defs>
      <path d="M 18.109375 8.203125 
L 18.109375 -20.796875 
L 9.078125 -20.796875 
L 9.078125 54.6875 
L 18.109375 54.6875 
L 18.109375 46.390625 
Q 20.953125 51.265625 25.265625 53.625 
Q 29.59375 56 35.59375 56 
Q 45.5625 56 51.78125 48.09375 
Q 58.015625 40.1875 58.015625 27.296875 
Q 58.015625 14.40625 51.78125 6.484375 
Q 45.5625 -1.421875 35.59375 -1.421875 
Q 29.59375 -1.421875 25.265625 0.953125 
Q 20.953125 3.328125 18.109375 8.203125 
z
M 48.6875 27.296875 
Q 48.6875 37.203125 44.609375 42.84375 
Q 40.53125 48.484375 33.40625 48.484375 
Q 26.265625 48.484375 22.1875 42.84375 
Q 18.109375 37.203125 18.109375 27.296875 
Q 18.109375 17.390625 22.1875 11.75 
Q 26.265625 6.109375 33.40625 6.109375 
Q 40.53125 6.109375 44.609375 11.75 
Q 48.6875 17.390625 48.6875 27.296875 
z
" id="DejaVuSans-112"/>
     </defs>
     <g style="fill:#262626;" transform="translate(338.4438 109.924119)scale(0.1364 -0.1364)">
      <use xlink:href="#DejaVuSans-112"/>
      <use x="63.476562" xlink:href="#DejaVuSans-97"/>
      <use x="124.755859" xlink:href="#DejaVuSans-114"/>
      <use x="165.869141" xlink:href="#DejaVuSans-105"/>
      <use x="193.652344" xlink:href="#DejaVuSans-101"/>
      <use x="255.175781" xlink:href="#DejaVuSans-116"/>
      <use x="294.384766" xlink:href="#DejaVuSans-97"/>
      <use x="355.664062" xlink:href="#DejaVuSans-108"/>
     </g>
    </g>
    <g id="line2d_35">
     <path d="M 300.2518 125.171081 
L 327.5318 125.171081 
" style="fill:none;stroke:#333333;stroke-dasharray:8,3;stroke-dashoffset:0;stroke-width:2;"/>
    </g>
    <g id="line2d_36">
     <defs>
      <path d="M 0 3 
C 0.795609 3 1.55874 2.683901 2.12132 2.12132 
C 2.683901 1.55874 3 0.795609 3 0 
C 3 -0.795609 2.683901 -1.55874 2.12132 -2.12132 
C 1.55874 -2.683901 0.795609 -3 0 -3 
C -0.795609 -3 -1.55874 -2.683901 -2.12132 -2.12132 
C -2.683901 -1.55874 -3 -0.795609 -3 0 
C -3 0.795609 -2.683901 1.55874 -2.12132 2.12132 
C -1.55874 2.683901 -0.795609 3 0 3 
z
" id="mb91c71c667" style="stroke:#333333;"/>
     </defs>
     <g>
      <use style="fill:#333333;stroke:#333333;" x="313.8918" xlink:href="#mb91c71c667" y="125.171081"/>
     </g>
    </g>
    <g id="text_22">
     <!-- frontal -->
     <defs>
      <path d="M 37.109375 75.984375 
L 37.109375 68.5 
L 28.515625 68.5 
Q 23.6875 68.5 21.796875 66.546875 
Q 19.921875 64.59375 19.921875 59.515625 
L 19.921875 54.6875 
L 34.71875 54.6875 
L 34.71875 47.703125 
L 19.921875 47.703125 
L 19.921875 0 
L 10.890625 0 
L 10.890625 47.703125 
L 2.296875 47.703125 
L 2.296875 54.6875 
L 10.890625 54.6875 
L 10.890625 58.5 
Q 10.890625 67.625 15.140625 71.796875 
Q 19.390625 75.984375 28.609375 75.984375 
z
" id="DejaVuSans-102"/>
     </defs>
     <g style="fill:#262626;" transform="translate(338.4438 129.945081)scale(0.1364 -0.1364)">
      <use xlink:href="#DejaVuSans-102"/>
      <use x="35.205078" xlink:href="#DejaVuSans-114"/>
      <use x="76.287109" xlink:href="#DejaVuSans-111"/>
      <use x="137.46875" xlink:href="#DejaVuSans-110"/>
      <use x="200.847656" xlink:href="#DejaVuSans-116"/>
      <use x="240.056641" xlink:href="#DejaVuSans-97"/>
      <use x="301.335938" xlink:href="#DejaVuSans-108"/>
     </g>
    </g>
   </g>
  </g>
 </g>
 <defs>
  <clipPath id="p85fd4671cb">
   <rect height="271.8" width="334.8" x="68.222806" y="7.2"/>
  </clipPath>
 </defs>
</svg>
