<?xml version="1.0" encoding="utf-8" standalone="no"?>
<!DOCTYPE svg PUBLIC "-//W3C//DTD SVG 1.1//EN"
  "http://www.w3.org/Graphics/SVG/1.1/DTD/svg11.dtd">
<!-- Created with matplotlib (https://matplotlib.org/) -->
<svg height="360pt" version="1.1" viewBox="0 0 432 360" width="432pt" xmlns="http://www.w3.org/2000/svg" xmlns:xlink="http://www.w3.org/1999/xlink">
 <defs>
  <style type="text/css">
*{stroke-linecap:butt;stroke-linejoin:round;white-space:pre;}
  </style>
 </defs>
 <g id="figure_1">
  <g id="patch_1">
   <path d="M 0 360 
L 432 360 
L 432 0 
L 0 0 
z
" style="fill:#ffffff;"/>
  </g>
  <g id="axes_1">
   <g id="patch_2">
    <path d="M 79.925 133.1 
L 214.9125 133.1 
L 214.9125 27.8 
L 79.925 27.8 
z
" style="fill:#ffffff;"/>
   </g>
   <g id="matplotlib.axis_1">
    <g id="xtick_1">
     <g id="line2d_1">
      <defs>
       <path d="M 0 0 
L 0 6 
" id="mc76ca63b5c" style="stroke:#262626;stroke-width:1.25;"/>
      </defs>
      <g>
       <use style="fill:#262626;stroke:#262626;stroke-width:1.25;" x="86.060795" xlink:href="#mc76ca63b5c" y="133.1"/>
      </g>
     </g>
     <g id="text_1">
      <!-- 0 -->
      <defs>
       <path d="M 31.78125 66.40625 
Q 24.171875 66.40625 20.328125 58.90625 
Q 16.5 51.421875 16.5 36.375 
Q 16.5 21.390625 20.328125 13.890625 
Q 24.171875 6.390625 31.78125 6.390625 
Q 39.453125 6.390625 43.28125 13.890625 
Q 47.125 21.390625 47.125 36.375 
Q 47.125 51.421875 43.28125 58.90625 
Q 39.453125 66.40625 31.78125 66.40625 
z
M 31.78125 74.21875 
Q 44.046875 74.21875 50.515625 64.515625 
Q 56.984375 54.828125 56.984375 36.375 
Q 56.984375 17.96875 50.515625 8.265625 
Q 44.046875 -1.421875 31.78125 -1.421875 
Q 19.53125 -1.421875 13.0625 8.265625 
Q 6.59375 17.96875 6.59375 36.375 
Q 6.59375 54.828125 13.0625 64.515625 
Q 19.53125 74.21875 31.78125 74.21875 
z
" id="DejaVuSans-48"/>
      </defs>
      <g style="fill:#262626;" transform="translate(81.72157 152.964269)scale(0.1364 -0.1364)">
       <use xlink:href="#DejaVuSans-48"/>
      </g>
     </g>
    </g>
    <g id="xtick_2">
     <g id="line2d_2">
      <g>
       <use style="fill:#262626;stroke:#262626;stroke-width:1.25;" x="154.236301" xlink:href="#mc76ca63b5c" y="133.1"/>
      </g>
     </g>
     <g id="text_2">
      <!-- 10 -->
      <defs>
       <path d="M 12.40625 8.296875 
L 28.515625 8.296875 
L 28.515625 63.921875 
L 10.984375 60.40625 
L 10.984375 69.390625 
L 28.421875 72.90625 
L 38.28125 72.90625 
L 38.28125 8.296875 
L 54.390625 8.296875 
L 54.390625 0 
L 12.40625 0 
z
" id="DejaVuSans-49"/>
      </defs>
      <g style="fill:#262626;" transform="translate(145.557851 152.964269)scale(0.1364 -0.1364)">
       <use xlink:href="#DejaVuSans-49"/>
       <use x="63.623047" xlink:href="#DejaVuSans-48"/>
      </g>
     </g>
    </g>
    <g id="text_3">
     <!-- time -->
     <defs>
      <path d="M 18.3125 70.21875 
L 18.3125 54.6875 
L 36.8125 54.6875 
L 36.8125 47.703125 
L 18.3125 47.703125 
L 18.3125 18.015625 
Q 18.3125 11.328125 20.140625 9.421875 
Q 21.96875 7.515625 27.59375 7.515625 
L 36.8125 7.515625 
L 36.8125 0 
L 27.59375 0 
Q 17.1875 0 13.234375 3.875 
Q 9.28125 7.765625 9.28125 18.015625 
L 9.28125 47.703125 
L 2.6875 47.703125 
L 2.6875 54.6875 
L 9.28125 54.6875 
L 9.28125 70.21875 
z
" id="DejaVuSans-116"/>
      <path d="M 9.421875 54.6875 
L 18.40625 54.6875 
L 18.40625 0 
L 9.421875 0 
z
M 9.421875 75.984375 
L 18.40625 75.984375 
L 18.40625 64.59375 
L 9.421875 64.59375 
z
" id="DejaVuSans-105"/>
      <path d="M 52 44.1875 
Q 55.375 50.25 60.0625 53.125 
Q 64.75 56 71.09375 56 
Q 79.640625 56 84.28125 50.015625 
Q 88.921875 44.046875 88.921875 33.015625 
L 88.921875 0 
L 79.890625 0 
L 79.890625 32.71875 
Q 79.890625 40.578125 77.09375 44.375 
Q 74.3125 48.1875 68.609375 48.1875 
Q 61.625 48.1875 57.5625 43.546875 
Q 53.515625 38.921875 53.515625 30.90625 
L 53.515625 0 
L 44.484375 0 
L 44.484375 32.71875 
Q 44.484375 40.625 41.703125 44.40625 
Q 38.921875 48.1875 33.109375 48.1875 
Q 26.21875 48.1875 22.15625 43.53125 
Q 18.109375 38.875 18.109375 30.90625 
L 18.109375 0 
L 9.078125 0 
L 9.078125 54.6875 
L 18.109375 54.6875 
L 18.109375 46.1875 
Q 21.1875 51.21875 25.484375 53.609375 
Q 29.78125 56 35.6875 56 
Q 41.65625 56 45.828125 52.96875 
Q 50 49.953125 52 44.1875 
z
" id="DejaVuSans-109"/>
      <path d="M 56.203125 29.59375 
L 56.203125 25.203125 
L 14.890625 25.203125 
Q 15.484375 15.921875 20.484375 11.0625 
Q 25.484375 6.203125 34.421875 6.203125 
Q 39.59375 6.203125 44.453125 7.46875 
Q 49.3125 8.734375 54.109375 11.28125 
L 54.109375 2.78125 
Q 49.265625 0.734375 44.1875 -0.34375 
Q 39.109375 -1.421875 33.890625 -1.421875 
Q 20.796875 -1.421875 13.15625 6.1875 
Q 5.515625 13.8125 5.515625 26.8125 
Q 5.515625 40.234375 12.765625 48.109375 
Q 20.015625 56 32.328125 56 
Q 43.359375 56 49.78125 48.890625 
Q 56.203125 41.796875 56.203125 29.59375 
z
M 47.21875 32.234375 
Q 47.125 39.59375 43.09375 43.984375 
Q 39.0625 48.390625 32.421875 48.390625 
Q 24.90625 48.390625 20.390625 44.140625 
Q 15.875 39.890625 15.1875 32.171875 
z
" id="DejaVuSans-101"/>
     </defs>
     <g style="fill:#262626;" transform="translate(130.610163 171.107438)scale(0.1488 -0.1488)">
      <use xlink:href="#DejaVuSans-116"/>
      <use x="39.208984" xlink:href="#DejaVuSans-105"/>
      <use x="66.992188" xlink:href="#DejaVuSans-109"/>
      <use x="164.404297" xlink:href="#DejaVuSans-101"/>
     </g>
    </g>
   </g>
   <g id="matplotlib.axis_2">
    <g id="ytick_1">
     <g id="line2d_3">
      <defs>
       <path d="M 0 0 
L -6 0 
" id="mc6f0439bf0" style="stroke:#262626;stroke-width:1.25;"/>
      </defs>
      <g>
       <use style="fill:#262626;stroke:#262626;stroke-width:1.25;" x="79.925" xlink:href="#mc6f0439bf0" y="98.505176"/>
      </g>
     </g>
     <g id="text_4">
      <!-- 0.0 -->
      <defs>
       <path d="M 10.6875 12.40625 
L 21 12.40625 
L 21 0 
L 10.6875 0 
z
" id="DejaVuSans-46"/>
      </defs>
      <g style="fill:#262626;" transform="translate(48.733137 103.687311)scale(0.1364 -0.1364)">
       <use xlink:href="#DejaVuSans-48"/>
       <use x="63.623047" xlink:href="#DejaVuSans-46"/>
       <use x="95.410156" xlink:href="#DejaVuSans-48"/>
      </g>
     </g>
    </g>
    <g id="ytick_2">
     <g id="line2d_4">
      <g>
       <use style="fill:#262626;stroke:#262626;stroke-width:1.25;" x="79.925" xlink:href="#mc6f0439bf0" y="40.168366"/>
      </g>
     </g>
     <g id="text_5">
      <!-- 0.5 -->
      <defs>
       <path d="M 10.796875 72.90625 
L 49.515625 72.90625 
L 49.515625 64.59375 
L 19.828125 64.59375 
L 19.828125 46.734375 
Q 21.96875 47.46875 24.109375 47.828125 
Q 26.265625 48.1875 28.421875 48.1875 
Q 40.625 48.1875 47.75 41.5 
Q 54.890625 34.8125 54.890625 23.390625 
Q 54.890625 11.625 47.5625 5.09375 
Q 40.234375 -1.421875 26.90625 -1.421875 
Q 22.3125 -1.421875 17.546875 -0.640625 
Q 12.796875 0.140625 7.71875 1.703125 
L 7.71875 11.625 
Q 12.109375 9.234375 16.796875 8.0625 
Q 21.484375 6.890625 26.703125 6.890625 
Q 35.15625 6.890625 40.078125 11.328125 
Q 45.015625 15.765625 45.015625 23.390625 
Q 45.015625 31 40.078125 35.4375 
Q 35.15625 39.890625 26.703125 39.890625 
Q 22.75 39.890625 18.8125 39.015625 
Q 14.890625 38.140625 10.796875 36.28125 
z
" id="DejaVuSans-53"/>
      </defs>
      <g style="fill:#262626;" transform="translate(48.733137 45.350501)scale(0.1364 -0.1364)">
       <use xlink:href="#DejaVuSans-48"/>
       <use x="63.623047" xlink:href="#DejaVuSans-46"/>
       <use x="95.410156" xlink:href="#DejaVuSans-53"/>
      </g>
     </g>
    </g>
    <g id="text_6">
     <!-- signal -->
     <defs>
      <path d="M 44.28125 53.078125 
L 44.28125 44.578125 
Q 40.484375 46.53125 36.375 47.5 
Q 32.28125 48.484375 27.875 48.484375 
Q 21.1875 48.484375 17.84375 46.4375 
Q 14.5 44.390625 14.5 40.28125 
Q 14.5 37.15625 16.890625 35.375 
Q 19.28125 33.59375 26.515625 31.984375 
L 29.59375 31.296875 
Q 39.15625 29.25 43.1875 25.515625 
Q 47.21875 21.78125 47.21875 15.09375 
Q 47.21875 7.46875 41.1875 3.015625 
Q 35.15625 -1.421875 24.609375 -1.421875 
Q 20.21875 -1.421875 15.453125 -0.5625 
Q 10.6875 0.296875 5.421875 2 
L 5.421875 11.28125 
Q 10.40625 8.6875 15.234375 7.390625 
Q 20.0625 6.109375 24.8125 6.109375 
Q 31.15625 6.109375 34.5625 8.28125 
Q 37.984375 10.453125 37.984375 14.40625 
Q 37.984375 18.0625 35.515625 20.015625 
Q 33.0625 21.96875 24.703125 23.78125 
L 21.578125 24.515625 
Q 13.234375 26.265625 9.515625 29.90625 
Q 5.8125 33.546875 5.8125 39.890625 
Q 5.8125 47.609375 11.28125 51.796875 
Q 16.75 56 26.8125 56 
Q 31.78125 56 36.171875 55.265625 
Q 40.578125 54.546875 44.28125 53.078125 
z
" id="DejaVuSans-115"/>
      <path d="M 45.40625 27.984375 
Q 45.40625 37.75 41.375 43.109375 
Q 37.359375 48.484375 30.078125 48.484375 
Q 22.859375 48.484375 18.828125 43.109375 
Q 14.796875 37.75 14.796875 27.984375 
Q 14.796875 18.265625 18.828125 12.890625 
Q 22.859375 7.515625 30.078125 7.515625 
Q 37.359375 7.515625 41.375 12.890625 
Q 45.40625 18.265625 45.40625 27.984375 
z
M 54.390625 6.78125 
Q 54.390625 -7.171875 48.1875 -13.984375 
Q 42 -20.796875 29.203125 -20.796875 
Q 24.46875 -20.796875 20.265625 -20.09375 
Q 16.0625 -19.390625 12.109375 -17.921875 
L 12.109375 -9.1875 
Q 16.0625 -11.328125 19.921875 -12.34375 
Q 23.78125 -13.375 27.78125 -13.375 
Q 36.625 -13.375 41.015625 -8.765625 
Q 45.40625 -4.15625 45.40625 5.171875 
L 45.40625 9.625 
Q 42.625 4.78125 38.28125 2.390625 
Q 33.9375 0 27.875 0 
Q 17.828125 0 11.671875 7.65625 
Q 5.515625 15.328125 5.515625 27.984375 
Q 5.515625 40.671875 11.671875 48.328125 
Q 17.828125 56 27.875 56 
Q 33.9375 56 38.28125 53.609375 
Q 42.625 51.21875 45.40625 46.390625 
L 45.40625 54.6875 
L 54.390625 54.6875 
z
" id="DejaVuSans-103"/>
      <path d="M 54.890625 33.015625 
L 54.890625 0 
L 45.90625 0 
L 45.90625 32.71875 
Q 45.90625 40.484375 42.875 44.328125 
Q 39.84375 48.1875 33.796875 48.1875 
Q 26.515625 48.1875 22.3125 43.546875 
Q 18.109375 38.921875 18.109375 30.90625 
L 18.109375 0 
L 9.078125 0 
L 9.078125 54.6875 
L 18.109375 54.6875 
L 18.109375 46.1875 
Q 21.34375 51.125 25.703125 53.5625 
Q 30.078125 56 35.796875 56 
Q 45.21875 56 50.046875 50.171875 
Q 54.890625 44.34375 54.890625 33.015625 
z
" id="DejaVuSans-110"/>
      <path d="M 34.28125 27.484375 
Q 23.390625 27.484375 19.1875 25 
Q 14.984375 22.515625 14.984375 16.5 
Q 14.984375 11.71875 18.140625 8.90625 
Q 21.296875 6.109375 26.703125 6.109375 
Q 34.1875 6.109375 38.703125 11.40625 
Q 43.21875 16.703125 43.21875 25.484375 
L 43.21875 27.484375 
z
M 52.203125 31.203125 
L 52.203125 0 
L 43.21875 0 
L 43.21875 8.296875 
Q 40.140625 3.328125 35.546875 0.953125 
Q 30.953125 -1.421875 24.3125 -1.421875 
Q 15.921875 -1.421875 10.953125 3.296875 
Q 6 8.015625 6 15.921875 
Q 6 25.140625 12.171875 29.828125 
Q 18.359375 34.515625 30.609375 34.515625 
L 43.21875 34.515625 
L 43.21875 35.40625 
Q 43.21875 41.609375 39.140625 45 
Q 35.0625 48.390625 27.6875 48.390625 
Q 23 48.390625 18.546875 47.265625 
Q 14.109375 46.140625 10.015625 43.890625 
L 10.015625 52.203125 
Q 14.9375 54.109375 19.578125 55.046875 
Q 24.21875 56 28.609375 56 
Q 40.484375 56 46.34375 49.84375 
Q 52.203125 43.703125 52.203125 31.203125 
z
" id="DejaVuSans-97"/>
      <path d="M 9.421875 75.984375 
L 18.40625 75.984375 
L 18.40625 0 
L 9.421875 0 
z
" id="DejaVuSans-108"/>
     </defs>
     <g style="fill:#262626;" transform="translate(41.638562 102.457288)rotate(-90)scale(0.1488 -0.1488)">
      <use xlink:href="#DejaVuSans-115"/>
      <use x="52.099609" xlink:href="#DejaVuSans-105"/>
      <use x="79.882812" xlink:href="#DejaVuSans-103"/>
      <use x="143.359375" xlink:href="#DejaVuSans-110"/>
      <use x="206.738281" xlink:href="#DejaVuSans-97"/>
      <use x="268.017578" xlink:href="#DejaVuSans-108"/>
     </g>
    </g>
   </g>
   <g id="line2d_5">
    <path clip-path="url(#p89eaf17a5e)" d="M 86.060795 103.459909 
L 92.878346 106.002209 
L 99.695896 105.845803 
L 106.513447 97.523074 
L 113.330997 82.611959 
L 120.148548 69.030239 
L 126.966098 64.449976 
L 133.783649 70.416344 
L 140.601199 83.221977 
L 147.41875 96.959795 
L 154.236301 107.197665 
L 161.053851 111.639757 
L 167.871402 110.287366 
L 174.688952 106.513359 
L 181.506503 102.438639 
L 188.324053 99.785257 
L 195.141604 98.83843 
L 201.959154 99.46944 
L 208.776705 100.552983 
" style="fill:none;stroke:#1f77b4;stroke-linecap:round;stroke-width:0.5;"/>
   </g>
   <g id="line2d_6">
    <path clip-path="url(#p89eaf17a5e)" d="M 86.060795 104.482099 
L 92.878346 105.961395 
L 99.695896 100.546853 
L 106.513447 87.688163 
L 113.330997 74.223974 
L 120.148548 68.163377 
L 126.966098 72.6628 
L 133.783649 84.60038 
L 140.601199 97.711197 
L 147.41875 107.237357 
L 154.236301 111.894865 
L 161.053851 112.587091 
L 167.871402 111.397188 
L 174.688952 109.585752 
L 181.506503 107.942081 
L 188.324053 106.737846 
L 195.141604 105.98837 
L 201.959154 105.118478 
L 208.776705 103.237091 
" style="fill:none;stroke:#ff7f0e;stroke-linecap:round;stroke-width:0.5;"/>
   </g>
   <g id="line2d_7">
    <path clip-path="url(#p89eaf17a5e)" d="M 86.060795 98.113415 
L 92.878346 97.265554 
L 99.695896 89.488964 
L 106.513447 76.852713 
L 113.330997 68.020307 
L 120.148548 69.554016 
L 126.966098 80.094088 
L 133.783649 92.651348 
L 140.601199 101.722741 
L 147.41875 105.778029 
L 154.236301 106.318811 
L 161.053851 105.112222 
L 167.871402 104.606659 
L 174.688952 105.074641 
L 181.506503 106.473674 
L 188.324053 107.9205 
L 195.141604 108.999194 
L 201.959154 108.832163 
L 208.776705 107.959592 
" style="fill:none;stroke:#2ca02c;stroke-linecap:round;stroke-width:0.5;"/>
   </g>
   <g id="line2d_8">
    <path clip-path="url(#p89eaf17a5e)" d="M 86.060795 103.712778 
L 92.878346 105.430239 
L 99.695896 105.399308 
L 106.513447 99.688012 
L 113.330997 88.334134 
L 120.148548 75.845409 
L 126.966098 67.846721 
L 133.783649 68.865139 
L 140.601199 78.708778 
L 147.41875 93.206032 
L 154.236301 106.996738 
L 161.053851 116.088981 
L 167.871402 119.332549 
L 174.688952 116.920262 
L 181.506503 111.860669 
L 188.324053 106.918767 
L 195.141604 104.290675 
L 201.959154 103.400858 
L 208.776705 103.887843 
" style="fill:none;stroke:#d62728;stroke-linecap:round;stroke-width:0.5;"/>
   </g>
   <g id="line2d_9">
    <path clip-path="url(#p89eaf17a5e)" d="M 86.060795 92.36598 
L 92.878346 95.025712 
L 99.695896 97.134088 
L 106.513447 93.15705 
L 113.330997 81.705849 
L 120.148548 68.885092 
L 126.966098 63.857751 
L 133.783649 69.845263 
L 140.601199 82.603643 
L 147.41875 94.887542 
L 154.236301 103.370736 
L 161.053851 107.615086 
L 167.871402 108.682898 
L 174.688952 107.126464 
L 181.506503 104.605774 
L 188.324053 101.866462 
L 195.141604 100.088008 
L 201.959154 100.47072 
L 208.776705 102.935297 
" style="fill:none;stroke:#9467bd;stroke-linecap:round;stroke-width:0.5;"/>
   </g>
   <g id="line2d_10">
    <path clip-path="url(#p89eaf17a5e)" d="M 86.060795 100.648386 
L 92.878346 99.994511 
L 99.695896 93.765873 
L 106.513447 79.318668 
L 113.330997 62.657156 
L 120.148548 53.994762 
L 126.966098 58.145662 
L 133.783649 70.709925 
L 140.601199 84.319935 
L 147.41875 95.115462 
L 154.236301 102.283026 
L 161.053851 106.933822 
L 167.871402 109.914572 
L 174.688952 112.434076 
L 181.506503 113.703852 
L 188.324053 114.236094 
L 195.141604 113.864172 
L 201.959154 112.689626 
L 208.776705 110.582424 
" style="fill:none;stroke:#8c564b;stroke-linecap:round;stroke-width:0.5;"/>
   </g>
   <g id="line2d_11">
    <path clip-path="url(#p89eaf17a5e)" d="M 86.060795 102.511717 
L 92.878346 104.284199 
L 99.695896 104.334659 
L 106.513447 99.219546 
L 113.330997 87.633369 
L 120.148548 73.670632 
L 126.966098 63.735383 
L 133.783649 62.008381 
L 140.601199 67.795806 
L 147.41875 78.644189 
L 154.236301 90.898347 
L 161.053851 101.77491 
L 167.871402 109.298752 
L 174.688952 112.966836 
L 181.506503 113.491615 
L 188.324053 111.640012 
L 195.141604 109.358659 
L 201.959154 107.405871 
L 208.776705 106.019914 
" style="fill:none;stroke:#e377c2;stroke-linecap:round;stroke-width:0.5;"/>
   </g>
   <g id="line2d_12">
    <path clip-path="url(#p89eaf17a5e)" d="M 86.060795 98.02899 
L 92.878346 101.291648 
L 99.695896 102.574074 
L 106.513447 97.391185 
L 113.330997 87.618447 
L 120.148548 77.780498 
L 126.966098 73.063187 
L 133.783649 75.311669 
L 140.601199 82.967098 
L 147.41875 91.633503 
L 154.236301 98.312841 
L 161.053851 102.12103 
L 167.871402 103.217069 
L 174.688952 102.008456 
L 181.506503 100.271596 
L 188.324053 99.59994 
L 195.141604 101.059997 
L 201.959154 103.616883 
L 208.776705 105.566987 
" style="fill:none;stroke:#7f7f7f;stroke-linecap:round;stroke-width:0.5;"/>
   </g>
   <g id="line2d_13">
    <path clip-path="url(#p89eaf17a5e)" d="M 86.060795 101.225907 
L 92.878346 102.860128 
L 99.695896 102.096461 
L 106.513447 95.289375 
L 113.330997 82.538686 
L 120.148548 70.599752 
L 126.966098 66.891781 
L 133.783649 73.481068 
L 140.601199 85.420556 
L 147.41875 97.453083 
L 154.236301 107.306263 
L 161.053851 114.232246 
L 167.871402 116.087124 
L 174.688952 114.04268 
L 181.506503 110.037737 
L 188.324053 106.523014 
L 195.141604 103.166379 
L 201.959154 100.225691 
L 208.776705 99.325224 
" style="fill:none;stroke:#bcbd22;stroke-linecap:round;stroke-width:0.5;"/>
   </g>
   <g id="line2d_14">
    <path clip-path="url(#p89eaf17a5e)" d="M 86.060795 104.206842 
L 92.878346 108.092756 
L 99.695896 101.784724 
L 106.513447 82.000753 
L 113.330997 58.04572 
L 120.148548 44.730734 
L 126.966098 51.154348 
L 133.783649 72.784649 
L 140.601199 96.459329 
L 147.41875 111.834202 
L 154.236301 116.315692 
L 161.053851 113.503167 
L 167.871402 109.010008 
L 174.688952 107.227681 
L 181.506503 105.971169 
L 188.324053 105.042522 
L 195.141604 104.039376 
L 201.959154 103.706708 
L 208.776705 104.200272 
" style="fill:none;stroke:#17becf;stroke-linecap:round;stroke-width:0.5;"/>
   </g>
   <g id="line2d_15">
    <path clip-path="url(#p89eaf17a5e)" d="M 86.060795 99.505773 
L 92.878346 105.675978 
L 99.695896 111.405226 
L 106.513447 108.971707 
L 113.330997 95.252485 
L 120.148548 75.265152 
L 126.966098 58.780152 
L 133.783649 52.948126 
L 140.601199 59.169447 
L 147.41875 72.636752 
L 154.236301 88.094217 
L 161.053851 101.220607 
L 167.871402 109.157589 
L 174.688952 112.103687 
L 181.506503 111.344033 
L 188.324053 109.091578 
L 195.141604 106.791617 
L 201.959154 104.748856 
L 208.776705 104.006121 
" style="fill:none;stroke:#1f77b4;stroke-linecap:round;stroke-width:0.5;"/>
   </g>
   <g id="line2d_16">
    <path clip-path="url(#p89eaf17a5e)" d="M 86.060795 102.519587 
L 92.878346 103.415574 
L 99.695896 97.479455 
L 106.513447 85.797602 
L 113.330997 75.583357 
L 120.148548 74.078975 
L 126.966098 81.769965 
L 133.783649 93.168102 
L 140.601199 102.86954 
L 147.41875 108.14398 
L 154.236301 108.736015 
L 161.053851 107.070982 
L 167.871402 105.082844 
L 174.688952 104.648712 
L 181.506503 104.674239 
L 188.324053 104.976112 
L 195.141604 106.088748 
L 201.959154 107.52316 
L 208.776705 108.611791 
" style="fill:none;stroke:#ff7f0e;stroke-linecap:round;stroke-width:0.5;"/>
   </g>
   <g id="line2d_17">
    <path clip-path="url(#p89eaf17a5e)" d="M 86.060795 106.025258 
L 92.878346 107.185902 
L 99.695896 102.60665 
L 106.513447 87.745444 
L 113.330997 64.985548 
L 120.148548 42.962058 
L 126.966098 32.586364 
L 133.783649 40.776602 
L 140.601199 64.128559 
L 147.41875 91.750735 
L 154.236301 114.027551 
L 161.053851 126.328774 
L 167.871402 128.313636 
L 174.688952 124.681057 
L 181.506503 118.259383 
L 188.324053 111.425884 
L 195.141604 105.663806 
L 201.959154 102.941175 
L 208.776705 103.949056 
" style="fill:none;stroke:#2ca02c;stroke-linecap:round;stroke-width:0.5;"/>
   </g>
   <g id="line2d_18">
    <path clip-path="url(#p89eaf17a5e)" d="M 86.060795 103.093553 
L 92.878346 102.674533 
L 99.695896 97.380264 
L 106.513447 88.424701 
L 113.330997 80.530685 
L 120.148548 78.025258 
L 126.966098 81.809955 
L 133.783649 89.831338 
L 140.601199 97.910065 
L 147.41875 102.65724 
L 154.236301 104.09559 
L 161.053851 104.510306 
L 167.871402 104.678551 
L 174.688952 104.95299 
L 181.506503 104.621062 
L 188.324053 104.698056 
L 195.141604 105.239002 
L 201.959154 106.82405 
L 208.776705 107.322199 
" style="fill:none;stroke:#d62728;stroke-linecap:round;stroke-width:0.5;"/>
   </g>
   <g id="patch_3">
    <path d="M 79.925 133.1 
L 79.925 27.8 
" style="fill:none;stroke:#262626;stroke-linecap:square;stroke-linejoin:miter;stroke-width:1.25;"/>
   </g>
   <g id="patch_4">
    <path d="M 79.925 133.1 
L 214.9125 133.1 
" style="fill:none;stroke:#262626;stroke-linecap:square;stroke-linejoin:miter;stroke-width:1.25;"/>
   </g>
   <g id="text_7">
    <!-- stim - parietal -->
    <defs>
     <path id="DejaVuSans-32"/>
     <path d="M 4.890625 31.390625 
L 31.203125 31.390625 
L 31.203125 23.390625 
L 4.890625 23.390625 
z
" id="DejaVuSans-45"/>
     <path d="M 18.109375 8.203125 
L 18.109375 -20.796875 
L 9.078125 -20.796875 
L 9.078125 54.6875 
L 18.109375 54.6875 
L 18.109375 46.390625 
Q 20.953125 51.265625 25.265625 53.625 
Q 29.59375 56 35.59375 56 
Q 45.5625 56 51.78125 48.09375 
Q 58.015625 40.1875 58.015625 27.296875 
Q 58.015625 14.40625 51.78125 6.484375 
Q 45.5625 -1.421875 35.59375 -1.421875 
Q 29.59375 -1.421875 25.265625 0.953125 
Q 20.953125 3.328125 18.109375 8.203125 
z
M 48.6875 27.296875 
Q 48.6875 37.203125 44.609375 42.84375 
Q 40.53125 48.484375 33.40625 48.484375 
Q 26.265625 48.484375 22.1875 42.84375 
Q 18.109375 37.203125 18.109375 27.296875 
Q 18.109375 17.390625 22.1875 11.75 
Q 26.265625 6.109375 33.40625 6.109375 
Q 40.53125 6.109375 44.609375 11.75 
Q 48.6875 17.390625 48.6875 27.296875 
z
" id="DejaVuSans-112"/>
     <path d="M 41.109375 46.296875 
Q 39.59375 47.171875 37.8125 47.578125 
Q 36.03125 48 33.890625 48 
Q 26.265625 48 22.1875 43.046875 
Q 18.109375 38.09375 18.109375 28.8125 
L 18.109375 0 
L 9.078125 0 
L 9.078125 54.6875 
L 18.109375 54.6875 
L 18.109375 46.1875 
Q 20.953125 51.171875 25.484375 53.578125 
Q 30.03125 56 36.53125 56 
Q 37.453125 56 38.578125 55.875 
Q 39.703125 55.765625 41.0625 55.515625 
z
" id="DejaVuSans-114"/>
    </defs>
    <g style="fill:#262626;" transform="translate(95.370137 21.8)scale(0.1488 -0.1488)">
     <use xlink:href="#DejaVuSans-115"/>
     <use x="52.099609" xlink:href="#DejaVuSans-116"/>
     <use x="91.308594" xlink:href="#DejaVuSans-105"/>
     <use x="119.091797" xlink:href="#DejaVuSans-109"/>
     <use x="216.503906" xlink:href="#DejaVuSans-32"/>
     <use x="248.291016" xlink:href="#DejaVuSans-45"/>
     <use x="284.375" xlink:href="#DejaVuSans-32"/>
     <use x="316.162109" xlink:href="#DejaVuSans-112"/>
     <use x="379.638672" xlink:href="#DejaVuSans-97"/>
     <use x="440.917969" xlink:href="#DejaVuSans-114"/>
     <use x="482.03125" xlink:href="#DejaVuSans-105"/>
     <use x="509.814453" xlink:href="#DejaVuSans-101"/>
     <use x="571.337891" xlink:href="#DejaVuSans-116"/>
     <use x="610.546875" xlink:href="#DejaVuSans-97"/>
     <use x="671.826172" xlink:href="#DejaVuSans-108"/>
    </g>
   </g>
  </g>
  <g id="axes_2">
   <g id="patch_5">
    <path d="M 286.2125 133.1 
L 421.2 133.1 
L 421.2 27.8 
L 286.2125 27.8 
z
" style="fill:#ffffff;"/>
   </g>
   <g id="matplotlib.axis_3">
    <g id="xtick_3">
     <g id="line2d_19">
      <g>
       <use style="fill:#262626;stroke:#262626;stroke-width:1.25;" x="292.348295" xlink:href="#mc76ca63b5c" y="133.1"/>
      </g>
     </g>
     <g id="text_8">
      <!-- 0 -->
      <g style="fill:#262626;" transform="translate(288.00907 152.964269)scale(0.1364 -0.1364)">
       <use xlink:href="#DejaVuSans-48"/>
      </g>
     </g>
    </g>
    <g id="xtick_4">
     <g id="line2d_20">
      <g>
       <use style="fill:#262626;stroke:#262626;stroke-width:1.25;" x="360.523801" xlink:href="#mc76ca63b5c" y="133.1"/>
      </g>
     </g>
     <g id="text_9">
      <!-- 10 -->
      <g style="fill:#262626;" transform="translate(351.845351 152.964269)scale(0.1364 -0.1364)">
       <use xlink:href="#DejaVuSans-49"/>
       <use x="63.623047" xlink:href="#DejaVuSans-48"/>
      </g>
     </g>
    </g>
    <g id="text_10">
     <!-- time -->
     <g style="fill:#262626;" transform="translate(336.897662 171.107438)scale(0.1488 -0.1488)">
      <use xlink:href="#DejaVuSans-116"/>
      <use x="39.208984" xlink:href="#DejaVuSans-105"/>
      <use x="66.992188" xlink:href="#DejaVuSans-109"/>
      <use x="164.404297" xlink:href="#DejaVuSans-101"/>
     </g>
    </g>
   </g>
   <g id="matplotlib.axis_4">
    <g id="ytick_3">
     <g id="line2d_21">
      <g>
       <use style="fill:#262626;stroke:#262626;stroke-width:1.25;" x="286.2125" xlink:href="#mc6f0439bf0" y="132.837225"/>
      </g>
     </g>
     <g id="text_11">
      <!-- −0.2 -->
      <defs>
       <path d="M 10.59375 35.5 
L 73.1875 35.5 
L 73.1875 27.203125 
L 10.59375 27.203125 
z
" id="DejaVuSans-8722"/>
       <path d="M 19.1875 8.296875 
L 53.609375 8.296875 
L 53.609375 0 
L 7.328125 0 
L 7.328125 8.296875 
Q 12.9375 14.109375 22.625 23.890625 
Q 32.328125 33.6875 34.8125 36.53125 
Q 39.546875 41.84375 41.421875 45.53125 
Q 43.3125 49.21875 43.3125 52.78125 
Q 43.3125 58.59375 39.234375 62.25 
Q 35.15625 65.921875 28.609375 65.921875 
Q 23.96875 65.921875 18.8125 64.3125 
Q 13.671875 62.703125 7.8125 59.421875 
L 7.8125 69.390625 
Q 13.765625 71.78125 18.9375 73 
Q 24.125 74.21875 28.421875 74.21875 
Q 39.75 74.21875 46.484375 68.546875 
Q 53.21875 62.890625 53.21875 53.421875 
Q 53.21875 48.921875 51.53125 44.890625 
Q 49.859375 40.875 45.40625 35.40625 
Q 44.1875 33.984375 37.640625 27.21875 
Q 31.109375 20.453125 19.1875 8.296875 
z
" id="DejaVuSans-50"/>
      </defs>
      <g style="fill:#262626;" transform="translate(243.590744 138.019359)scale(0.1364 -0.1364)">
       <use xlink:href="#DejaVuSans-8722"/>
       <use x="83.789062" xlink:href="#DejaVuSans-48"/>
       <use x="147.412109" xlink:href="#DejaVuSans-46"/>
       <use x="179.199219" xlink:href="#DejaVuSans-50"/>
      </g>
     </g>
    </g>
    <g id="ytick_4">
     <g id="line2d_22">
      <g>
       <use style="fill:#262626;stroke:#262626;stroke-width:1.25;" x="286.2125" xlink:href="#mc6f0439bf0" y="84.609"/>
      </g>
     </g>
     <g id="text_12">
      <!-- 0.0 -->
      <g style="fill:#262626;" transform="translate(255.020637 89.791134)scale(0.1364 -0.1364)">
       <use xlink:href="#DejaVuSans-48"/>
       <use x="63.623047" xlink:href="#DejaVuSans-46"/>
       <use x="95.410156" xlink:href="#DejaVuSans-48"/>
      </g>
     </g>
    </g>
    <g id="ytick_5">
     <g id="line2d_23">
      <g>
       <use style="fill:#262626;stroke:#262626;stroke-width:1.25;" x="286.2125" xlink:href="#mc6f0439bf0" y="36.380775"/>
      </g>
     </g>
     <g id="text_13">
      <!-- 0.2 -->
      <g style="fill:#262626;" transform="translate(255.020637 41.562909)scale(0.1364 -0.1364)">
       <use xlink:href="#DejaVuSans-48"/>
       <use x="63.623047" xlink:href="#DejaVuSans-46"/>
       <use x="95.410156" xlink:href="#DejaVuSans-50"/>
      </g>
     </g>
    </g>
    <g id="text_14">
     <!-- signal -->
     <g style="fill:#262626;" transform="translate(236.496169 102.457288)rotate(-90)scale(0.1488 -0.1488)">
      <use xlink:href="#DejaVuSans-115"/>
      <use x="52.099609" xlink:href="#DejaVuSans-105"/>
      <use x="79.882812" xlink:href="#DejaVuSans-103"/>
      <use x="143.359375" xlink:href="#DejaVuSans-110"/>
      <use x="206.738281" xlink:href="#DejaVuSans-97"/>
      <use x="268.017578" xlink:href="#DejaVuSans-108"/>
     </g>
    </g>
   </g>
   <g id="line2d_24">
    <path clip-path="url(#pbca766bb77)" d="M 292.348295 89.044485 
L 299.165846 90.681898 
L 305.983396 91.68157 
L 312.800947 84.428659 
L 319.618497 71.661689 
L 326.436048 65.070119 
L 333.253598 70.810419 
L 340.071149 83.80741 
L 346.888699 96.288712 
L 353.70625 102.713743 
L 360.523801 102.291302 
L 367.341351 96.833643 
L 374.158902 90.810284 
L 380.976452 86.806188 
L 387.794003 85.504552 
L 394.611553 84.94416 
L 401.429104 86.87075 
L 408.246654 88.779144 
L 415.064205 89.628474 
" style="fill:none;stroke:#1f77b4;stroke-linecap:round;stroke-width:0.5;"/>
   </g>
   <g id="line2d_25">
    <path clip-path="url(#pbca766bb77)" d="M 292.348295 83.568426 
L 299.165846 82.176889 
L 305.983396 78.483392 
L 312.800947 73.391462 
L 319.618497 72.180235 
L 326.436048 77.688328 
L 333.253598 86.802553 
L 340.071149 94.821143 
L 346.888699 98.371554 
L 353.70625 98.295358 
L 360.523801 96.609308 
L 367.341351 94.020108 
L 374.158902 89.922038 
L 380.976452 86.17805 
L 387.794003 83.447678 
L 394.611553 82.70769 
L 401.429104 80.749654 
L 408.246654 78.380975 
L 415.064205 75.648025 
" style="fill:none;stroke:#ff7f0e;stroke-linecap:round;stroke-width:0.5;"/>
   </g>
   <g id="line2d_26">
    <path clip-path="url(#pbca766bb77)" d="M 292.348295 88.177139 
L 299.165846 90.855574 
L 305.983396 86.896248 
L 312.800947 77.30972 
L 319.618497 70.575059 
L 326.436048 73.136316 
L 333.253598 81.012369 
L 340.071149 87.095326 
L 346.888699 88.810386 
L 353.70625 88.804206 
L 360.523801 88.932223 
L 367.341351 89.078888 
L 374.158902 88.908431 
L 380.976452 89.458142 
L 387.794003 89.871723 
L 394.611553 90.589572 
L 401.429104 90.091383 
L 408.246654 88.317194 
L 415.064205 87.366233 
" style="fill:none;stroke:#2ca02c;stroke-linecap:round;stroke-width:0.5;"/>
   </g>
   <g id="line2d_27">
    <path clip-path="url(#pbca766bb77)" d="M 292.348295 97.123199 
L 299.165846 98.816916 
L 305.983396 97.83474 
L 312.800947 92.363746 
L 319.618497 82.676673 
L 326.436048 74.333221 
L 333.253598 71.590138 
L 340.071149 75.712717 
L 346.888699 83.28992 
L 353.70625 91.058175 
L 360.523801 94.958106 
L 367.341351 92.915666 
L 374.158902 85.182081 
L 380.976452 77.818299 
L 387.794003 74.639721 
L 394.611553 75.581996 
L 401.429104 77.541934 
L 408.246654 76.924554 
L 415.064205 74.192917 
" style="fill:none;stroke:#d62728;stroke-linecap:round;stroke-width:0.5;"/>
   </g>
   <g id="line2d_28">
    <path clip-path="url(#pbca766bb77)" d="M 292.348295 92.187957 
L 299.165846 93.948986 
L 305.983396 90.907054 
L 312.800947 84.110247 
L 319.618497 76.383975 
L 326.436048 75.47176 
L 333.253598 83.111938 
L 340.071149 94.128586 
L 346.888699 100.563994 
L 353.70625 100.940187 
L 360.523801 98.124299 
L 367.341351 95.57127 
L 374.158902 92.083732 
L 380.976452 89.814566 
L 387.794003 87.204039 
L 394.611553 86.752024 
L 401.429104 88.704116 
L 408.246654 92.143878 
L 415.064205 95.117327 
" style="fill:none;stroke:#9467bd;stroke-linecap:round;stroke-width:0.5;"/>
   </g>
   <g id="line2d_29">
    <path clip-path="url(#pbca766bb77)" d="M 292.348295 91.600302 
L 299.165846 91.340352 
L 305.983396 86.967164 
L 312.800947 77.544059 
L 319.618497 69.854135 
L 326.436048 71.141917 
L 333.253598 80.435164 
L 340.071149 90.271461 
L 346.888699 94.216332 
L 353.70625 91.73385 
L 360.523801 87.873558 
L 367.341351 85.6076 
L 374.158902 85.584254 
L 380.976452 88.701249 
L 387.794003 92.900988 
L 394.611553 93.834278 
L 401.429104 93.144139 
L 408.246654 93.377452 
L 415.064205 96.916884 
" style="fill:none;stroke:#8c564b;stroke-linecap:round;stroke-width:0.5;"/>
   </g>
   <g id="line2d_30">
    <path clip-path="url(#pbca766bb77)" d="M 292.348295 88.337121 
L 299.165846 90.07692 
L 305.983396 89.810104 
L 312.800947 84.807432 
L 319.618497 77.085116 
L 326.436048 73.242517 
L 333.253598 76.087083 
L 340.071149 83.340048 
L 346.888699 90.251821 
L 353.70625 94.173548 
L 360.523801 95.678814 
L 367.341351 95.68671 
L 374.158902 94.764028 
L 380.976452 90.976265 
L 387.794003 86.345737 
L 394.611553 83.743203 
L 401.429104 84.404395 
L 408.246654 86.036356 
L 415.064205 88.731835 
" style="fill:none;stroke:#e377c2;stroke-linecap:round;stroke-width:0.5;"/>
   </g>
   <g id="line2d_31">
    <path clip-path="url(#pbca766bb77)" d="M 292.348295 99.930489 
L 299.165846 102.485234 
L 305.983396 103.082481 
L 312.800947 101.823148 
L 319.618497 95.785276 
L 326.436048 86.576338 
L 333.253598 78.969832 
L 340.071149 77.284448 
L 346.888699 80.172376 
L 353.70625 84.64735 
L 360.523801 88.053278 
L 367.341351 89.495908 
L 374.158902 89.462563 
L 380.976452 88.005282 
L 387.794003 86.695991 
L 394.611553 87.946048 
L 401.429104 90.538493 
L 408.246654 90.983642 
L 415.064205 87.83562 
" style="fill:none;stroke:#7f7f7f;stroke-linecap:round;stroke-width:0.5;"/>
   </g>
   <g id="line2d_32">
    <path clip-path="url(#pbca766bb77)" d="M 292.348295 79.436629 
L 299.165846 85.641928 
L 305.983396 90.137027 
L 312.800947 86.850701 
L 319.618497 79.238562 
L 326.436048 75.41059 
L 333.253598 79.62958 
L 340.071149 89.401608 
L 346.888699 98.169267 
L 353.70625 101.30756 
L 360.523801 99.982901 
L 367.341351 97.052929 
L 374.158902 94.879048 
L 380.976452 91.978483 
L 387.794003 88.048069 
L 394.611553 83.055832 
L 401.429104 79.635115 
L 408.246654 77.864299 
L 415.064205 79.899118 
" style="fill:none;stroke:#bcbd22;stroke-linecap:round;stroke-width:0.5;"/>
   </g>
   <g id="line2d_33">
    <path clip-path="url(#pbca766bb77)" d="M 292.348295 95.690926 
L 299.165846 93.634781 
L 305.983396 79.361201 
L 312.800947 53.355572 
L 319.618497 33.217696 
L 326.436048 39.743879 
L 333.253598 72.700376 
L 340.071149 110.705854 
L 346.888699 128.313636 
L 353.70625 120.611193 
L 360.523801 101.240847 
L 367.341351 89.193553 
L 374.158902 86.319198 
L 380.976452 87.168145 
L 387.794003 87.470866 
L 394.611553 87.573756 
L 401.429104 89.61488 
L 408.246654 93.626581 
L 415.064205 97.325717 
" style="fill:none;stroke:#17becf;stroke-linecap:round;stroke-width:0.5;"/>
   </g>
   <g id="line2d_34">
    <path clip-path="url(#pbca766bb77)" d="M 292.348295 89.711582 
L 299.165846 89.795065 
L 305.983396 87.953485 
L 312.800947 81.041025 
L 319.618497 70.570098 
L 326.436048 63.170685 
L 333.253598 64.112096 
L 340.071149 74.607681 
L 346.888699 88.693627 
L 353.70625 100.508657 
L 360.523801 106.733493 
L 367.341351 107.33205 
L 374.158902 104.252355 
L 380.976452 99.970827 
L 387.794003 96.274505 
L 394.611553 94.797992 
L 401.429104 94.712643 
L 408.246654 94.15563 
L 415.064205 94.184736 
" style="fill:none;stroke:#1f77b4;stroke-linecap:round;stroke-width:0.5;"/>
   </g>
   <g id="line2d_35">
    <path clip-path="url(#pbca766bb77)" d="M 292.348295 83.127832 
L 299.165846 84.351926 
L 305.983396 79.884881 
L 312.800947 72.689845 
L 319.618497 72.922367 
L 326.436048 82.869013 
L 333.253598 95.90423 
L 340.071149 103.444947 
L 346.888699 103.276373 
L 353.70625 97.607117 
L 360.523801 89.929109 
L 367.341351 82.4057 
L 374.158902 77.152271 
L 380.976452 75.08965 
L 387.794003 75.966505 
L 394.611553 76.990049 
L 401.429104 78.597085 
L 408.246654 80.316067 
L 415.064205 80.3154 
" style="fill:none;stroke:#ff7f0e;stroke-linecap:round;stroke-width:0.5;"/>
   </g>
   <g id="line2d_36">
    <path clip-path="url(#pbca766bb77)" d="M 292.348295 98.524171 
L 299.165846 101.713598 
L 305.983396 97.199685 
L 312.800947 76.650704 
L 319.618497 48.620668 
L 326.436048 32.586364 
L 333.253598 40.833946 
L 340.071149 68.77943 
L 346.888699 100.465371 
L 353.70625 121.486503 
L 360.523801 127.158956 
L 367.341351 120.72837 
L 374.158902 109.635728 
L 380.976452 97.3196 
L 387.794003 89.195448 
L 394.611553 83.828234 
L 401.429104 84.693223 
L 408.246654 87.136429 
L 415.064205 90.967923 
" style="fill:none;stroke:#2ca02c;stroke-linecap:round;stroke-width:0.5;"/>
   </g>
   <g id="line2d_37">
    <path clip-path="url(#pbca766bb77)" d="M 292.348295 86.272689 
L 299.165846 84.536579 
L 305.983396 76.598399 
L 312.800947 64.102332 
L 319.618497 56.800331 
L 326.436048 60.002021 
L 333.253598 69.224488 
L 340.071149 78.486696 
L 346.888699 85.269349 
L 353.70625 89.442349 
L 360.523801 92.494033 
L 367.341351 94.013981 
L 374.158902 93.517562 
L 380.976452 93.236985 
L 387.794003 92.103773 
L 394.611553 90.785537 
L 401.429104 90.908008 
L 408.246654 90.853508 
L 415.064205 88.144979 
" style="fill:none;stroke:#d62728;stroke-linecap:round;stroke-width:0.5;"/>
   </g>
   <g id="patch_6">
    <path d="M 286.2125 133.1 
L 286.2125 27.8 
" style="fill:none;stroke:#262626;stroke-linecap:square;stroke-linejoin:miter;stroke-width:1.25;"/>
   </g>
   <g id="patch_7">
    <path d="M 286.2125 133.1 
L 421.2 133.1 
" style="fill:none;stroke:#262626;stroke-linecap:square;stroke-linejoin:miter;stroke-width:1.25;"/>
   </g>
   <g id="text_15">
    <!-- cue - parietal -->
    <defs>
     <path d="M 48.78125 52.59375 
L 48.78125 44.1875 
Q 44.96875 46.296875 41.140625 47.34375 
Q 37.3125 48.390625 33.40625 48.390625 
Q 24.65625 48.390625 19.8125 42.84375 
Q 14.984375 37.3125 14.984375 27.296875 
Q 14.984375 17.28125 19.8125 11.734375 
Q 24.65625 6.203125 33.40625 6.203125 
Q 37.3125 6.203125 41.140625 7.25 
Q 44.96875 8.296875 48.78125 10.40625 
L 48.78125 2.09375 
Q 45.015625 0.34375 40.984375 -0.53125 
Q 36.96875 -1.421875 32.421875 -1.421875 
Q 20.0625 -1.421875 12.78125 6.34375 
Q 5.515625 14.109375 5.515625 27.296875 
Q 5.515625 40.671875 12.859375 48.328125 
Q 20.21875 56 33.015625 56 
Q 37.15625 56 41.109375 55.140625 
Q 45.0625 54.296875 48.78125 52.59375 
z
" id="DejaVuSans-99"/>
     <path d="M 8.5 21.578125 
L 8.5 54.6875 
L 17.484375 54.6875 
L 17.484375 21.921875 
Q 17.484375 14.15625 20.5 10.265625 
Q 23.53125 6.390625 29.59375 6.390625 
Q 36.859375 6.390625 41.078125 11.03125 
Q 45.3125 15.671875 45.3125 23.6875 
L 45.3125 54.6875 
L 54.296875 54.6875 
L 54.296875 0 
L 45.3125 0 
L 45.3125 8.40625 
Q 42.046875 3.421875 37.71875 1 
Q 33.40625 -1.421875 27.6875 -1.421875 
Q 18.265625 -1.421875 13.375 4.4375 
Q 8.5 10.296875 8.5 21.578125 
z
M 31.109375 56 
z
" id="DejaVuSans-117"/>
    </defs>
    <g style="fill:#262626;" transform="translate(304.380212 21.8)scale(0.1488 -0.1488)">
     <use xlink:href="#DejaVuSans-99"/>
     <use x="54.980469" xlink:href="#DejaVuSans-117"/>
     <use x="118.359375" xlink:href="#DejaVuSans-101"/>
     <use x="179.882812" xlink:href="#DejaVuSans-32"/>
     <use x="211.669922" xlink:href="#DejaVuSans-45"/>
     <use x="247.753906" xlink:href="#DejaVuSans-32"/>
     <use x="279.541016" xlink:href="#DejaVuSans-112"/>
     <use x="343.017578" xlink:href="#DejaVuSans-97"/>
     <use x="404.296875" xlink:href="#DejaVuSans-114"/>
     <use x="445.410156" xlink:href="#DejaVuSans-105"/>
     <use x="473.193359" xlink:href="#DejaVuSans-101"/>
     <use x="534.716797" xlink:href="#DejaVuSans-116"/>
     <use x="573.925781" xlink:href="#DejaVuSans-97"/>
     <use x="635.205078" xlink:href="#DejaVuSans-108"/>
    </g>
   </g>
  </g>
  <g id="axes_3">
   <g id="patch_8">
    <path d="M 79.925 307.7 
L 214.9125 307.7 
L 214.9125 202.4 
L 79.925 202.4 
z
" style="fill:#ffffff;"/>
   </g>
   <g id="matplotlib.axis_5">
    <g id="xtick_5">
     <g id="line2d_38">
      <g>
       <use style="fill:#262626;stroke:#262626;stroke-width:1.25;" x="86.060795" xlink:href="#mc76ca63b5c" y="307.7"/>
      </g>
     </g>
     <g id="text_16">
      <!-- 0 -->
      <g style="fill:#262626;" transform="translate(81.72157 327.564269)scale(0.1364 -0.1364)">
       <use xlink:href="#DejaVuSans-48"/>
      </g>
     </g>
    </g>
    <g id="xtick_6">
     <g id="line2d_39">
      <g>
       <use style="fill:#262626;stroke:#262626;stroke-width:1.25;" x="154.236301" xlink:href="#mc76ca63b5c" y="307.7"/>
      </g>
     </g>
     <g id="text_17">
      <!-- 10 -->
      <g style="fill:#262626;" transform="translate(145.557851 327.564269)scale(0.1364 -0.1364)">
       <use xlink:href="#DejaVuSans-49"/>
       <use x="63.623047" xlink:href="#DejaVuSans-48"/>
      </g>
     </g>
    </g>
    <g id="text_18">
     <!-- time -->
     <g style="fill:#262626;" transform="translate(130.610163 345.707437)scale(0.1488 -0.1488)">
      <use xlink:href="#DejaVuSans-116"/>
      <use x="39.208984" xlink:href="#DejaVuSans-105"/>
      <use x="66.992188" xlink:href="#DejaVuSans-109"/>
      <use x="164.404297" xlink:href="#DejaVuSans-101"/>
     </g>
    </g>
   </g>
   <g id="matplotlib.axis_6">
    <g id="ytick_6">
     <g id="line2d_40">
      <g>
       <use style="fill:#262626;stroke:#262626;stroke-width:1.25;" x="79.925" xlink:href="#mc6f0439bf0" y="278.058489"/>
      </g>
     </g>
     <g id="text_19">
      <!-- 0.00 -->
      <g style="fill:#262626;" transform="translate(40.054688 283.240623)scale(0.1364 -0.1364)">
       <use xlink:href="#DejaVuSans-48"/>
       <use x="63.623047" xlink:href="#DejaVuSans-46"/>
       <use x="95.410156" xlink:href="#DejaVuSans-48"/>
       <use x="159.033203" xlink:href="#DejaVuSans-48"/>
      </g>
     </g>
    </g>
    <g id="ytick_7">
     <g id="line2d_41">
      <g>
       <use style="fill:#262626;stroke:#262626;stroke-width:1.25;" x="79.925" xlink:href="#mc6f0439bf0" y="239.166894"/>
      </g>
     </g>
     <g id="text_20">
      <!-- 0.25 -->
      <g style="fill:#262626;" transform="translate(40.054688 244.349028)scale(0.1364 -0.1364)">
       <use xlink:href="#DejaVuSans-48"/>
       <use x="63.623047" xlink:href="#DejaVuSans-46"/>
       <use x="95.410156" xlink:href="#DejaVuSans-50"/>
       <use x="159.033203" xlink:href="#DejaVuSans-53"/>
      </g>
     </g>
    </g>
    <g id="text_21">
     <!-- signal -->
     <g style="fill:#262626;" transform="translate(32.960113 277.057287)rotate(-90)scale(0.1488 -0.1488)">
      <use xlink:href="#DejaVuSans-115"/>
      <use x="52.099609" xlink:href="#DejaVuSans-105"/>
      <use x="79.882812" xlink:href="#DejaVuSans-103"/>
      <use x="143.359375" xlink:href="#DejaVuSans-110"/>
      <use x="206.738281" xlink:href="#DejaVuSans-97"/>
      <use x="268.017578" xlink:href="#DejaVuSans-108"/>
     </g>
    </g>
   </g>
   <g id="line2d_42">
    <path clip-path="url(#p6517f9abb6)" d="M 86.060795 284.011416 
L 92.878346 285.291169 
L 99.695896 281.827972 
L 106.513447 270.541883 
L 113.330997 255.083616 
L 120.148548 245.19783 
L 126.966098 247.578636 
L 133.783649 260.182765 
L 140.601199 275.947269 
L 147.41875 288.64482 
L 154.236301 295.215072 
L 161.053851 295.826567 
L 167.871402 292.073064 
L 174.688952 286.651041 
L 181.506503 281.559654 
L 188.324053 278.070257 
L 195.141604 275.867265 
L 201.959154 274.403616 
L 208.776705 274.258723 
" style="fill:none;stroke:#1f77b4;stroke-linecap:round;stroke-width:0.5;"/>
   </g>
   <g id="line2d_43">
    <path clip-path="url(#p6517f9abb6)" d="M 86.060795 281.632992 
L 92.878346 282.286612 
L 99.695896 277.461792 
L 106.513447 264.581866 
L 113.330997 249.121318 
L 120.148548 241.340872 
L 126.966098 247.509873 
L 133.783649 264.333653 
L 140.601199 282.063267 
L 147.41875 293.206964 
L 154.236301 296.485471 
L 161.053851 294.227563 
L 167.871402 290.431936 
L 174.688952 286.554587 
L 181.506503 283.922768 
L 188.324053 282.418547 
L 195.141604 282.229501 
L 201.959154 282.713145 
L 208.776705 282.883001 
" style="fill:none;stroke:#ff7f0e;stroke-linecap:round;stroke-width:0.5;"/>
   </g>
   <g id="line2d_44">
    <path clip-path="url(#p6517f9abb6)" d="M 86.060795 272.085913 
L 92.878346 271.093848 
L 99.695896 266.380648 
L 106.513447 260.518975 
L 113.330997 258.916095 
L 120.148548 263.897757 
L 126.966098 272.962445 
L 133.783649 280.484926 
L 140.601199 284.525643 
L 147.41875 285.410133 
L 154.236301 284.840251 
L 161.053851 283.562038 
L 167.871402 283.132389 
L 174.688952 283.139714 
L 181.506503 284.247945 
L 188.324053 285.788388 
L 195.141604 287.308781 
L 201.959154 287.413374 
L 208.776705 287.755306 
" style="fill:none;stroke:#2ca02c;stroke-linecap:round;stroke-width:0.5;"/>
   </g>
   <g id="line2d_45">
    <path clip-path="url(#p6517f9abb6)" d="M 86.060795 282.4801 
L 92.878346 285.251041 
L 99.695896 286.638544 
L 106.513447 280.390094 
L 113.330997 266.242076 
L 120.148548 253.05353 
L 126.966098 250.66178 
L 133.783649 262.365531 
L 140.601199 280.757089 
L 147.41875 295.84039 
L 154.236301 302.913636 
L 161.053851 302.103412 
L 167.871402 296.005993 
L 174.688952 288.208369 
L 181.506503 282.656691 
L 188.324053 280.688592 
L 195.141604 281.293535 
L 201.959154 282.00135 
L 208.776705 282.847517 
" style="fill:none;stroke:#d62728;stroke-linecap:round;stroke-width:0.5;"/>
   </g>
   <g id="line2d_46">
    <path clip-path="url(#p6517f9abb6)" d="M 86.060795 266.484507 
L 92.878346 268.170939 
L 99.695896 273.252776 
L 106.513447 276.565254 
L 113.330997 273.384644 
L 120.148548 266.743986 
L 126.966098 263.708276 
L 133.783649 266.99613 
L 140.601199 273.656086 
L 147.41875 278.483779 
L 154.236301 280.447433 
L 161.053851 281.186957 
L 167.871402 281.080315 
L 174.688952 280.195997 
L 181.506503 279.172659 
L 188.324053 278.699117 
L 195.141604 278.534058 
L 201.959154 278.769608 
L 208.776705 279.447446 
" style="fill:none;stroke:#9467bd;stroke-linecap:round;stroke-width:0.5;"/>
   </g>
   <g id="line2d_47">
    <path clip-path="url(#p6517f9abb6)" d="M 86.060795 277.609229 
L 92.878346 278.932216 
L 99.695896 280.305105 
L 106.513447 277.737493 
L 113.330997 271.736859 
L 120.148548 268.88744 
L 126.966098 272.954943 
L 133.783649 280.892311 
L 140.601199 288.492954 
L 147.41875 293.080709 
L 154.236301 293.79836 
L 161.053851 292.488552 
L 167.871402 291.073601 
L 174.688952 289.801232 
L 181.506503 287.675157 
L 188.324053 285.526837 
L 195.141604 283.77391 
L 201.959154 282.740925 
L 208.776705 279.607827 
" style="fill:none;stroke:#8c564b;stroke-linecap:round;stroke-width:0.5;"/>
   </g>
   <g id="line2d_48">
    <path clip-path="url(#p6517f9abb6)" d="M 86.060795 275.125768 
L 92.878346 279.494601 
L 99.695896 284.675023 
L 106.513447 285.375126 
L 113.330997 279.938223 
L 120.148548 271.398467 
L 126.966098 264.661147 
L 133.783649 262.072697 
L 140.601199 264.445366 
L 147.41875 270.773806 
L 154.236301 279.411888 
L 161.053851 287.500131 
L 167.871402 293.12125 
L 174.688952 295.072862 
L 181.506503 293.957055 
L 188.324053 291.25435 
L 195.141604 288.094012 
L 201.959154 284.694545 
L 208.776705 279.787522 
" style="fill:none;stroke:#e377c2;stroke-linecap:round;stroke-width:0.5;"/>
   </g>
   <g id="line2d_49">
    <path clip-path="url(#p6517f9abb6)" d="M 86.060795 281.304191 
L 92.878346 281.718278 
L 99.695896 277.77923 
L 106.513447 268.101992 
L 113.330997 257.290783 
L 120.148548 250.653806 
L 126.966098 251.438466 
L 133.783649 258.336141 
L 140.601199 267.707898 
L 147.41875 276.171098 
L 154.236301 281.93863 
L 161.053851 284.682315 
L 167.871402 284.666185 
L 174.688952 282.128821 
L 181.506503 278.202415 
L 188.324053 275.699631 
L 195.141604 275.833781 
L 201.959154 277.869972 
L 208.776705 281.112881 
" style="fill:none;stroke:#7f7f7f;stroke-linecap:round;stroke-width:0.5;"/>
   </g>
   <g id="line2d_50">
    <path clip-path="url(#p6517f9abb6)" d="M 86.060795 279.294714 
L 92.878346 276.57024 
L 99.695896 274.112835 
L 106.513447 268.550305 
L 113.330997 257.080169 
L 120.148548 244.847548 
L 126.966098 239.667196 
L 133.783649 246.340977 
L 140.601199 261.140175 
L 147.41875 276.71803 
L 154.236301 289.875503 
L 161.053851 299.550363 
L 167.871402 302.256197 
L 174.688952 298.712768 
L 181.506503 291.827884 
L 188.324053 284.302825 
L 195.141604 278.513615 
L 201.959154 272.057486 
L 208.776705 270.824696 
" style="fill:none;stroke:#bcbd22;stroke-linecap:round;stroke-width:0.5;"/>
   </g>
   <g id="line2d_51">
    <path clip-path="url(#p6517f9abb6)" d="M 86.060795 280.783312 
L 92.878346 285.918173 
L 99.695896 281.59964 
L 106.513447 259.319939 
L 113.330997 227.613785 
L 120.148548 207.186364 
L 126.966098 214.173448 
L 133.783649 244.065117 
L 140.601199 276.353027 
L 147.41875 294.973048 
L 154.236301 298.662025 
L 161.053851 294.851463 
L 167.871402 290.572841 
L 174.688952 289.138987 
L 181.506503 289.055809 
L 188.324053 289.093885 
L 195.141604 288.316416 
L 201.959154 287.782268 
L 208.776705 287.900103 
" style="fill:none;stroke:#17becf;stroke-linecap:round;stroke-width:0.5;"/>
   </g>
   <g id="line2d_52">
    <path clip-path="url(#p6517f9abb6)" d="M 86.060795 276.338471 
L 92.878346 279.654871 
L 99.695896 286.973422 
L 106.513447 289.759159 
L 113.330997 278.343924 
L 120.148548 255.036947 
L 126.966098 234.1543 
L 133.783649 228.431412 
L 140.601199 239.431029 
L 147.41875 258.178859 
L 154.236301 276.110001 
L 161.053851 288.562339 
L 167.871402 294.156086 
L 174.688952 294.76417 
L 181.506503 292.115866 
L 188.324053 287.880367 
L 195.141604 283.351342 
L 201.959154 280.298714 
L 208.776705 279.757339 
" style="fill:none;stroke:#1f77b4;stroke-linecap:round;stroke-width:0.5;"/>
   </g>
   <g id="line2d_53">
    <path clip-path="url(#p6517f9abb6)" d="M 86.060795 280.700817 
L 92.878346 283.726239 
L 99.695896 279.729884 
L 106.513447 269.119494 
L 113.330997 258.121406 
L 120.148548 254.742323 
L 126.966098 262.338439 
L 133.783649 275.761858 
L 140.601199 286.972808 
L 147.41875 291.452779 
L 154.236301 289.871504 
L 161.053851 285.750679 
L 167.871402 282.260717 
L 174.688952 280.561905 
L 181.506503 279.680883 
L 188.324053 280.212415 
L 195.141604 282.824052 
L 201.959154 285.693452 
L 208.776705 287.154608 
" style="fill:none;stroke:#ff7f0e;stroke-linecap:round;stroke-width:0.5;"/>
   </g>
   <g id="line2d_54">
    <path clip-path="url(#p6517f9abb6)" d="M 86.060795 285.222102 
L 92.878346 287.434885 
L 99.695896 283.89531 
L 106.513447 269.098119 
L 113.330997 246.614994 
L 120.148548 228.921351 
L 126.966098 228.069628 
L 133.783649 246.176197 
L 140.601199 272.351556 
L 147.41875 292.490016 
L 154.236301 300.351486 
L 161.053851 298.849399 
L 167.871402 292.590055 
L 174.688952 286.25904 
L 181.506503 281.3259 
L 188.324053 278.857184 
L 195.141604 278.481441 
L 201.959154 280.498682 
L 208.776705 283.635922 
" style="fill:none;stroke:#2ca02c;stroke-linecap:round;stroke-width:0.5;"/>
   </g>
   <g id="line2d_55">
    <path clip-path="url(#p6517f9abb6)" d="M 86.060795 281.395771 
L 92.878346 281.333726 
L 99.695896 279.464442 
L 106.513447 273.900713 
L 113.330997 267.08211 
L 120.148548 264.775143 
L 126.966098 268.812224 
L 133.783649 276.815006 
L 140.601199 284.715627 
L 147.41875 288.963973 
L 154.236301 287.45983 
L 161.053851 282.119403 
L 167.871402 277.581344 
L 174.688952 277.54048 
L 181.506503 278.478472 
L 188.324053 279.919999 
L 195.141604 281.387467 
L 201.959154 284.175712 
L 208.776705 285.592528 
" style="fill:none;stroke:#d62728;stroke-linecap:round;stroke-width:0.5;"/>
   </g>
   <g id="patch_9">
    <path d="M 79.925 307.7 
L 79.925 202.4 
" style="fill:none;stroke:#262626;stroke-linecap:square;stroke-linejoin:miter;stroke-width:1.25;"/>
   </g>
   <g id="patch_10">
    <path d="M 79.925 307.7 
L 214.9125 307.7 
" style="fill:none;stroke:#262626;stroke-linecap:square;stroke-linejoin:miter;stroke-width:1.25;"/>
   </g>
   <g id="text_22">
    <!-- stim - frontal -->
    <defs>
     <path d="M 37.109375 75.984375 
L 37.109375 68.5 
L 28.515625 68.5 
Q 23.6875 68.5 21.796875 66.546875 
Q 19.921875 64.59375 19.921875 59.515625 
L 19.921875 54.6875 
L 34.71875 54.6875 
L 34.71875 47.703125 
L 19.921875 47.703125 
L 19.921875 0 
L 10.890625 0 
L 10.890625 47.703125 
L 2.296875 47.703125 
L 2.296875 54.6875 
L 10.890625 54.6875 
L 10.890625 58.5 
Q 10.890625 67.625 15.140625 71.796875 
Q 19.390625 75.984375 28.609375 75.984375 
z
" id="DejaVuSans-102"/>
     <path d="M 30.609375 48.390625 
Q 23.390625 48.390625 19.1875 42.75 
Q 14.984375 37.109375 14.984375 27.296875 
Q 14.984375 17.484375 19.15625 11.84375 
Q 23.34375 6.203125 30.609375 6.203125 
Q 37.796875 6.203125 41.984375 11.859375 
Q 46.1875 17.53125 46.1875 27.296875 
Q 46.1875 37.015625 41.984375 42.703125 
Q 37.796875 48.390625 30.609375 48.390625 
z
M 30.609375 56 
Q 42.328125 56 49.015625 48.375 
Q 55.71875 40.765625 55.71875 27.296875 
Q 55.71875 13.875 49.015625 6.21875 
Q 42.328125 -1.421875 30.609375 -1.421875 
Q 18.84375 -1.421875 12.171875 6.21875 
Q 5.515625 13.875 5.515625 27.296875 
Q 5.515625 40.765625 12.171875 48.375 
Q 18.84375 56 30.609375 56 
z
" id="DejaVuSans-111"/>
    </defs>
    <g style="fill:#262626;" transform="translate(99.413312 196.4)scale(0.1488 -0.1488)">
     <use xlink:href="#DejaVuSans-115"/>
     <use x="52.099609" xlink:href="#DejaVuSans-116"/>
     <use x="91.308594" xlink:href="#DejaVuSans-105"/>
     <use x="119.091797" xlink:href="#DejaVuSans-109"/>
     <use x="216.503906" xlink:href="#DejaVuSans-32"/>
     <use x="248.291016" xlink:href="#DejaVuSans-45"/>
     <use x="284.375" xlink:href="#DejaVuSans-32"/>
     <use x="316.162109" xlink:href="#DejaVuSans-102"/>
     <use x="351.367188" xlink:href="#DejaVuSans-114"/>
     <use x="392.449219" xlink:href="#DejaVuSans-111"/>
     <use x="453.630859" xlink:href="#DejaVuSans-110"/>
     <use x="517.009766" xlink:href="#DejaVuSans-116"/>
     <use x="556.21875" xlink:href="#DejaVuSans-97"/>
     <use x="617.498047" xlink:href="#DejaVuSans-108"/>
    </g>
   </g>
  </g>
  <g id="axes_4">
   <g id="patch_11">
    <path d="M 286.2125 307.7 
L 421.2 307.7 
L 421.2 202.4 
L 286.2125 202.4 
z
" style="fill:#ffffff;"/>
   </g>
   <g id="matplotlib.axis_7">
    <g id="xtick_7">
     <g id="line2d_56">
      <g>
       <use style="fill:#262626;stroke:#262626;stroke-width:1.25;" x="292.348295" xlink:href="#mc76ca63b5c" y="307.7"/>
      </g>
     </g>
     <g id="text_23">
      <!-- 0 -->
      <g style="fill:#262626;" transform="translate(288.00907 327.564269)scale(0.1364 -0.1364)">
       <use xlink:href="#DejaVuSans-48"/>
      </g>
     </g>
    </g>
    <g id="xtick_8">
     <g id="line2d_57">
      <g>
       <use style="fill:#262626;stroke:#262626;stroke-width:1.25;" x="360.523801" xlink:href="#mc76ca63b5c" y="307.7"/>
      </g>
     </g>
     <g id="text_24">
      <!-- 10 -->
      <g style="fill:#262626;" transform="translate(351.845351 327.564269)scale(0.1364 -0.1364)">
       <use xlink:href="#DejaVuSans-49"/>
       <use x="63.623047" xlink:href="#DejaVuSans-48"/>
      </g>
     </g>
    </g>
    <g id="text_25">
     <!-- time -->
     <g style="fill:#262626;" transform="translate(336.897662 345.707437)scale(0.1488 -0.1488)">
      <use xlink:href="#DejaVuSans-116"/>
      <use x="39.208984" xlink:href="#DejaVuSans-105"/>
      <use x="66.992188" xlink:href="#DejaVuSans-109"/>
      <use x="164.404297" xlink:href="#DejaVuSans-101"/>
     </g>
    </g>
   </g>
   <g id="matplotlib.axis_8">
    <g id="ytick_8">
     <g id="line2d_58">
      <g>
       <use style="fill:#262626;stroke:#262626;stroke-width:1.25;" x="286.2125" xlink:href="#mc6f0439bf0" y="260.734751"/>
      </g>
     </g>
     <g id="text_26">
      <!-- 0.0 -->
      <g style="fill:#262626;" transform="translate(255.020637 265.916886)scale(0.1364 -0.1364)">
       <use xlink:href="#DejaVuSans-48"/>
       <use x="63.623047" xlink:href="#DejaVuSans-46"/>
       <use x="95.410156" xlink:href="#DejaVuSans-48"/>
      </g>
     </g>
    </g>
    <g id="ytick_9">
     <g id="line2d_59">
      <g>
       <use style="fill:#262626;stroke:#262626;stroke-width:1.25;" x="286.2125" xlink:href="#mc6f0439bf0" y="208.280206"/>
      </g>
     </g>
     <g id="text_27">
      <!-- 0.2 -->
      <g style="fill:#262626;" transform="translate(255.020637 213.462341)scale(0.1364 -0.1364)">
       <use xlink:href="#DejaVuSans-48"/>
       <use x="63.623047" xlink:href="#DejaVuSans-46"/>
       <use x="95.410156" xlink:href="#DejaVuSans-50"/>
      </g>
     </g>
    </g>
    <g id="text_28">
     <!-- signal -->
     <g style="fill:#262626;" transform="translate(247.926062 277.057287)rotate(-90)scale(0.1488 -0.1488)">
      <use xlink:href="#DejaVuSans-115"/>
      <use x="52.099609" xlink:href="#DejaVuSans-105"/>
      <use x="79.882812" xlink:href="#DejaVuSans-103"/>
      <use x="143.359375" xlink:href="#DejaVuSans-110"/>
      <use x="206.738281" xlink:href="#DejaVuSans-97"/>
      <use x="268.017578" xlink:href="#DejaVuSans-108"/>
     </g>
    </g>
   </g>
   <g id="line2d_60">
    <path clip-path="url(#pcf973be1c1)" d="M 292.348295 264.033095 
L 299.165846 263.448252 
L 305.983396 259.581802 
L 312.800947 251.782036 
L 319.618497 245.338275 
L 326.436048 245.855634 
L 333.253598 254.854483 
L 340.071149 268.374834 
L 346.888699 279.353733 
L 353.70625 282.491543 
L 360.523801 278.119899 
L 367.341351 271.322494 
L 374.158902 266.160145 
L 380.976452 263.197039 
L 387.794003 262.23003 
L 394.611553 261.535596 
L 401.429104 261.39618 
L 408.246654 261.833704 
L 415.064205 263.924904 
" style="fill:none;stroke:#1f77b4;stroke-linecap:round;stroke-width:0.5;"/>
   </g>
   <g id="line2d_61">
    <path clip-path="url(#pcf973be1c1)" d="M 292.348295 267.824694 
L 299.165846 265.584931 
L 305.983396 260.178596 
L 312.800947 253.99627 
L 319.618497 250.027148 
L 326.436048 251.33758 
L 333.253598 257.442976 
L 340.071149 264.511362 
L 346.888699 268.154905 
L 353.70625 268.297927 
L 360.523801 267.432983 
L 367.341351 266.853318 
L 374.158902 265.493936 
L 380.976452 264.664836 
L 387.794003 265.249196 
L 394.611553 265.850869 
L 401.429104 263.375392 
L 408.246654 259.191608 
L 415.064205 254.833266 
" style="fill:none;stroke:#ff7f0e;stroke-linecap:round;stroke-width:0.5;"/>
   </g>
   <g id="line2d_62">
    <path clip-path="url(#pcf973be1c1)" d="M 292.348295 259.360692 
L 299.165846 262.615609 
L 305.983396 262.703666 
L 312.800947 261.300981 
L 319.618497 260.854634 
L 326.436048 262.519634 
L 333.253598 263.05709 
L 340.071149 262.030144 
L 346.888699 261.572651 
L 353.70625 262.74273 
L 360.523801 263.187985 
L 367.341351 262.399988 
L 374.158902 261.530537 
L 380.976452 261.901857 
L 387.794003 261.60496 
L 394.611553 261.912227 
L 401.429104 261.186744 
L 408.246654 259.771966 
L 415.064205 259.585021 
" style="fill:none;stroke:#2ca02c;stroke-linecap:round;stroke-width:0.5;"/>
   </g>
   <g id="line2d_63">
    <path clip-path="url(#pcf973be1c1)" d="M 292.348295 273.856976 
L 299.165846 276.159976 
L 305.983396 275.623473 
L 312.800947 270.396868 
L 319.618497 261.92369 
L 326.436048 256.721707 
L 333.253598 259.230858 
L 340.071149 267.387747 
L 346.888699 272.51744 
L 353.70625 270.213208 
L 360.523801 261.820012 
L 367.341351 252.727985 
L 374.158902 246.108794 
L 380.976452 245.126808 
L 387.794003 247.586301 
L 394.611553 248.381101 
L 401.429104 245.757563 
L 408.246654 241.39023 
L 415.064205 236.993862 
" style="fill:none;stroke:#d62728;stroke-linecap:round;stroke-width:0.5;"/>
   </g>
   <g id="line2d_64">
    <path clip-path="url(#pcf973be1c1)" d="M 292.348295 263.990078 
L 299.165846 266.643012 
L 305.983396 265.947859 
L 312.800947 263.985018 
L 319.618497 261.818636 
L 326.436048 263.085857 
L 333.253598 267.942216 
L 340.071149 273.083508 
L 346.888699 274.50526 
L 353.70625 271.042781 
L 360.523801 264.963664 
L 367.341351 261.129043 
L 374.158902 259.236864 
L 380.976452 259.580819 
L 387.794003 258.854953 
L 394.611553 257.786469 
L 401.429104 258.069223 
L 408.246654 259.359457 
L 415.064205 261.587337 
" style="fill:none;stroke:#9467bd;stroke-linecap:round;stroke-width:0.5;"/>
   </g>
   <g id="line2d_65">
    <path clip-path="url(#pcf973be1c1)" d="M 292.348295 262.863596 
L 299.165846 259.33372 
L 305.983396 253.400447 
L 312.800947 247.988719 
L 319.618497 246.333561 
L 326.436048 248.395458 
L 333.253598 253.689172 
L 340.071149 259.779399 
L 346.888699 263.024033 
L 353.70625 261.556505 
L 360.523801 257.990471 
L 367.341351 255.389543 
L 374.158902 254.363749 
L 380.976452 255.4699 
L 387.794003 257.971579 
L 394.611553 260.165565 
L 401.429104 261.859866 
L 408.246654 262.019995 
L 415.064205 260.903476 
" style="fill:none;stroke:#8c564b;stroke-linecap:round;stroke-width:0.5;"/>
   </g>
   <g id="line2d_66">
    <path clip-path="url(#pcf973be1c1)" d="M 292.348295 258.002661 
L 299.165846 261.96794 
L 305.983396 264.012173 
L 312.800947 262.04275 
L 319.618497 258.675993 
L 326.436048 255.945712 
L 333.253598 254.866608 
L 340.071149 255.744351 
L 346.888699 258.825985 
L 353.70625 262.238981 
L 360.523801 264.705696 
L 367.341351 264.624298 
L 374.158902 262.683619 
L 380.976452 258.52661 
L 387.794003 255.01875 
L 394.611553 254.077428 
L 401.429104 256.451411 
L 408.246654 257.125322 
L 415.064205 256.968975 
" style="fill:none;stroke:#e377c2;stroke-linecap:round;stroke-width:0.5;"/>
   </g>
   <g id="line2d_67">
    <path clip-path="url(#pcf973be1c1)" d="M 292.348295 272.018116 
L 299.165846 272.597826 
L 305.983396 272.016067 
L 312.800947 271.143194 
L 319.618497 268.817474 
L 326.436048 265.441405 
L 333.253598 261.602131 
L 340.071149 258.415216 
L 346.888699 256.599998 
L 353.70625 256.958412 
L 360.523801 259.269916 
L 367.341351 262.076035 
L 374.158902 264.40797 
L 380.976452 265.327957 
L 387.794003 265.936001 
L 394.611553 267.938594 
L 401.429104 271.143486 
L 408.246654 272.399095 
L 415.064205 270.553975 
" style="fill:none;stroke:#7f7f7f;stroke-linecap:round;stroke-width:0.5;"/>
   </g>
   <g id="line2d_68">
    <path clip-path="url(#pcf973be1c1)" d="M 292.348295 255.842699 
L 299.165846 257.046306 
L 305.983396 258.319018 
L 312.800947 258.400318 
L 319.618497 260.103386 
L 326.436048 262.761098 
L 333.253598 266.363006 
L 340.071149 271.827676 
L 346.888699 277.50989 
L 353.70625 279.329384 
L 360.523801 277.579497 
L 367.341351 274.376022 
L 374.158902 272.195963 
L 380.976452 270.609912 
L 387.794003 266.193898 
L 394.611553 258.098431 
L 401.429104 252.471453 
L 408.246654 255.380365 
L 415.064205 257.52241 
" style="fill:none;stroke:#bcbd22;stroke-linecap:round;stroke-width:0.5;"/>
   </g>
   <g id="line2d_69">
    <path clip-path="url(#pcf973be1c1)" d="M 292.348295 270.993939 
L 299.165846 269.041939 
L 305.983396 255.790972 
L 312.800947 229.651489 
L 319.618497 207.186364 
L 326.436048 211.290771 
L 333.253598 244.083919 
L 340.071149 283.496266 
L 346.888699 302.913636 
L 353.70625 296.559039 
L 360.523801 278.200244 
L 367.341351 267.21099 
L 374.158902 265.189167 
L 380.976452 266.377344 
L 387.794003 267.762617 
L 394.611553 269.261849 
L 401.429104 271.451813 
L 408.246654 272.4808 
L 415.064205 272.683972 
" style="fill:none;stroke:#17becf;stroke-linecap:round;stroke-width:0.5;"/>
   </g>
   <g id="line2d_70">
    <path clip-path="url(#pcf973be1c1)" d="M 292.348295 260.878015 
L 299.165846 260.563471 
L 305.983396 260.091439 
L 312.800947 255.50333 
L 319.618497 246.71813 
L 326.436048 239.635735 
L 333.253598 241.352383 
L 340.071149 253.740398 
L 346.888699 269.612213 
L 353.70625 281.06966 
L 360.523801 285.193462 
L 367.341351 284.07471 
L 374.158902 279.281118 
L 380.976452 273.229175 
L 387.794003 268.76396 
L 394.611553 266.603563 
L 401.429104 265.142891 
L 408.246654 264.442785 
L 415.064205 266.872347 
" style="fill:none;stroke:#1f77b4;stroke-linecap:round;stroke-width:0.5;"/>
   </g>
   <g id="line2d_71">
    <path clip-path="url(#pcf973be1c1)" d="M 292.348295 258.688566 
L 299.165846 263.496035 
L 305.983396 263.107923 
L 312.800947 258.134372 
L 319.618497 257.269642 
L 326.436048 264.253933 
L 333.253598 275.00376 
L 340.071149 281.287286 
L 346.888699 279.006192 
L 353.70625 270.619455 
L 360.523801 261.723694 
L 367.341351 254.78631 
L 374.158902 249.624126 
L 380.976452 248.167079 
L 387.794003 250.507118 
L 394.611553 254.24779 
L 401.429104 256.92921 
L 408.246654 258.028253 
L 415.064205 256.710601 
" style="fill:none;stroke:#ff7f0e;stroke-linecap:round;stroke-width:0.5;"/>
   </g>
   <g id="line2d_72">
    <path clip-path="url(#pcf973be1c1)" d="M 292.348295 271.471437 
L 299.165846 272.689265 
L 305.983396 267.833396 
L 312.800947 250.833968 
L 319.618497 231.217241 
L 326.436048 227.008477 
L 333.253598 245.304867 
L 340.071149 274.851631 
L 346.888699 296.419322 
L 353.70625 299.039157 
L 360.523801 286.433271 
L 367.341351 269.329335 
L 374.158902 257.520534 
L 380.976452 253.291804 
L 387.794003 255.425895 
L 394.611553 257.431647 
L 401.429104 259.533782 
L 408.246654 260.84982 
L 415.064205 261.136997 
" style="fill:none;stroke:#2ca02c;stroke-linecap:round;stroke-width:0.5;"/>
   </g>
   <g id="line2d_73">
    <path clip-path="url(#pcf973be1c1)" d="M 292.348295 258.697912 
L 299.165846 256.42304 
L 305.983396 254.362572 
L 312.800947 248.182696 
L 319.618497 242.434618 
L 326.436048 243.139818 
L 333.253598 247.417657 
L 340.071149 251.660844 
L 346.888699 255.970457 
L 353.70625 258.104928 
L 360.523801 257.853981 
L 367.341351 258.778084 
L 374.158902 262.603479 
L 380.976452 266.433671 
L 387.794003 267.049154 
L 394.611553 265.884904 
L 401.429104 265.243725 
L 408.246654 263.455887 
L 415.064205 261.651851 
" style="fill:none;stroke:#d62728;stroke-linecap:round;stroke-width:0.5;"/>
   </g>
   <g id="patch_12">
    <path d="M 286.2125 307.7 
L 286.2125 202.4 
" style="fill:none;stroke:#262626;stroke-linecap:square;stroke-linejoin:miter;stroke-width:1.25;"/>
   </g>
   <g id="patch_13">
    <path d="M 286.2125 307.7 
L 421.2 307.7 
" style="fill:none;stroke:#262626;stroke-linecap:square;stroke-linejoin:miter;stroke-width:1.25;"/>
   </g>
   <g id="text_29">
    <!-- cue - frontal -->
    <g style="fill:#262626;" transform="translate(308.423387 196.4)scale(0.1488 -0.1488)">
     <use xlink:href="#DejaVuSans-99"/>
     <use x="54.980469" xlink:href="#DejaVuSans-117"/>
     <use x="118.359375" xlink:href="#DejaVuSans-101"/>
     <use x="179.882812" xlink:href="#DejaVuSans-32"/>
     <use x="211.669922" xlink:href="#DejaVuSans-45"/>
     <use x="247.753906" xlink:href="#DejaVuSans-32"/>
     <use x="279.541016" xlink:href="#DejaVuSans-102"/>
     <use x="314.746094" xlink:href="#DejaVuSans-114"/>
     <use x="355.828125" xlink:href="#DejaVuSans-111"/>
     <use x="417.009766" xlink:href="#DejaVuSans-110"/>
     <use x="480.388672" xlink:href="#DejaVuSans-116"/>
     <use x="519.597656" xlink:href="#DejaVuSans-97"/>
     <use x="580.876953" xlink:href="#DejaVuSans-108"/>
    </g>
   </g>
  </g>
 </g>
 <defs>
  <clipPath id="p89eaf17a5e">
   <rect height="105.3" width="134.9875" x="79.925" y="27.8"/>
  </clipPath>
  <clipPath id="pbca766bb77">
   <rect height="105.3" width="134.9875" x="286.2125" y="27.8"/>
  </clipPath>
  <clipPath id="p6517f9abb6">
   <rect height="105.3" width="134.9875" x="79.925" y="202.4"/>
  </clipPath>
  <clipPath id="pcf973be1c1">
   <rect height="105.3" width="134.9875" x="286.2125" y="202.4"/>
  </clipPath>
 </defs>
</svg>
