<?xml version="1.0" encoding="utf-8" standalone="no"?>
<!DOCTYPE svg PUBLIC "-//W3C//DTD SVG 1.1//EN"
  "http://www.w3.org/Graphics/SVG/1.1/DTD/svg11.dtd">
<!-- Created with matplotlib (https://matplotlib.org/) -->
<svg height="288pt" version="1.1" viewBox="0 0 432 288" width="432pt" xmlns="http://www.w3.org/2000/svg" xmlns:xlink="http://www.w3.org/1999/xlink">
 <defs>
  <style type="text/css">
*{stroke-linecap:butt;stroke-linejoin:round;white-space:pre;}
  </style>
 </defs>
 <g id="figure_1">
  <g id="patch_1">
   <path d="M 0 288 
L 432 288 
L 432 0 
L 0 0 
z
" style="fill:#ffffff;"/>
  </g>
  <g id="axes_1">
   <g id="patch_2">
    <path d="M 54 252 
L 388.8 252 
L 388.8 34.56 
L 54 34.56 
z
" style="fill:#ffffff;"/>
   </g>
   <g id="matplotlib.axis_1">
    <g id="xtick_1">
     <g id="line2d_1">
      <defs>
       <path d="M 0 0 
L 0 6 
" id="m7cfe170958" style="stroke:#262626;stroke-width:1.25;"/>
      </defs>
      <g>
       <use style="fill:#262626;stroke:#262626;stroke-width:1.25;" x="69.218182" xlink:href="#m7cfe170958" y="252"/>
      </g>
     </g>
     <g id="text_1">
      <!-- 0.0 -->
      <defs>
       <path d="M 31.78125 66.40625 
Q 24.171875 66.40625 20.328125 58.90625 
Q 16.5 51.421875 16.5 36.375 
Q 16.5 21.390625 20.328125 13.890625 
Q 24.171875 6.390625 31.78125 6.390625 
Q 39.453125 6.390625 43.28125 13.890625 
Q 47.125 21.390625 47.125 36.375 
Q 47.125 51.421875 43.28125 58.90625 
Q 39.453125 66.40625 31.78125 66.40625 
z
M 31.78125 74.21875 
Q 44.046875 74.21875 50.515625 64.515625 
Q 56.984375 54.828125 56.984375 36.375 
Q 56.984375 17.96875 50.515625 8.265625 
Q 44.046875 -1.421875 31.78125 -1.421875 
Q 19.53125 -1.421875 13.0625 8.265625 
Q 6.59375 17.96875 6.59375 36.375 
Q 6.59375 54.828125 13.0625 64.515625 
Q 19.53125 74.21875 31.78125 74.21875 
z
" id="DejaVuSans-48"/>
       <path d="M 10.6875 12.40625 
L 21 12.40625 
L 21 0 
L 10.6875 0 
z
" id="DejaVuSans-46"/>
      </defs>
      <g style="fill:#262626;" transform="translate(58.372251 271.864269)scale(0.1364 -0.1364)">
       <use xlink:href="#DejaVuSans-48"/>
       <use x="63.623047" xlink:href="#DejaVuSans-46"/>
       <use x="95.410156" xlink:href="#DejaVuSans-48"/>
      </g>
     </g>
    </g>
    <g id="xtick_2">
     <g id="line2d_2">
      <g>
       <use style="fill:#262626;stroke:#262626;stroke-width:1.25;" x="111.490909" xlink:href="#m7cfe170958" y="252"/>
      </g>
     </g>
     <g id="text_2">
      <!-- 2.5 -->
      <defs>
       <path d="M 19.1875 8.296875 
L 53.609375 8.296875 
L 53.609375 0 
L 7.328125 0 
L 7.328125 8.296875 
Q 12.9375 14.109375 22.625 23.890625 
Q 32.328125 33.6875 34.8125 36.53125 
Q 39.546875 41.84375 41.421875 45.53125 
Q 43.3125 49.21875 43.3125 52.78125 
Q 43.3125 58.59375 39.234375 62.25 
Q 35.15625 65.921875 28.609375 65.921875 
Q 23.96875 65.921875 18.8125 64.3125 
Q 13.671875 62.703125 7.8125 59.421875 
L 7.8125 69.390625 
Q 13.765625 71.78125 18.9375 73 
Q 24.125 74.21875 28.421875 74.21875 
Q 39.75 74.21875 46.484375 68.546875 
Q 53.21875 62.890625 53.21875 53.421875 
Q 53.21875 48.921875 51.53125 44.890625 
Q 49.859375 40.875 45.40625 35.40625 
Q 44.1875 33.984375 37.640625 27.21875 
Q 31.109375 20.453125 19.1875 8.296875 
z
" id="DejaVuSans-50"/>
       <path d="M 10.796875 72.90625 
L 49.515625 72.90625 
L 49.515625 64.59375 
L 19.828125 64.59375 
L 19.828125 46.734375 
Q 21.96875 47.46875 24.109375 47.828125 
Q 26.265625 48.1875 28.421875 48.1875 
Q 40.625 48.1875 47.75 41.5 
Q 54.890625 34.8125 54.890625 23.390625 
Q 54.890625 11.625 47.5625 5.09375 
Q 40.234375 -1.421875 26.90625 -1.421875 
Q 22.3125 -1.421875 17.546875 -0.640625 
Q 12.796875 0.140625 7.71875 1.703125 
L 7.71875 11.625 
Q 12.109375 9.234375 16.796875 8.0625 
Q 21.484375 6.890625 26.703125 6.890625 
Q 35.15625 6.890625 40.078125 11.328125 
Q 45.015625 15.765625 45.015625 23.390625 
Q 45.015625 31 40.078125 35.4375 
Q 35.15625 39.890625 26.703125 39.890625 
Q 22.75 39.890625 18.8125 39.015625 
Q 14.890625 38.140625 10.796875 36.28125 
z
" id="DejaVuSans-53"/>
      </defs>
      <g style="fill:#262626;" transform="translate(100.644978 271.864269)scale(0.1364 -0.1364)">
       <use xlink:href="#DejaVuSans-50"/>
       <use x="63.623047" xlink:href="#DejaVuSans-46"/>
       <use x="95.410156" xlink:href="#DejaVuSans-53"/>
      </g>
     </g>
    </g>
    <g id="xtick_3">
     <g id="line2d_3">
      <g>
       <use style="fill:#262626;stroke:#262626;stroke-width:1.25;" x="153.763636" xlink:href="#m7cfe170958" y="252"/>
      </g>
     </g>
     <g id="text_3">
      <!-- 5.0 -->
      <g style="fill:#262626;" transform="translate(142.917705 271.864269)scale(0.1364 -0.1364)">
       <use xlink:href="#DejaVuSans-53"/>
       <use x="63.623047" xlink:href="#DejaVuSans-46"/>
       <use x="95.410156" xlink:href="#DejaVuSans-48"/>
      </g>
     </g>
    </g>
    <g id="xtick_4">
     <g id="line2d_4">
      <g>
       <use style="fill:#262626;stroke:#262626;stroke-width:1.25;" x="196.036364" xlink:href="#m7cfe170958" y="252"/>
      </g>
     </g>
     <g id="text_4">
      <!-- 7.5 -->
      <defs>
       <path d="M 8.203125 72.90625 
L 55.078125 72.90625 
L 55.078125 68.703125 
L 28.609375 0 
L 18.3125 0 
L 43.21875 64.59375 
L 8.203125 64.59375 
z
" id="DejaVuSans-55"/>
      </defs>
      <g style="fill:#262626;" transform="translate(185.190432 271.864269)scale(0.1364 -0.1364)">
       <use xlink:href="#DejaVuSans-55"/>
       <use x="63.623047" xlink:href="#DejaVuSans-46"/>
       <use x="95.410156" xlink:href="#DejaVuSans-53"/>
      </g>
     </g>
    </g>
    <g id="xtick_5">
     <g id="line2d_5">
      <g>
       <use style="fill:#262626;stroke:#262626;stroke-width:1.25;" x="238.309091" xlink:href="#m7cfe170958" y="252"/>
      </g>
     </g>
     <g id="text_5">
      <!-- 10.0 -->
      <defs>
       <path d="M 12.40625 8.296875 
L 28.515625 8.296875 
L 28.515625 63.921875 
L 10.984375 60.40625 
L 10.984375 69.390625 
L 28.421875 72.90625 
L 38.28125 72.90625 
L 38.28125 8.296875 
L 54.390625 8.296875 
L 54.390625 0 
L 12.40625 0 
z
" id="DejaVuSans-49"/>
      </defs>
      <g style="fill:#262626;" transform="translate(223.123935 271.864269)scale(0.1364 -0.1364)">
       <use xlink:href="#DejaVuSans-49"/>
       <use x="63.623047" xlink:href="#DejaVuSans-48"/>
       <use x="127.246094" xlink:href="#DejaVuSans-46"/>
       <use x="159.033203" xlink:href="#DejaVuSans-48"/>
      </g>
     </g>
    </g>
    <g id="xtick_6">
     <g id="line2d_6">
      <g>
       <use style="fill:#262626;stroke:#262626;stroke-width:1.25;" x="280.581818" xlink:href="#m7cfe170958" y="252"/>
      </g>
     </g>
     <g id="text_6">
      <!-- 12.5 -->
      <g style="fill:#262626;" transform="translate(265.396662 271.864269)scale(0.1364 -0.1364)">
       <use xlink:href="#DejaVuSans-49"/>
       <use x="63.623047" xlink:href="#DejaVuSans-50"/>
       <use x="127.246094" xlink:href="#DejaVuSans-46"/>
       <use x="159.033203" xlink:href="#DejaVuSans-53"/>
      </g>
     </g>
    </g>
    <g id="xtick_7">
     <g id="line2d_7">
      <g>
       <use style="fill:#262626;stroke:#262626;stroke-width:1.25;" x="322.854545" xlink:href="#m7cfe170958" y="252"/>
      </g>
     </g>
     <g id="text_7">
      <!-- 15.0 -->
      <g style="fill:#262626;" transform="translate(307.669389 271.864269)scale(0.1364 -0.1364)">
       <use xlink:href="#DejaVuSans-49"/>
       <use x="63.623047" xlink:href="#DejaVuSans-53"/>
       <use x="127.246094" xlink:href="#DejaVuSans-46"/>
       <use x="159.033203" xlink:href="#DejaVuSans-48"/>
      </g>
     </g>
    </g>
    <g id="xtick_8">
     <g id="line2d_8">
      <g>
       <use style="fill:#262626;stroke:#262626;stroke-width:1.25;" x="365.127273" xlink:href="#m7cfe170958" y="252"/>
      </g>
     </g>
     <g id="text_8">
      <!-- 17.5 -->
      <g style="fill:#262626;" transform="translate(349.942116 271.864269)scale(0.1364 -0.1364)">
       <use xlink:href="#DejaVuSans-49"/>
       <use x="63.623047" xlink:href="#DejaVuSans-55"/>
       <use x="127.246094" xlink:href="#DejaVuSans-46"/>
       <use x="159.033203" xlink:href="#DejaVuSans-53"/>
      </g>
     </g>
    </g>
   </g>
   <g id="matplotlib.axis_2">
    <g id="ytick_1">
     <g id="line2d_9">
      <defs>
       <path d="M 0 0 
L -6 0 
" id="m001ca1ea71" style="stroke:#262626;stroke-width:1.25;"/>
      </defs>
      <g>
       <use style="fill:#262626;stroke:#262626;stroke-width:1.25;" x="54" xlink:href="#m001ca1ea71" y="228.748375"/>
      </g>
     </g>
     <g id="text_9">
      <!-- −0.2 -->
      <defs>
       <path d="M 10.59375 35.5 
L 73.1875 35.5 
L 73.1875 27.203125 
L 10.59375 27.203125 
z
" id="DejaVuSans-8722"/>
      </defs>
      <g style="fill:#262626;" transform="translate(11.378244 233.93051)scale(0.1364 -0.1364)">
       <use xlink:href="#DejaVuSans-8722"/>
       <use x="83.789062" xlink:href="#DejaVuSans-48"/>
       <use x="147.412109" xlink:href="#DejaVuSans-46"/>
       <use x="179.199219" xlink:href="#DejaVuSans-50"/>
      </g>
     </g>
    </g>
    <g id="ytick_2">
     <g id="line2d_10">
      <g>
       <use style="fill:#262626;stroke:#262626;stroke-width:1.25;" x="54" xlink:href="#m001ca1ea71" y="180.563167"/>
      </g>
     </g>
     <g id="text_10">
      <!-- 0.0 -->
      <g style="fill:#262626;" transform="translate(22.808138 185.745302)scale(0.1364 -0.1364)">
       <use xlink:href="#DejaVuSans-48"/>
       <use x="63.623047" xlink:href="#DejaVuSans-46"/>
       <use x="95.410156" xlink:href="#DejaVuSans-48"/>
      </g>
     </g>
    </g>
    <g id="ytick_3">
     <g id="line2d_11">
      <g>
       <use style="fill:#262626;stroke:#262626;stroke-width:1.25;" x="54" xlink:href="#m001ca1ea71" y="132.37796"/>
      </g>
     </g>
     <g id="text_11">
      <!-- 0.2 -->
      <g style="fill:#262626;" transform="translate(22.808138 137.560094)scale(0.1364 -0.1364)">
       <use xlink:href="#DejaVuSans-48"/>
       <use x="63.623047" xlink:href="#DejaVuSans-46"/>
       <use x="95.410156" xlink:href="#DejaVuSans-50"/>
      </g>
     </g>
    </g>
    <g id="ytick_4">
     <g id="line2d_12">
      <g>
       <use style="fill:#262626;stroke:#262626;stroke-width:1.25;" x="54" xlink:href="#m001ca1ea71" y="84.192752"/>
      </g>
     </g>
     <g id="text_12">
      <!-- 0.4 -->
      <defs>
       <path d="M 37.796875 64.3125 
L 12.890625 25.390625 
L 37.796875 25.390625 
z
M 35.203125 72.90625 
L 47.609375 72.90625 
L 47.609375 25.390625 
L 58.015625 25.390625 
L 58.015625 17.1875 
L 47.609375 17.1875 
L 47.609375 0 
L 37.796875 0 
L 37.796875 17.1875 
L 4.890625 17.1875 
L 4.890625 26.703125 
z
" id="DejaVuSans-52"/>
      </defs>
      <g style="fill:#262626;" transform="translate(22.808138 89.374886)scale(0.1364 -0.1364)">
       <use xlink:href="#DejaVuSans-48"/>
       <use x="63.623047" xlink:href="#DejaVuSans-46"/>
       <use x="95.410156" xlink:href="#DejaVuSans-52"/>
      </g>
     </g>
    </g>
    <g id="ytick_5">
     <g id="line2d_13">
      <g>
       <use style="fill:#262626;stroke:#262626;stroke-width:1.25;" x="54" xlink:href="#m001ca1ea71" y="36.007544"/>
      </g>
     </g>
     <g id="text_13">
      <!-- 0.6 -->
      <defs>
       <path d="M 33.015625 40.375 
Q 26.375 40.375 22.484375 35.828125 
Q 18.609375 31.296875 18.609375 23.390625 
Q 18.609375 15.53125 22.484375 10.953125 
Q 26.375 6.390625 33.015625 6.390625 
Q 39.65625 6.390625 43.53125 10.953125 
Q 47.40625 15.53125 47.40625 23.390625 
Q 47.40625 31.296875 43.53125 35.828125 
Q 39.65625 40.375 33.015625 40.375 
z
M 52.59375 71.296875 
L 52.59375 62.3125 
Q 48.875 64.0625 45.09375 64.984375 
Q 41.3125 65.921875 37.59375 65.921875 
Q 27.828125 65.921875 22.671875 59.328125 
Q 17.53125 52.734375 16.796875 39.40625 
Q 19.671875 43.65625 24.015625 45.921875 
Q 28.375 48.1875 33.59375 48.1875 
Q 44.578125 48.1875 50.953125 41.515625 
Q 57.328125 34.859375 57.328125 23.390625 
Q 57.328125 12.15625 50.6875 5.359375 
Q 44.046875 -1.421875 33.015625 -1.421875 
Q 20.359375 -1.421875 13.671875 8.265625 
Q 6.984375 17.96875 6.984375 36.375 
Q 6.984375 53.65625 15.1875 63.9375 
Q 23.390625 74.21875 37.203125 74.21875 
Q 40.921875 74.21875 44.703125 73.484375 
Q 48.484375 72.75 52.59375 71.296875 
z
" id="DejaVuSans-54"/>
      </defs>
      <g style="fill:#262626;" transform="translate(22.808138 41.189678)scale(0.1364 -0.1364)">
       <use xlink:href="#DejaVuSans-48"/>
       <use x="63.623047" xlink:href="#DejaVuSans-46"/>
       <use x="95.410156" xlink:href="#DejaVuSans-54"/>
      </g>
     </g>
    </g>
   </g>
   <g id="line2d_14">
    <path clip-path="url(#p76d6a0707f)" d="M 69.218182 196.091816 
L 86.127273 198.488495 
L 103.036364 189.032535 
L 119.945455 158.344779 
L 136.854545 111.346567 
L 153.763636 65.869003 
L 170.672727 44.443636 
L 187.581818 61.356128 
L 204.490909 109.576922 
L 221.4 166.615534 
L 238.309091 212.616207 
L 255.218182 238.017707 
L 272.127273 242.116364 
L 289.036364 234.615243 
L 305.945455 221.35476 
L 322.854545 207.243876 
L 339.763636 195.345433 
L 356.672727 189.723315 
L 373.581818 191.804547 
" style="fill:none;stroke:#ff0000;stroke-linecap:round;stroke-width:2;"/>
    <defs>
     <path d="M 0 3 
C 0.795609 3 1.55874 2.683901 2.12132 2.12132 
C 2.683901 1.55874 3 0.795609 3 0 
C 3 -0.795609 2.683901 -1.55874 2.12132 -2.12132 
C 1.55874 -2.683901 0.795609 -3 0 -3 
C -0.795609 -3 -1.55874 -2.683901 -2.12132 -2.12132 
C -2.683901 -1.55874 -3 -0.795609 -3 0 
C -3 0.795609 -2.683901 1.55874 -2.12132 2.12132 
C -1.55874 2.683901 -0.795609 3 0 3 
z
" id="m566dfe170c" style="stroke:#ff0000;"/>
    </defs>
    <g clip-path="url(#p76d6a0707f)">
     <use style="fill:#ff0000;stroke:#ff0000;" x="69.218182" xlink:href="#m566dfe170c" y="196.091816"/>
     <use style="fill:#ff0000;stroke:#ff0000;" x="86.127273" xlink:href="#m566dfe170c" y="198.488495"/>
     <use style="fill:#ff0000;stroke:#ff0000;" x="103.036364" xlink:href="#m566dfe170c" y="189.032535"/>
     <use style="fill:#ff0000;stroke:#ff0000;" x="119.945455" xlink:href="#m566dfe170c" y="158.344779"/>
     <use style="fill:#ff0000;stroke:#ff0000;" x="136.854545" xlink:href="#m566dfe170c" y="111.346567"/>
     <use style="fill:#ff0000;stroke:#ff0000;" x="153.763636" xlink:href="#m566dfe170c" y="65.869003"/>
     <use style="fill:#ff0000;stroke:#ff0000;" x="170.672727" xlink:href="#m566dfe170c" y="44.443636"/>
     <use style="fill:#ff0000;stroke:#ff0000;" x="187.581818" xlink:href="#m566dfe170c" y="61.356128"/>
     <use style="fill:#ff0000;stroke:#ff0000;" x="204.490909" xlink:href="#m566dfe170c" y="109.576922"/>
     <use style="fill:#ff0000;stroke:#ff0000;" x="221.4" xlink:href="#m566dfe170c" y="166.615534"/>
     <use style="fill:#ff0000;stroke:#ff0000;" x="238.309091" xlink:href="#m566dfe170c" y="212.616207"/>
     <use style="fill:#ff0000;stroke:#ff0000;" x="255.218182" xlink:href="#m566dfe170c" y="238.017707"/>
     <use style="fill:#ff0000;stroke:#ff0000;" x="272.127273" xlink:href="#m566dfe170c" y="242.116364"/>
     <use style="fill:#ff0000;stroke:#ff0000;" x="289.036364" xlink:href="#m566dfe170c" y="234.615243"/>
     <use style="fill:#ff0000;stroke:#ff0000;" x="305.945455" xlink:href="#m566dfe170c" y="221.35476"/>
     <use style="fill:#ff0000;stroke:#ff0000;" x="322.854545" xlink:href="#m566dfe170c" y="207.243876"/>
     <use style="fill:#ff0000;stroke:#ff0000;" x="339.763636" xlink:href="#m566dfe170c" y="195.345433"/>
     <use style="fill:#ff0000;stroke:#ff0000;" x="356.672727" xlink:href="#m566dfe170c" y="189.723315"/>
     <use style="fill:#ff0000;stroke:#ff0000;" x="373.581818" xlink:href="#m566dfe170c" y="191.804547"/>
    </g>
   </g>
   <g id="line2d_15">
    <path clip-path="url(#p76d6a0707f)" d="M 69.218182 194.465927 
L 86.127273 197.652509 
L 103.036364 193.142623 
L 119.945455 172.61197 
L 136.854545 144.606936 
L 153.763636 128.586933 
L 170.672727 136.827159 
L 187.581818 164.747717 
L 204.490909 196.405395 
L 221.4 217.407777 
L 238.309091 223.075171 
L 255.218182 216.650321 
L 272.127273 205.567573 
L 289.036364 193.26243 
L 305.945455 185.145525 
L 322.854545 179.783098 
L 339.763636 180.647316 
L 356.672727 183.088343 
L 373.581818 186.916419 
" style="fill:none;stroke:#ff0000;stroke-dasharray:6,6;stroke-dashoffset:0;stroke-width:2;"/>
    <g clip-path="url(#p76d6a0707f)">
     <use style="fill:#ff0000;stroke:#ff0000;" x="69.218182" xlink:href="#m566dfe170c" y="194.465927"/>
     <use style="fill:#ff0000;stroke:#ff0000;" x="86.127273" xlink:href="#m566dfe170c" y="197.652509"/>
     <use style="fill:#ff0000;stroke:#ff0000;" x="103.036364" xlink:href="#m566dfe170c" y="193.142623"/>
     <use style="fill:#ff0000;stroke:#ff0000;" x="119.945455" xlink:href="#m566dfe170c" y="172.61197"/>
     <use style="fill:#ff0000;stroke:#ff0000;" x="136.854545" xlink:href="#m566dfe170c" y="144.606936"/>
     <use style="fill:#ff0000;stroke:#ff0000;" x="153.763636" xlink:href="#m566dfe170c" y="128.586933"/>
     <use style="fill:#ff0000;stroke:#ff0000;" x="170.672727" xlink:href="#m566dfe170c" y="136.827159"/>
     <use style="fill:#ff0000;stroke:#ff0000;" x="187.581818" xlink:href="#m566dfe170c" y="164.747717"/>
     <use style="fill:#ff0000;stroke:#ff0000;" x="204.490909" xlink:href="#m566dfe170c" y="196.405395"/>
     <use style="fill:#ff0000;stroke:#ff0000;" x="221.4" xlink:href="#m566dfe170c" y="217.407777"/>
     <use style="fill:#ff0000;stroke:#ff0000;" x="238.309091" xlink:href="#m566dfe170c" y="223.075171"/>
     <use style="fill:#ff0000;stroke:#ff0000;" x="255.218182" xlink:href="#m566dfe170c" y="216.650321"/>
     <use style="fill:#ff0000;stroke:#ff0000;" x="272.127273" xlink:href="#m566dfe170c" y="205.567573"/>
     <use style="fill:#ff0000;stroke:#ff0000;" x="289.036364" xlink:href="#m566dfe170c" y="193.26243"/>
     <use style="fill:#ff0000;stroke:#ff0000;" x="305.945455" xlink:href="#m566dfe170c" y="185.145525"/>
     <use style="fill:#ff0000;stroke:#ff0000;" x="322.854545" xlink:href="#m566dfe170c" y="179.783098"/>
     <use style="fill:#ff0000;stroke:#ff0000;" x="339.763636" xlink:href="#m566dfe170c" y="180.647316"/>
     <use style="fill:#ff0000;stroke:#ff0000;" x="356.672727" xlink:href="#m566dfe170c" y="183.088343"/>
     <use style="fill:#ff0000;stroke:#ff0000;" x="373.581818" xlink:href="#m566dfe170c" y="186.916419"/>
    </g>
   </g>
   <g id="line2d_16">
    <path clip-path="url(#p76d6a0707f)" d="M 69.218182 191.657472 
L 86.127273 195.084415 
L 103.036364 189.602667 
L 119.945455 166.686219 
L 136.854545 131.866548 
L 153.763636 104.46436 
L 170.672727 103.145295 
L 187.581818 131.186983 
L 204.490909 171.724827 
L 221.4 202.91331 
L 238.309091 215.088387 
L 255.218182 212.762101 
L 272.127273 203.068239 
L 289.036364 193.263381 
L 305.945455 185.623416 
L 322.854545 181.800109 
L 339.763636 181.218194 
L 356.672727 184.3423 
L 373.581818 189.200951 
" style="fill:none;stroke:#008000;stroke-linecap:round;stroke-width:2;"/>
    <defs>
     <path d="M -3 3 
L 3 3 
L 3 -3 
L -3 -3 
z
" id="m40dfc54860" style="stroke:#008000;stroke-linejoin:miter;"/>
    </defs>
    <g clip-path="url(#p76d6a0707f)">
     <use style="fill:#008000;stroke:#008000;stroke-linejoin:miter;" x="69.218182" xlink:href="#m40dfc54860" y="191.657472"/>
     <use style="fill:#008000;stroke:#008000;stroke-linejoin:miter;" x="86.127273" xlink:href="#m40dfc54860" y="195.084415"/>
     <use style="fill:#008000;stroke:#008000;stroke-linejoin:miter;" x="103.036364" xlink:href="#m40dfc54860" y="189.602667"/>
     <use style="fill:#008000;stroke:#008000;stroke-linejoin:miter;" x="119.945455" xlink:href="#m40dfc54860" y="166.686219"/>
     <use style="fill:#008000;stroke:#008000;stroke-linejoin:miter;" x="136.854545" xlink:href="#m40dfc54860" y="131.866548"/>
     <use style="fill:#008000;stroke:#008000;stroke-linejoin:miter;" x="153.763636" xlink:href="#m40dfc54860" y="104.46436"/>
     <use style="fill:#008000;stroke:#008000;stroke-linejoin:miter;" x="170.672727" xlink:href="#m40dfc54860" y="103.145295"/>
     <use style="fill:#008000;stroke:#008000;stroke-linejoin:miter;" x="187.581818" xlink:href="#m40dfc54860" y="131.186983"/>
     <use style="fill:#008000;stroke:#008000;stroke-linejoin:miter;" x="204.490909" xlink:href="#m40dfc54860" y="171.724827"/>
     <use style="fill:#008000;stroke:#008000;stroke-linejoin:miter;" x="221.4" xlink:href="#m40dfc54860" y="202.91331"/>
     <use style="fill:#008000;stroke:#008000;stroke-linejoin:miter;" x="238.309091" xlink:href="#m40dfc54860" y="215.088387"/>
     <use style="fill:#008000;stroke:#008000;stroke-linejoin:miter;" x="255.218182" xlink:href="#m40dfc54860" y="212.762101"/>
     <use style="fill:#008000;stroke:#008000;stroke-linejoin:miter;" x="272.127273" xlink:href="#m40dfc54860" y="203.068239"/>
     <use style="fill:#008000;stroke:#008000;stroke-linejoin:miter;" x="289.036364" xlink:href="#m40dfc54860" y="193.263381"/>
     <use style="fill:#008000;stroke:#008000;stroke-linejoin:miter;" x="305.945455" xlink:href="#m40dfc54860" y="185.623416"/>
     <use style="fill:#008000;stroke:#008000;stroke-linejoin:miter;" x="322.854545" xlink:href="#m40dfc54860" y="181.800109"/>
     <use style="fill:#008000;stroke:#008000;stroke-linejoin:miter;" x="339.763636" xlink:href="#m40dfc54860" y="181.218194"/>
     <use style="fill:#008000;stroke:#008000;stroke-linejoin:miter;" x="356.672727" xlink:href="#m40dfc54860" y="184.3423"/>
     <use style="fill:#008000;stroke:#008000;stroke-linejoin:miter;" x="373.581818" xlink:href="#m40dfc54860" y="189.200951"/>
    </g>
   </g>
   <g id="line2d_17">
    <path clip-path="url(#p76d6a0707f)" d="M 69.218182 190.425981 
L 86.127273 191.54469 
L 103.036364 187.084045 
L 119.945455 171.468221 
L 136.854545 153.448122 
L 153.763636 149.581915 
L 170.672727 166.38914 
L 187.581818 193.531058 
L 204.490909 213.343329 
L 221.4 215.749932 
L 238.309091 204.170055 
L 255.218182 188.458228 
L 272.127273 177.610559 
L 289.036364 173.72601 
L 305.945455 175.686405 
L 322.854545 177.528907 
L 339.763636 179.459947 
L 356.672727 180.668871 
L 373.581818 180.932674 
" style="fill:none;stroke:#008000;stroke-dasharray:6,6;stroke-dashoffset:0;stroke-width:2;"/>
    <g clip-path="url(#p76d6a0707f)">
     <use style="fill:#008000;stroke:#008000;stroke-linejoin:miter;" x="69.218182" xlink:href="#m40dfc54860" y="190.425981"/>
     <use style="fill:#008000;stroke:#008000;stroke-linejoin:miter;" x="86.127273" xlink:href="#m40dfc54860" y="191.54469"/>
     <use style="fill:#008000;stroke:#008000;stroke-linejoin:miter;" x="103.036364" xlink:href="#m40dfc54860" y="187.084045"/>
     <use style="fill:#008000;stroke:#008000;stroke-linejoin:miter;" x="119.945455" xlink:href="#m40dfc54860" y="171.468221"/>
     <use style="fill:#008000;stroke:#008000;stroke-linejoin:miter;" x="136.854545" xlink:href="#m40dfc54860" y="153.448122"/>
     <use style="fill:#008000;stroke:#008000;stroke-linejoin:miter;" x="153.763636" xlink:href="#m40dfc54860" y="149.581915"/>
     <use style="fill:#008000;stroke:#008000;stroke-linejoin:miter;" x="170.672727" xlink:href="#m40dfc54860" y="166.38914"/>
     <use style="fill:#008000;stroke:#008000;stroke-linejoin:miter;" x="187.581818" xlink:href="#m40dfc54860" y="193.531058"/>
     <use style="fill:#008000;stroke:#008000;stroke-linejoin:miter;" x="204.490909" xlink:href="#m40dfc54860" y="213.343329"/>
     <use style="fill:#008000;stroke:#008000;stroke-linejoin:miter;" x="221.4" xlink:href="#m40dfc54860" y="215.749932"/>
     <use style="fill:#008000;stroke:#008000;stroke-linejoin:miter;" x="238.309091" xlink:href="#m40dfc54860" y="204.170055"/>
     <use style="fill:#008000;stroke:#008000;stroke-linejoin:miter;" x="255.218182" xlink:href="#m40dfc54860" y="188.458228"/>
     <use style="fill:#008000;stroke:#008000;stroke-linejoin:miter;" x="272.127273" xlink:href="#m40dfc54860" y="177.610559"/>
     <use style="fill:#008000;stroke:#008000;stroke-linejoin:miter;" x="289.036364" xlink:href="#m40dfc54860" y="173.72601"/>
     <use style="fill:#008000;stroke:#008000;stroke-linejoin:miter;" x="305.945455" xlink:href="#m40dfc54860" y="175.686405"/>
     <use style="fill:#008000;stroke:#008000;stroke-linejoin:miter;" x="322.854545" xlink:href="#m40dfc54860" y="177.528907"/>
     <use style="fill:#008000;stroke:#008000;stroke-linejoin:miter;" x="339.763636" xlink:href="#m40dfc54860" y="179.459947"/>
     <use style="fill:#008000;stroke:#008000;stroke-linejoin:miter;" x="356.672727" xlink:href="#m40dfc54860" y="180.668871"/>
     <use style="fill:#008000;stroke:#008000;stroke-linejoin:miter;" x="373.581818" xlink:href="#m40dfc54860" y="180.932674"/>
    </g>
   </g>
   <g id="patch_3">
    <path d="M 54 252 
L 54 34.56 
" style="fill:none;stroke:#262626;stroke-linecap:square;stroke-linejoin:miter;stroke-width:1.25;"/>
   </g>
   <g id="patch_4">
    <path d="M 54 252 
L 388.8 252 
" style="fill:none;stroke:#262626;stroke-linecap:square;stroke-linejoin:miter;stroke-width:1.25;"/>
   </g>
   <g id="legend_1">
    <g id="patch_5">
     <path d="M 240.181544 125.55585 
L 379.252 125.55585 
Q 381.98 125.55585 381.98 122.82785 
L 381.98 44.108 
Q 381.98 41.38 379.252 41.38 
L 240.181544 41.38 
Q 237.453544 41.38 237.453544 44.108 
L 237.453544 122.82785 
Q 237.453544 125.55585 240.181544 125.55585 
z
" style="fill:#ffffff;opacity:0.8;stroke:#cccccc;stroke-linejoin:miter;"/>
    </g>
    <g id="line2d_18">
     <path d="M 242.909544 52.426269 
L 270.189544 52.426269 
" style="fill:none;stroke:#ff0000;stroke-linecap:round;stroke-width:2;"/>
    </g>
    <g id="line2d_19">
     <g>
      <use style="fill:#ff0000;stroke:#ff0000;" x="256.549544" xlink:href="#m566dfe170c" y="52.426269"/>
     </g>
    </g>
    <g id="text_14">
     <!-- stim - parietal -->
     <defs>
      <path d="M 44.28125 53.078125 
L 44.28125 44.578125 
Q 40.484375 46.53125 36.375 47.5 
Q 32.28125 48.484375 27.875 48.484375 
Q 21.1875 48.484375 17.84375 46.4375 
Q 14.5 44.390625 14.5 40.28125 
Q 14.5 37.15625 16.890625 35.375 
Q 19.28125 33.59375 26.515625 31.984375 
L 29.59375 31.296875 
Q 39.15625 29.25 43.1875 25.515625 
Q 47.21875 21.78125 47.21875 15.09375 
Q 47.21875 7.46875 41.1875 3.015625 
Q 35.15625 -1.421875 24.609375 -1.421875 
Q 20.21875 -1.421875 15.453125 -0.5625 
Q 10.6875 0.296875 5.421875 2 
L 5.421875 11.28125 
Q 10.40625 8.6875 15.234375 7.390625 
Q 20.0625 6.109375 24.8125 6.109375 
Q 31.15625 6.109375 34.5625 8.28125 
Q 37.984375 10.453125 37.984375 14.40625 
Q 37.984375 18.0625 35.515625 20.015625 
Q 33.0625 21.96875 24.703125 23.78125 
L 21.578125 24.515625 
Q 13.234375 26.265625 9.515625 29.90625 
Q 5.8125 33.546875 5.8125 39.890625 
Q 5.8125 47.609375 11.28125 51.796875 
Q 16.75 56 26.8125 56 
Q 31.78125 56 36.171875 55.265625 
Q 40.578125 54.546875 44.28125 53.078125 
z
" id="DejaVuSans-115"/>
      <path d="M 18.3125 70.21875 
L 18.3125 54.6875 
L 36.8125 54.6875 
L 36.8125 47.703125 
L 18.3125 47.703125 
L 18.3125 18.015625 
Q 18.3125 11.328125 20.140625 9.421875 
Q 21.96875 7.515625 27.59375 7.515625 
L 36.8125 7.515625 
L 36.8125 0 
L 27.59375 0 
Q 17.1875 0 13.234375 3.875 
Q 9.28125 7.765625 9.28125 18.015625 
L 9.28125 47.703125 
L 2.6875 47.703125 
L 2.6875 54.6875 
L 9.28125 54.6875 
L 9.28125 70.21875 
z
" id="DejaVuSans-116"/>
      <path d="M 9.421875 54.6875 
L 18.40625 54.6875 
L 18.40625 0 
L 9.421875 0 
z
M 9.421875 75.984375 
L 18.40625 75.984375 
L 18.40625 64.59375 
L 9.421875 64.59375 
z
" id="DejaVuSans-105"/>
      <path d="M 52 44.1875 
Q 55.375 50.25 60.0625 53.125 
Q 64.75 56 71.09375 56 
Q 79.640625 56 84.28125 50.015625 
Q 88.921875 44.046875 88.921875 33.015625 
L 88.921875 0 
L 79.890625 0 
L 79.890625 32.71875 
Q 79.890625 40.578125 77.09375 44.375 
Q 74.3125 48.1875 68.609375 48.1875 
Q 61.625 48.1875 57.5625 43.546875 
Q 53.515625 38.921875 53.515625 30.90625 
L 53.515625 0 
L 44.484375 0 
L 44.484375 32.71875 
Q 44.484375 40.625 41.703125 44.40625 
Q 38.921875 48.1875 33.109375 48.1875 
Q 26.21875 48.1875 22.15625 43.53125 
Q 18.109375 38.875 18.109375 30.90625 
L 18.109375 0 
L 9.078125 0 
L 9.078125 54.6875 
L 18.109375 54.6875 
L 18.109375 46.1875 
Q 21.1875 51.21875 25.484375 53.609375 
Q 29.78125 56 35.6875 56 
Q 41.65625 56 45.828125 52.96875 
Q 50 49.953125 52 44.1875 
z
" id="DejaVuSans-109"/>
      <path id="DejaVuSans-32"/>
      <path d="M 4.890625 31.390625 
L 31.203125 31.390625 
L 31.203125 23.390625 
L 4.890625 23.390625 
z
" id="DejaVuSans-45"/>
      <path d="M 18.109375 8.203125 
L 18.109375 -20.796875 
L 9.078125 -20.796875 
L 9.078125 54.6875 
L 18.109375 54.6875 
L 18.109375 46.390625 
Q 20.953125 51.265625 25.265625 53.625 
Q 29.59375 56 35.59375 56 
Q 45.5625 56 51.78125 48.09375 
Q 58.015625 40.1875 58.015625 27.296875 
Q 58.015625 14.40625 51.78125 6.484375 
Q 45.5625 -1.421875 35.59375 -1.421875 
Q 29.59375 -1.421875 25.265625 0.953125 
Q 20.953125 3.328125 18.109375 8.203125 
z
M 48.6875 27.296875 
Q 48.6875 37.203125 44.609375 42.84375 
Q 40.53125 48.484375 33.40625 48.484375 
Q 26.265625 48.484375 22.1875 42.84375 
Q 18.109375 37.203125 18.109375 27.296875 
Q 18.109375 17.390625 22.1875 11.75 
Q 26.265625 6.109375 33.40625 6.109375 
Q 40.53125 6.109375 44.609375 11.75 
Q 48.6875 17.390625 48.6875 27.296875 
z
" id="DejaVuSans-112"/>
      <path d="M 34.28125 27.484375 
Q 23.390625 27.484375 19.1875 25 
Q 14.984375 22.515625 14.984375 16.5 
Q 14.984375 11.71875 18.140625 8.90625 
Q 21.296875 6.109375 26.703125 6.109375 
Q 34.1875 6.109375 38.703125 11.40625 
Q 43.21875 16.703125 43.21875 25.484375 
L 43.21875 27.484375 
z
M 52.203125 31.203125 
L 52.203125 0 
L 43.21875 0 
L 43.21875 8.296875 
Q 40.140625 3.328125 35.546875 0.953125 
Q 30.953125 -1.421875 24.3125 -1.421875 
Q 15.921875 -1.421875 10.953125 3.296875 
Q 6 8.015625 6 15.921875 
Q 6 25.140625 12.171875 29.828125 
Q 18.359375 34.515625 30.609375 34.515625 
L 43.21875 34.515625 
L 43.21875 35.40625 
Q 43.21875 41.609375 39.140625 45 
Q 35.0625 48.390625 27.6875 48.390625 
Q 23 48.390625 18.546875 47.265625 
Q 14.109375 46.140625 10.015625 43.890625 
L 10.015625 52.203125 
Q 14.9375 54.109375 19.578125 55.046875 
Q 24.21875 56 28.609375 56 
Q 40.484375 56 46.34375 49.84375 
Q 52.203125 43.703125 52.203125 31.203125 
z
" id="DejaVuSans-97"/>
      <path d="M 41.109375 46.296875 
Q 39.59375 47.171875 37.8125 47.578125 
Q 36.03125 48 33.890625 48 
Q 26.265625 48 22.1875 43.046875 
Q 18.109375 38.09375 18.109375 28.8125 
L 18.109375 0 
L 9.078125 0 
L 9.078125 54.6875 
L 18.109375 54.6875 
L 18.109375 46.1875 
Q 20.953125 51.171875 25.484375 53.578125 
Q 30.03125 56 36.53125 56 
Q 37.453125 56 38.578125 55.875 
Q 39.703125 55.765625 41.0625 55.515625 
z
" id="DejaVuSans-114"/>
      <path d="M 56.203125 29.59375 
L 56.203125 25.203125 
L 14.890625 25.203125 
Q 15.484375 15.921875 20.484375 11.0625 
Q 25.484375 6.203125 34.421875 6.203125 
Q 39.59375 6.203125 44.453125 7.46875 
Q 49.3125 8.734375 54.109375 11.28125 
L 54.109375 2.78125 
Q 49.265625 0.734375 44.1875 -0.34375 
Q 39.109375 -1.421875 33.890625 -1.421875 
Q 20.796875 -1.421875 13.15625 6.1875 
Q 5.515625 13.8125 5.515625 26.8125 
Q 5.515625 40.234375 12.765625 48.109375 
Q 20.015625 56 32.328125 56 
Q 43.359375 56 49.78125 48.890625 
Q 56.203125 41.796875 56.203125 29.59375 
z
M 47.21875 32.234375 
Q 47.125 39.59375 43.09375 43.984375 
Q 39.0625 48.390625 32.421875 48.390625 
Q 24.90625 48.390625 20.390625 44.140625 
Q 15.875 39.890625 15.1875 32.171875 
z
" id="DejaVuSans-101"/>
      <path d="M 9.421875 75.984375 
L 18.40625 75.984375 
L 18.40625 0 
L 9.421875 0 
z
" id="DejaVuSans-108"/>
     </defs>
     <g style="fill:#262626;" transform="translate(281.101544 57.200269)scale(0.1364 -0.1364)">
      <use xlink:href="#DejaVuSans-115"/>
      <use x="52.099609" xlink:href="#DejaVuSans-116"/>
      <use x="91.308594" xlink:href="#DejaVuSans-105"/>
      <use x="119.091797" xlink:href="#DejaVuSans-109"/>
      <use x="216.503906" xlink:href="#DejaVuSans-32"/>
      <use x="248.291016" xlink:href="#DejaVuSans-45"/>
      <use x="284.375" xlink:href="#DejaVuSans-32"/>
      <use x="316.162109" xlink:href="#DejaVuSans-112"/>
      <use x="379.638672" xlink:href="#DejaVuSans-97"/>
      <use x="440.917969" xlink:href="#DejaVuSans-114"/>
      <use x="482.03125" xlink:href="#DejaVuSans-105"/>
      <use x="509.814453" xlink:href="#DejaVuSans-101"/>
      <use x="571.337891" xlink:href="#DejaVuSans-116"/>
      <use x="610.546875" xlink:href="#DejaVuSans-97"/>
      <use x="671.826172" xlink:href="#DejaVuSans-108"/>
     </g>
    </g>
    <g id="line2d_20">
     <path d="M 242.909544 72.447231 
L 270.189544 72.447231 
" style="fill:none;stroke:#ff0000;stroke-dasharray:6,6;stroke-dashoffset:0;stroke-width:2;"/>
    </g>
    <g id="line2d_21">
     <g>
      <use style="fill:#ff0000;stroke:#ff0000;" x="256.549544" xlink:href="#m566dfe170c" y="72.447231"/>
     </g>
    </g>
    <g id="text_15">
     <!-- cue - parietal -->
     <defs>
      <path d="M 48.78125 52.59375 
L 48.78125 44.1875 
Q 44.96875 46.296875 41.140625 47.34375 
Q 37.3125 48.390625 33.40625 48.390625 
Q 24.65625 48.390625 19.8125 42.84375 
Q 14.984375 37.3125 14.984375 27.296875 
Q 14.984375 17.28125 19.8125 11.734375 
Q 24.65625 6.203125 33.40625 6.203125 
Q 37.3125 6.203125 41.140625 7.25 
Q 44.96875 8.296875 48.78125 10.40625 
L 48.78125 2.09375 
Q 45.015625 0.34375 40.984375 -0.53125 
Q 36.96875 -1.421875 32.421875 -1.421875 
Q 20.0625 -1.421875 12.78125 6.34375 
Q 5.515625 14.109375 5.515625 27.296875 
Q 5.515625 40.671875 12.859375 48.328125 
Q 20.21875 56 33.015625 56 
Q 37.15625 56 41.109375 55.140625 
Q 45.0625 54.296875 48.78125 52.59375 
z
" id="DejaVuSans-99"/>
      <path d="M 8.5 21.578125 
L 8.5 54.6875 
L 17.484375 54.6875 
L 17.484375 21.921875 
Q 17.484375 14.15625 20.5 10.265625 
Q 23.53125 6.390625 29.59375 6.390625 
Q 36.859375 6.390625 41.078125 11.03125 
Q 45.3125 15.671875 45.3125 23.6875 
L 45.3125 54.6875 
L 54.296875 54.6875 
L 54.296875 0 
L 45.3125 0 
L 45.3125 8.40625 
Q 42.046875 3.421875 37.71875 1 
Q 33.40625 -1.421875 27.6875 -1.421875 
Q 18.265625 -1.421875 13.375 4.4375 
Q 8.5 10.296875 8.5 21.578125 
z
M 31.109375 56 
z
" id="DejaVuSans-117"/>
     </defs>
     <g style="fill:#262626;" transform="translate(281.101544 77.221231)scale(0.1364 -0.1364)">
      <use xlink:href="#DejaVuSans-99"/>
      <use x="54.980469" xlink:href="#DejaVuSans-117"/>
      <use x="118.359375" xlink:href="#DejaVuSans-101"/>
      <use x="179.882812" xlink:href="#DejaVuSans-32"/>
      <use x="211.669922" xlink:href="#DejaVuSans-45"/>
      <use x="247.753906" xlink:href="#DejaVuSans-32"/>
      <use x="279.541016" xlink:href="#DejaVuSans-112"/>
      <use x="343.017578" xlink:href="#DejaVuSans-97"/>
      <use x="404.296875" xlink:href="#DejaVuSans-114"/>
      <use x="445.410156" xlink:href="#DejaVuSans-105"/>
      <use x="473.193359" xlink:href="#DejaVuSans-101"/>
      <use x="534.716797" xlink:href="#DejaVuSans-116"/>
      <use x="573.925781" xlink:href="#DejaVuSans-97"/>
      <use x="635.205078" xlink:href="#DejaVuSans-108"/>
     </g>
    </g>
    <g id="line2d_22">
     <path d="M 242.909544 92.468194 
L 270.189544 92.468194 
" style="fill:none;stroke:#008000;stroke-linecap:round;stroke-width:2;"/>
    </g>
    <g id="line2d_23">
     <g>
      <use style="fill:#008000;stroke:#008000;stroke-linejoin:miter;" x="256.549544" xlink:href="#m40dfc54860" y="92.468194"/>
     </g>
    </g>
    <g id="text_16">
     <!-- stim - frontal -->
     <defs>
      <path d="M 37.109375 75.984375 
L 37.109375 68.5 
L 28.515625 68.5 
Q 23.6875 68.5 21.796875 66.546875 
Q 19.921875 64.59375 19.921875 59.515625 
L 19.921875 54.6875 
L 34.71875 54.6875 
L 34.71875 47.703125 
L 19.921875 47.703125 
L 19.921875 0 
L 10.890625 0 
L 10.890625 47.703125 
L 2.296875 47.703125 
L 2.296875 54.6875 
L 10.890625 54.6875 
L 10.890625 58.5 
Q 10.890625 67.625 15.140625 71.796875 
Q 19.390625 75.984375 28.609375 75.984375 
z
" id="DejaVuSans-102"/>
      <path d="M 30.609375 48.390625 
Q 23.390625 48.390625 19.1875 42.75 
Q 14.984375 37.109375 14.984375 27.296875 
Q 14.984375 17.484375 19.15625 11.84375 
Q 23.34375 6.203125 30.609375 6.203125 
Q 37.796875 6.203125 41.984375 11.859375 
Q 46.1875 17.53125 46.1875 27.296875 
Q 46.1875 37.015625 41.984375 42.703125 
Q 37.796875 48.390625 30.609375 48.390625 
z
M 30.609375 56 
Q 42.328125 56 49.015625 48.375 
Q 55.71875 40.765625 55.71875 27.296875 
Q 55.71875 13.875 49.015625 6.21875 
Q 42.328125 -1.421875 30.609375 -1.421875 
Q 18.84375 -1.421875 12.171875 6.21875 
Q 5.515625 13.875 5.515625 27.296875 
Q 5.515625 40.765625 12.171875 48.375 
Q 18.84375 56 30.609375 56 
z
" id="DejaVuSans-111"/>
      <path d="M 54.890625 33.015625 
L 54.890625 0 
L 45.90625 0 
L 45.90625 32.71875 
Q 45.90625 40.484375 42.875 44.328125 
Q 39.84375 48.1875 33.796875 48.1875 
Q 26.515625 48.1875 22.3125 43.546875 
Q 18.109375 38.921875 18.109375 30.90625 
L 18.109375 0 
L 9.078125 0 
L 9.078125 54.6875 
L 18.109375 54.6875 
L 18.109375 46.1875 
Q 21.34375 51.125 25.703125 53.5625 
Q 30.078125 56 35.796875 56 
Q 45.21875 56 50.046875 50.171875 
Q 54.890625 44.34375 54.890625 33.015625 
z
" id="DejaVuSans-110"/>
     </defs>
     <g style="fill:#262626;" transform="translate(281.101544 97.242194)scale(0.1364 -0.1364)">
      <use xlink:href="#DejaVuSans-115"/>
      <use x="52.099609" xlink:href="#DejaVuSans-116"/>
      <use x="91.308594" xlink:href="#DejaVuSans-105"/>
      <use x="119.091797" xlink:href="#DejaVuSans-109"/>
      <use x="216.503906" xlink:href="#DejaVuSans-32"/>
      <use x="248.291016" xlink:href="#DejaVuSans-45"/>
      <use x="284.375" xlink:href="#DejaVuSans-32"/>
      <use x="316.162109" xlink:href="#DejaVuSans-102"/>
      <use x="351.367188" xlink:href="#DejaVuSans-114"/>
      <use x="392.449219" xlink:href="#DejaVuSans-111"/>
      <use x="453.630859" xlink:href="#DejaVuSans-110"/>
      <use x="517.009766" xlink:href="#DejaVuSans-116"/>
      <use x="556.21875" xlink:href="#DejaVuSans-97"/>
      <use x="617.498047" xlink:href="#DejaVuSans-108"/>
     </g>
    </g>
    <g id="line2d_24">
     <path d="M 242.909544 112.489156 
L 270.189544 112.489156 
" style="fill:none;stroke:#008000;stroke-dasharray:6,6;stroke-dashoffset:0;stroke-width:2;"/>
    </g>
    <g id="line2d_25">
     <g>
      <use style="fill:#008000;stroke:#008000;stroke-linejoin:miter;" x="256.549544" xlink:href="#m40dfc54860" y="112.489156"/>
     </g>
    </g>
    <g id="text_17">
     <!-- cue - frontal -->
     <g style="fill:#262626;" transform="translate(281.101544 117.263156)scale(0.1364 -0.1364)">
      <use xlink:href="#DejaVuSans-99"/>
      <use x="54.980469" xlink:href="#DejaVuSans-117"/>
      <use x="118.359375" xlink:href="#DejaVuSans-101"/>
      <use x="179.882812" xlink:href="#DejaVuSans-32"/>
      <use x="211.669922" xlink:href="#DejaVuSans-45"/>
      <use x="247.753906" xlink:href="#DejaVuSans-32"/>
      <use x="279.541016" xlink:href="#DejaVuSans-102"/>
      <use x="314.746094" xlink:href="#DejaVuSans-114"/>
      <use x="355.828125" xlink:href="#DejaVuSans-111"/>
      <use x="417.009766" xlink:href="#DejaVuSans-110"/>
      <use x="480.388672" xlink:href="#DejaVuSans-116"/>
      <use x="519.597656" xlink:href="#DejaVuSans-97"/>
      <use x="580.876953" xlink:href="#DejaVuSans-108"/>
     </g>
    </g>
   </g>
  </g>
 </g>
 <defs>
  <clipPath id="p76d6a0707f">
   <rect height="217.44" width="334.8" x="54" y="34.56"/>
  </clipPath>
 </defs>
</svg>
