<?xml version="1.0" encoding="utf-8" standalone="no"?>
<!DOCTYPE svg PUBLIC "-//W3C//DTD SVG 1.1//EN"
  "http://www.w3.org/Graphics/SVG/1.1/DTD/svg11.dtd">
<!-- Created with matplotlib (https://matplotlib.org/) -->
<svg height="360pt" version="1.1" viewBox="0 0 432 360" width="432pt" xmlns="http://www.w3.org/2000/svg" xmlns:xlink="http://www.w3.org/1999/xlink">
 <defs>
  <style type="text/css">
*{stroke-linecap:butt;stroke-linejoin:round;white-space:pre;}
  </style>
 </defs>
 <g id="figure_1">
  <g id="patch_1">
   <path d="M 0 360 
L 432 360 
L 432 0 
L 0 0 
z
" style="fill:#ffffff;"/>
  </g>
  <g id="axes_1">
   <g id="patch_2">
    <path d="M 54 315 
L 388.8 315 
L 388.8 43.2 
L 54 43.2 
z
" style="fill:#ffffff;"/>
   </g>
   <g id="matplotlib.axis_1">
    <g id="xtick_1">
     <g id="line2d_1">
      <defs>
       <path d="M 0 0 
L 0 6 
" id="ma61923b746" style="stroke:#262626;stroke-width:1.25;"/>
      </defs>
      <g>
       <use style="fill:#262626;stroke:#262626;stroke-width:1.25;" x="69.218182" xlink:href="#ma61923b746" y="315"/>
      </g>
     </g>
     <g id="text_1">
      <!-- 0.0 -->
      <defs>
       <path d="M 31.78125 66.40625 
Q 24.171875 66.40625 20.328125 58.90625 
Q 16.5 51.421875 16.5 36.375 
Q 16.5 21.390625 20.328125 13.890625 
Q 24.171875 6.390625 31.78125 6.390625 
Q 39.453125 6.390625 43.28125 13.890625 
Q 47.125 21.390625 47.125 36.375 
Q 47.125 51.421875 43.28125 58.90625 
Q 39.453125 66.40625 31.78125 66.40625 
z
M 31.78125 74.21875 
Q 44.046875 74.21875 50.515625 64.515625 
Q 56.984375 54.828125 56.984375 36.375 
Q 56.984375 17.96875 50.515625 8.265625 
Q 44.046875 -1.421875 31.78125 -1.421875 
Q 19.53125 -1.421875 13.0625 8.265625 
Q 6.59375 17.96875 6.59375 36.375 
Q 6.59375 54.828125 13.0625 64.515625 
Q 19.53125 74.21875 31.78125 74.21875 
z
" id="DejaVuSans-48"/>
       <path d="M 10.6875 12.40625 
L 21 12.40625 
L 21 0 
L 10.6875 0 
z
" id="DejaVuSans-46"/>
      </defs>
      <g style="fill:#262626;" transform="translate(58.372251 334.864269)scale(0.1364 -0.1364)">
       <use xlink:href="#DejaVuSans-48"/>
       <use x="63.623047" xlink:href="#DejaVuSans-46"/>
       <use x="95.410156" xlink:href="#DejaVuSans-48"/>
      </g>
     </g>
    </g>
    <g id="xtick_2">
     <g id="line2d_2">
      <g>
       <use style="fill:#262626;stroke:#262626;stroke-width:1.25;" x="111.490909" xlink:href="#ma61923b746" y="315"/>
      </g>
     </g>
     <g id="text_2">
      <!-- 2.5 -->
      <defs>
       <path d="M 19.1875 8.296875 
L 53.609375 8.296875 
L 53.609375 0 
L 7.328125 0 
L 7.328125 8.296875 
Q 12.9375 14.109375 22.625 23.890625 
Q 32.328125 33.6875 34.8125 36.53125 
Q 39.546875 41.84375 41.421875 45.53125 
Q 43.3125 49.21875 43.3125 52.78125 
Q 43.3125 58.59375 39.234375 62.25 
Q 35.15625 65.921875 28.609375 65.921875 
Q 23.96875 65.921875 18.8125 64.3125 
Q 13.671875 62.703125 7.8125 59.421875 
L 7.8125 69.390625 
Q 13.765625 71.78125 18.9375 73 
Q 24.125 74.21875 28.421875 74.21875 
Q 39.75 74.21875 46.484375 68.546875 
Q 53.21875 62.890625 53.21875 53.421875 
Q 53.21875 48.921875 51.53125 44.890625 
Q 49.859375 40.875 45.40625 35.40625 
Q 44.1875 33.984375 37.640625 27.21875 
Q 31.109375 20.453125 19.1875 8.296875 
z
" id="DejaVuSans-50"/>
       <path d="M 10.796875 72.90625 
L 49.515625 72.90625 
L 49.515625 64.59375 
L 19.828125 64.59375 
L 19.828125 46.734375 
Q 21.96875 47.46875 24.109375 47.828125 
Q 26.265625 48.1875 28.421875 48.1875 
Q 40.625 48.1875 47.75 41.5 
Q 54.890625 34.8125 54.890625 23.390625 
Q 54.890625 11.625 47.5625 5.09375 
Q 40.234375 -1.421875 26.90625 -1.421875 
Q 22.3125 -1.421875 17.546875 -0.640625 
Q 12.796875 0.140625 7.71875 1.703125 
L 7.71875 11.625 
Q 12.109375 9.234375 16.796875 8.0625 
Q 21.484375 6.890625 26.703125 6.890625 
Q 35.15625 6.890625 40.078125 11.328125 
Q 45.015625 15.765625 45.015625 23.390625 
Q 45.015625 31 40.078125 35.4375 
Q 35.15625 39.890625 26.703125 39.890625 
Q 22.75 39.890625 18.8125 39.015625 
Q 14.890625 38.140625 10.796875 36.28125 
z
" id="DejaVuSans-53"/>
      </defs>
      <g style="fill:#262626;" transform="translate(100.644978 334.864269)scale(0.1364 -0.1364)">
       <use xlink:href="#DejaVuSans-50"/>
       <use x="63.623047" xlink:href="#DejaVuSans-46"/>
       <use x="95.410156" xlink:href="#DejaVuSans-53"/>
      </g>
     </g>
    </g>
    <g id="xtick_3">
     <g id="line2d_3">
      <g>
       <use style="fill:#262626;stroke:#262626;stroke-width:1.25;" x="153.763636" xlink:href="#ma61923b746" y="315"/>
      </g>
     </g>
     <g id="text_3">
      <!-- 5.0 -->
      <g style="fill:#262626;" transform="translate(142.917705 334.864269)scale(0.1364 -0.1364)">
       <use xlink:href="#DejaVuSans-53"/>
       <use x="63.623047" xlink:href="#DejaVuSans-46"/>
       <use x="95.410156" xlink:href="#DejaVuSans-48"/>
      </g>
     </g>
    </g>
    <g id="xtick_4">
     <g id="line2d_4">
      <g>
       <use style="fill:#262626;stroke:#262626;stroke-width:1.25;" x="196.036364" xlink:href="#ma61923b746" y="315"/>
      </g>
     </g>
     <g id="text_4">
      <!-- 7.5 -->
      <defs>
       <path d="M 8.203125 72.90625 
L 55.078125 72.90625 
L 55.078125 68.703125 
L 28.609375 0 
L 18.3125 0 
L 43.21875 64.59375 
L 8.203125 64.59375 
z
" id="DejaVuSans-55"/>
      </defs>
      <g style="fill:#262626;" transform="translate(185.190432 334.864269)scale(0.1364 -0.1364)">
       <use xlink:href="#DejaVuSans-55"/>
       <use x="63.623047" xlink:href="#DejaVuSans-46"/>
       <use x="95.410156" xlink:href="#DejaVuSans-53"/>
      </g>
     </g>
    </g>
    <g id="xtick_5">
     <g id="line2d_5">
      <g>
       <use style="fill:#262626;stroke:#262626;stroke-width:1.25;" x="238.309091" xlink:href="#ma61923b746" y="315"/>
      </g>
     </g>
     <g id="text_5">
      <!-- 10.0 -->
      <defs>
       <path d="M 12.40625 8.296875 
L 28.515625 8.296875 
L 28.515625 63.921875 
L 10.984375 60.40625 
L 10.984375 69.390625 
L 28.421875 72.90625 
L 38.28125 72.90625 
L 38.28125 8.296875 
L 54.390625 8.296875 
L 54.390625 0 
L 12.40625 0 
z
" id="DejaVuSans-49"/>
      </defs>
      <g style="fill:#262626;" transform="translate(223.123935 334.864269)scale(0.1364 -0.1364)">
       <use xlink:href="#DejaVuSans-49"/>
       <use x="63.623047" xlink:href="#DejaVuSans-48"/>
       <use x="127.246094" xlink:href="#DejaVuSans-46"/>
       <use x="159.033203" xlink:href="#DejaVuSans-48"/>
      </g>
     </g>
    </g>
    <g id="xtick_6">
     <g id="line2d_6">
      <g>
       <use style="fill:#262626;stroke:#262626;stroke-width:1.25;" x="280.581818" xlink:href="#ma61923b746" y="315"/>
      </g>
     </g>
     <g id="text_6">
      <!-- 12.5 -->
      <g style="fill:#262626;" transform="translate(265.396662 334.864269)scale(0.1364 -0.1364)">
       <use xlink:href="#DejaVuSans-49"/>
       <use x="63.623047" xlink:href="#DejaVuSans-50"/>
       <use x="127.246094" xlink:href="#DejaVuSans-46"/>
       <use x="159.033203" xlink:href="#DejaVuSans-53"/>
      </g>
     </g>
    </g>
    <g id="xtick_7">
     <g id="line2d_7">
      <g>
       <use style="fill:#262626;stroke:#262626;stroke-width:1.25;" x="322.854545" xlink:href="#ma61923b746" y="315"/>
      </g>
     </g>
     <g id="text_7">
      <!-- 15.0 -->
      <g style="fill:#262626;" transform="translate(307.669389 334.864269)scale(0.1364 -0.1364)">
       <use xlink:href="#DejaVuSans-49"/>
       <use x="63.623047" xlink:href="#DejaVuSans-53"/>
       <use x="127.246094" xlink:href="#DejaVuSans-46"/>
       <use x="159.033203" xlink:href="#DejaVuSans-48"/>
      </g>
     </g>
    </g>
    <g id="xtick_8">
     <g id="line2d_8">
      <g>
       <use style="fill:#262626;stroke:#262626;stroke-width:1.25;" x="365.127273" xlink:href="#ma61923b746" y="315"/>
      </g>
     </g>
     <g id="text_8">
      <!-- 17.5 -->
      <g style="fill:#262626;" transform="translate(349.942116 334.864269)scale(0.1364 -0.1364)">
       <use xlink:href="#DejaVuSans-49"/>
       <use x="63.623047" xlink:href="#DejaVuSans-55"/>
       <use x="127.246094" xlink:href="#DejaVuSans-46"/>
       <use x="159.033203" xlink:href="#DejaVuSans-53"/>
      </g>
     </g>
    </g>
    <g id="text_9">
     <!-- time (minutes) -->
     <defs>
      <path d="M 18.3125 70.21875 
L 18.3125 54.6875 
L 36.8125 54.6875 
L 36.8125 47.703125 
L 18.3125 47.703125 
L 18.3125 18.015625 
Q 18.3125 11.328125 20.140625 9.421875 
Q 21.96875 7.515625 27.59375 7.515625 
L 36.8125 7.515625 
L 36.8125 0 
L 27.59375 0 
Q 17.1875 0 13.234375 3.875 
Q 9.28125 7.765625 9.28125 18.015625 
L 9.28125 47.703125 
L 2.6875 47.703125 
L 2.6875 54.6875 
L 9.28125 54.6875 
L 9.28125 70.21875 
z
" id="DejaVuSans-116"/>
      <path d="M 9.421875 54.6875 
L 18.40625 54.6875 
L 18.40625 0 
L 9.421875 0 
z
M 9.421875 75.984375 
L 18.40625 75.984375 
L 18.40625 64.59375 
L 9.421875 64.59375 
z
" id="DejaVuSans-105"/>
      <path d="M 52 44.1875 
Q 55.375 50.25 60.0625 53.125 
Q 64.75 56 71.09375 56 
Q 79.640625 56 84.28125 50.015625 
Q 88.921875 44.046875 88.921875 33.015625 
L 88.921875 0 
L 79.890625 0 
L 79.890625 32.71875 
Q 79.890625 40.578125 77.09375 44.375 
Q 74.3125 48.1875 68.609375 48.1875 
Q 61.625 48.1875 57.5625 43.546875 
Q 53.515625 38.921875 53.515625 30.90625 
L 53.515625 0 
L 44.484375 0 
L 44.484375 32.71875 
Q 44.484375 40.625 41.703125 44.40625 
Q 38.921875 48.1875 33.109375 48.1875 
Q 26.21875 48.1875 22.15625 43.53125 
Q 18.109375 38.875 18.109375 30.90625 
L 18.109375 0 
L 9.078125 0 
L 9.078125 54.6875 
L 18.109375 54.6875 
L 18.109375 46.1875 
Q 21.1875 51.21875 25.484375 53.609375 
Q 29.78125 56 35.6875 56 
Q 41.65625 56 45.828125 52.96875 
Q 50 49.953125 52 44.1875 
z
" id="DejaVuSans-109"/>
      <path d="M 56.203125 29.59375 
L 56.203125 25.203125 
L 14.890625 25.203125 
Q 15.484375 15.921875 20.484375 11.0625 
Q 25.484375 6.203125 34.421875 6.203125 
Q 39.59375 6.203125 44.453125 7.46875 
Q 49.3125 8.734375 54.109375 11.28125 
L 54.109375 2.78125 
Q 49.265625 0.734375 44.1875 -0.34375 
Q 39.109375 -1.421875 33.890625 -1.421875 
Q 20.796875 -1.421875 13.15625 6.1875 
Q 5.515625 13.8125 5.515625 26.8125 
Q 5.515625 40.234375 12.765625 48.109375 
Q 20.015625 56 32.328125 56 
Q 43.359375 56 49.78125 48.890625 
Q 56.203125 41.796875 56.203125 29.59375 
z
M 47.21875 32.234375 
Q 47.125 39.59375 43.09375 43.984375 
Q 39.0625 48.390625 32.421875 48.390625 
Q 24.90625 48.390625 20.390625 44.140625 
Q 15.875 39.890625 15.1875 32.171875 
z
" id="DejaVuSans-101"/>
      <path id="DejaVuSans-32"/>
      <path d="M 31 75.875 
Q 24.46875 64.65625 21.28125 53.65625 
Q 18.109375 42.671875 18.109375 31.390625 
Q 18.109375 20.125 21.3125 9.0625 
Q 24.515625 -2 31 -13.1875 
L 23.1875 -13.1875 
Q 15.875 -1.703125 12.234375 9.375 
Q 8.59375 20.453125 8.59375 31.390625 
Q 8.59375 42.28125 12.203125 53.3125 
Q 15.828125 64.359375 23.1875 75.875 
z
" id="DejaVuSans-40"/>
      <path d="M 54.890625 33.015625 
L 54.890625 0 
L 45.90625 0 
L 45.90625 32.71875 
Q 45.90625 40.484375 42.875 44.328125 
Q 39.84375 48.1875 33.796875 48.1875 
Q 26.515625 48.1875 22.3125 43.546875 
Q 18.109375 38.921875 18.109375 30.90625 
L 18.109375 0 
L 9.078125 0 
L 9.078125 54.6875 
L 18.109375 54.6875 
L 18.109375 46.1875 
Q 21.34375 51.125 25.703125 53.5625 
Q 30.078125 56 35.796875 56 
Q 45.21875 56 50.046875 50.171875 
Q 54.890625 44.34375 54.890625 33.015625 
z
" id="DejaVuSans-110"/>
      <path d="M 8.5 21.578125 
L 8.5 54.6875 
L 17.484375 54.6875 
L 17.484375 21.921875 
Q 17.484375 14.15625 20.5 10.265625 
Q 23.53125 6.390625 29.59375 6.390625 
Q 36.859375 6.390625 41.078125 11.03125 
Q 45.3125 15.671875 45.3125 23.6875 
L 45.3125 54.6875 
L 54.296875 54.6875 
L 54.296875 0 
L 45.3125 0 
L 45.3125 8.40625 
Q 42.046875 3.421875 37.71875 1 
Q 33.40625 -1.421875 27.6875 -1.421875 
Q 18.265625 -1.421875 13.375 4.4375 
Q 8.5 10.296875 8.5 21.578125 
z
M 31.109375 56 
z
" id="DejaVuSans-117"/>
      <path d="M 44.28125 53.078125 
L 44.28125 44.578125 
Q 40.484375 46.53125 36.375 47.5 
Q 32.28125 48.484375 27.875 48.484375 
Q 21.1875 48.484375 17.84375 46.4375 
Q 14.5 44.390625 14.5 40.28125 
Q 14.5 37.15625 16.890625 35.375 
Q 19.28125 33.59375 26.515625 31.984375 
L 29.59375 31.296875 
Q 39.15625 29.25 43.1875 25.515625 
Q 47.21875 21.78125 47.21875 15.09375 
Q 47.21875 7.46875 41.1875 3.015625 
Q 35.15625 -1.421875 24.609375 -1.421875 
Q 20.21875 -1.421875 15.453125 -0.5625 
Q 10.6875 0.296875 5.421875 2 
L 5.421875 11.28125 
Q 10.40625 8.6875 15.234375 7.390625 
Q 20.0625 6.109375 24.8125 6.109375 
Q 31.15625 6.109375 34.5625 8.28125 
Q 37.984375 10.453125 37.984375 14.40625 
Q 37.984375 18.0625 35.515625 20.015625 
Q 33.0625 21.96875 24.703125 23.78125 
L 21.578125 24.515625 
Q 13.234375 26.265625 9.515625 29.90625 
Q 5.8125 33.546875 5.8125 39.890625 
Q 5.8125 47.609375 11.28125 51.796875 
Q 16.75 56 26.8125 56 
Q 31.78125 56 36.171875 55.265625 
Q 40.578125 54.546875 44.28125 53.078125 
z
" id="DejaVuSans-115"/>
      <path d="M 8.015625 75.875 
L 15.828125 75.875 
Q 23.140625 64.359375 26.78125 53.3125 
Q 30.421875 42.28125 30.421875 31.390625 
Q 30.421875 20.453125 26.78125 9.375 
Q 23.140625 -1.703125 15.828125 -13.1875 
L 8.015625 -13.1875 
Q 14.5 -2 17.703125 9.0625 
Q 20.90625 20.125 20.90625 31.390625 
Q 20.90625 42.671875 17.703125 53.65625 
Q 14.5 64.65625 8.015625 75.875 
z
" id="DejaVuSans-41"/>
     </defs>
     <g style="fill:#262626;" transform="translate(166.3068 353.007437)scale(0.1488 -0.1488)">
      <use xlink:href="#DejaVuSans-116"/>
      <use x="39.208984" xlink:href="#DejaVuSans-105"/>
      <use x="66.992188" xlink:href="#DejaVuSans-109"/>
      <use x="164.404297" xlink:href="#DejaVuSans-101"/>
      <use x="225.927734" xlink:href="#DejaVuSans-32"/>
      <use x="257.714844" xlink:href="#DejaVuSans-40"/>
      <use x="296.728516" xlink:href="#DejaVuSans-109"/>
      <use x="394.140625" xlink:href="#DejaVuSans-105"/>
      <use x="421.923828" xlink:href="#DejaVuSans-110"/>
      <use x="485.302734" xlink:href="#DejaVuSans-117"/>
      <use x="548.681641" xlink:href="#DejaVuSans-116"/>
      <use x="587.890625" xlink:href="#DejaVuSans-101"/>
      <use x="649.414062" xlink:href="#DejaVuSans-115"/>
      <use x="701.513672" xlink:href="#DejaVuSans-41"/>
     </g>
    </g>
   </g>
   <g id="matplotlib.axis_2">
    <g id="ytick_1">
     <g id="line2d_9">
      <defs>
       <path d="M 0 0 
L -6 0 
" id="m4228390753" style="stroke:#262626;stroke-width:1.25;"/>
      </defs>
      <g>
       <use style="fill:#262626;stroke:#262626;stroke-width:1.25;" x="54" xlink:href="#m4228390753" y="282.173164"/>
      </g>
     </g>
     <g id="text_10">
      <!-- −0.1 -->
      <defs>
       <path d="M 10.59375 35.5 
L 73.1875 35.5 
L 73.1875 27.203125 
L 10.59375 27.203125 
z
" id="DejaVuSans-8722"/>
      </defs>
      <g style="fill:#262626;" transform="translate(11.378244 287.355298)scale(0.1364 -0.1364)">
       <use xlink:href="#DejaVuSans-8722"/>
       <use x="83.789062" xlink:href="#DejaVuSans-48"/>
       <use x="147.412109" xlink:href="#DejaVuSans-46"/>
       <use x="179.199219" xlink:href="#DejaVuSans-49"/>
      </g>
     </g>
    </g>
    <g id="ytick_2">
     <g id="line2d_10">
      <g>
       <use style="fill:#262626;stroke:#262626;stroke-width:1.25;" x="54" xlink:href="#m4228390753" y="232.057248"/>
      </g>
     </g>
     <g id="text_11">
      <!-- 0.0 -->
      <g style="fill:#262626;" transform="translate(22.808138 237.239382)scale(0.1364 -0.1364)">
       <use xlink:href="#DejaVuSans-48"/>
       <use x="63.623047" xlink:href="#DejaVuSans-46"/>
       <use x="95.410156" xlink:href="#DejaVuSans-48"/>
      </g>
     </g>
    </g>
    <g id="ytick_3">
     <g id="line2d_11">
      <g>
       <use style="fill:#262626;stroke:#262626;stroke-width:1.25;" x="54" xlink:href="#m4228390753" y="181.941331"/>
      </g>
     </g>
     <g id="text_12">
      <!-- 0.1 -->
      <g style="fill:#262626;" transform="translate(22.808138 187.123466)scale(0.1364 -0.1364)">
       <use xlink:href="#DejaVuSans-48"/>
       <use x="63.623047" xlink:href="#DejaVuSans-46"/>
       <use x="95.410156" xlink:href="#DejaVuSans-49"/>
      </g>
     </g>
    </g>
    <g id="ytick_4">
     <g id="line2d_12">
      <g>
       <use style="fill:#262626;stroke:#262626;stroke-width:1.25;" x="54" xlink:href="#m4228390753" y="131.825415"/>
      </g>
     </g>
     <g id="text_13">
      <!-- 0.2 -->
      <g style="fill:#262626;" transform="translate(22.808138 137.00755)scale(0.1364 -0.1364)">
       <use xlink:href="#DejaVuSans-48"/>
       <use x="63.623047" xlink:href="#DejaVuSans-46"/>
       <use x="95.410156" xlink:href="#DejaVuSans-50"/>
      </g>
     </g>
    </g>
    <g id="ytick_5">
     <g id="line2d_13">
      <g>
       <use style="fill:#262626;stroke:#262626;stroke-width:1.25;" x="54" xlink:href="#m4228390753" y="81.709499"/>
      </g>
     </g>
     <g id="text_14">
      <!-- 0.3 -->
      <defs>
       <path d="M 40.578125 39.3125 
Q 47.65625 37.796875 51.625 33 
Q 55.609375 28.21875 55.609375 21.1875 
Q 55.609375 10.40625 48.1875 4.484375 
Q 40.765625 -1.421875 27.09375 -1.421875 
Q 22.515625 -1.421875 17.65625 -0.515625 
Q 12.796875 0.390625 7.625 2.203125 
L 7.625 11.71875 
Q 11.71875 9.328125 16.59375 8.109375 
Q 21.484375 6.890625 26.8125 6.890625 
Q 36.078125 6.890625 40.9375 10.546875 
Q 45.796875 14.203125 45.796875 21.1875 
Q 45.796875 27.640625 41.28125 31.265625 
Q 36.765625 34.90625 28.71875 34.90625 
L 20.21875 34.90625 
L 20.21875 43.015625 
L 29.109375 43.015625 
Q 36.375 43.015625 40.234375 45.921875 
Q 44.09375 48.828125 44.09375 54.296875 
Q 44.09375 59.90625 40.109375 62.90625 
Q 36.140625 65.921875 28.71875 65.921875 
Q 24.65625 65.921875 20.015625 65.03125 
Q 15.375 64.15625 9.8125 62.3125 
L 9.8125 71.09375 
Q 15.4375 72.65625 20.34375 73.4375 
Q 25.25 74.21875 29.59375 74.21875 
Q 40.828125 74.21875 47.359375 69.109375 
Q 53.90625 64.015625 53.90625 55.328125 
Q 53.90625 49.265625 50.4375 45.09375 
Q 46.96875 40.921875 40.578125 39.3125 
z
" id="DejaVuSans-51"/>
      </defs>
      <g style="fill:#262626;" transform="translate(22.808138 86.891633)scale(0.1364 -0.1364)">
       <use xlink:href="#DejaVuSans-48"/>
       <use x="63.623047" xlink:href="#DejaVuSans-46"/>
       <use x="95.410156" xlink:href="#DejaVuSans-51"/>
      </g>
     </g>
    </g>
    <g id="text_15">
     <!-- signal (au) -->
     <defs>
      <path d="M 45.40625 27.984375 
Q 45.40625 37.75 41.375 43.109375 
Q 37.359375 48.484375 30.078125 48.484375 
Q 22.859375 48.484375 18.828125 43.109375 
Q 14.796875 37.75 14.796875 27.984375 
Q 14.796875 18.265625 18.828125 12.890625 
Q 22.859375 7.515625 30.078125 7.515625 
Q 37.359375 7.515625 41.375 12.890625 
Q 45.40625 18.265625 45.40625 27.984375 
z
M 54.390625 6.78125 
Q 54.390625 -7.171875 48.1875 -13.984375 
Q 42 -20.796875 29.203125 -20.796875 
Q 24.46875 -20.796875 20.265625 -20.09375 
Q 16.0625 -19.390625 12.109375 -17.921875 
L 12.109375 -9.1875 
Q 16.0625 -11.328125 19.921875 -12.34375 
Q 23.78125 -13.375 27.78125 -13.375 
Q 36.625 -13.375 41.015625 -8.765625 
Q 45.40625 -4.15625 45.40625 5.171875 
L 45.40625 9.625 
Q 42.625 4.78125 38.28125 2.390625 
Q 33.9375 0 27.875 0 
Q 17.828125 0 11.671875 7.65625 
Q 5.515625 15.328125 5.515625 27.984375 
Q 5.515625 40.671875 11.671875 48.328125 
Q 17.828125 56 27.875 56 
Q 33.9375 56 38.28125 53.609375 
Q 42.625 51.21875 45.40625 46.390625 
L 45.40625 54.6875 
L 54.390625 54.6875 
z
" id="DejaVuSans-103"/>
      <path d="M 34.28125 27.484375 
Q 23.390625 27.484375 19.1875 25 
Q 14.984375 22.515625 14.984375 16.5 
Q 14.984375 11.71875 18.140625 8.90625 
Q 21.296875 6.109375 26.703125 6.109375 
Q 34.1875 6.109375 38.703125 11.40625 
Q 43.21875 16.703125 43.21875 25.484375 
L 43.21875 27.484375 
z
M 52.203125 31.203125 
L 52.203125 0 
L 43.21875 0 
L 43.21875 8.296875 
Q 40.140625 3.328125 35.546875 0.953125 
Q 30.953125 -1.421875 24.3125 -1.421875 
Q 15.921875 -1.421875 10.953125 3.296875 
Q 6 8.015625 6 15.921875 
Q 6 25.140625 12.171875 29.828125 
Q 18.359375 34.515625 30.609375 34.515625 
L 43.21875 34.515625 
L 43.21875 35.40625 
Q 43.21875 41.609375 39.140625 45 
Q 35.0625 48.390625 27.6875 48.390625 
Q 23 48.390625 18.546875 47.265625 
Q 14.109375 46.140625 10.015625 43.890625 
L 10.015625 52.203125 
Q 14.9375 54.109375 19.578125 55.046875 
Q 24.21875 56 28.609375 56 
Q 40.484375 56 46.34375 49.84375 
Q 52.203125 43.703125 52.203125 31.203125 
z
" id="DejaVuSans-97"/>
      <path d="M 9.421875 75.984375 
L 18.40625 75.984375 
L 18.40625 0 
L 9.421875 0 
z
" id="DejaVuSans-108"/>
     </defs>
     <g style="fill:#262626;" transform="translate(4.283669 218.551762)rotate(-90)scale(0.1488 -0.1488)">
      <use xlink:href="#DejaVuSans-115"/>
      <use x="52.099609" xlink:href="#DejaVuSans-105"/>
      <use x="79.882812" xlink:href="#DejaVuSans-103"/>
      <use x="143.359375" xlink:href="#DejaVuSans-110"/>
      <use x="206.738281" xlink:href="#DejaVuSans-97"/>
      <use x="268.017578" xlink:href="#DejaVuSans-108"/>
      <use x="295.800781" xlink:href="#DejaVuSans-32"/>
      <use x="327.587891" xlink:href="#DejaVuSans-40"/>
      <use x="366.601562" xlink:href="#DejaVuSans-97"/>
      <use x="427.880859" xlink:href="#DejaVuSans-117"/>
      <use x="491.259766" xlink:href="#DejaVuSans-41"/>
     </g>
    </g>
   </g>
   <g id="PolyCollection_1">
    <defs>
     <path d="M 69.218182 -136.520404 
L 69.218182 -104.157725 
L 86.127273 -96.021256 
L 103.036364 -99.631287 
L 119.945455 -118.598653 
L 136.854545 -152.549592 
L 153.763636 -180.789261 
L 170.672727 -179.346771 
L 187.581818 -148.400659 
L 204.490909 -107.912816 
L 221.4 -78.381246 
L 238.309091 -64.821694 
L 255.218182 -58.211747 
L 272.127273 -57.354545 
L 289.036364 -63.841124 
L 305.945455 -74.481728 
L 322.854545 -84.149891 
L 339.763636 -90.152836 
L 356.672727 -91.895802 
L 373.581818 -92.082637 
L 373.581818 -125.023474 
L 373.581818 -125.023474 
L 356.672727 -125.907552 
L 339.763636 -124.574721 
L 322.854545 -122.466142 
L 305.945455 -118.532216 
L 289.036364 -113.608467 
L 272.127273 -109.975125 
L 255.218182 -110.079345 
L 238.309091 -126.572663 
L 221.4 -165.985879 
L 204.490909 -219.999597 
L 187.581818 -273.577125 
L 170.672727 -304.445455 
L 153.763636 -295.568172 
L 136.854545 -248.77046 
L 119.945455 -186.207617 
L 103.036364 -141.30376 
L 86.127273 -131.750555 
L 69.218182 -136.520404 
z
" id="m1952f03f2c" style="stroke:#1f77b4;stroke-opacity:0.2;"/>
    </defs>
    <g clip-path="url(#pdd311c7b03)">
     <use style="fill:#1f77b4;fill-opacity:0.2;stroke:#1f77b4;stroke-opacity:0.2;" x="0" xlink:href="#m1952f03f2c" y="360"/>
    </g>
   </g>
   <g id="PolyCollection_2">
    <defs>
     <path d="M 69.218182 -130.991541 
L 69.218182 -106.700614 
L 86.127273 -104.43534 
L 103.036364 -108.153185 
L 119.945455 -115.9542 
L 136.854545 -122.84139 
L 153.763636 -124.632799 
L 170.672727 -118.524402 
L 187.581818 -99.148444 
L 204.490909 -80.145536 
L 221.4 -77.762839 
L 238.309091 -85.577098 
L 255.218182 -94.286273 
L 272.127273 -102.224924 
L 289.036364 -108.61131 
L 305.945455 -113.125872 
L 322.854545 -115.122839 
L 339.763636 -113.782409 
L 356.672727 -111.916933 
L 373.581818 -109.405691 
L 373.581818 -141.422902 
L 373.581818 -141.422902 
L 356.672727 -139.215464 
L 339.763636 -138.328328 
L 322.854545 -138.152439 
L 305.945455 -138.154437 
L 289.036364 -138.443926 
L 272.127273 -136.921094 
L 255.218182 -132.53485 
L 238.309091 -127.180765 
L 221.4 -125.410653 
L 204.490909 -130.615227 
L 187.581818 -142.315296 
L 170.672727 -165.076172 
L 153.763636 -186.870165 
L 136.854545 -184.453359 
L 119.945455 -160.062143 
L 103.036364 -136.876751 
L 86.127273 -129.444617 
L 69.218182 -130.991541 
z
" id="m2d948dc36a" style="stroke:#1f77b4;stroke-opacity:0.2;"/>
    </defs>
    <g clip-path="url(#pdd311c7b03)">
     <use style="fill:#1f77b4;fill-opacity:0.2;stroke:#1f77b4;stroke-opacity:0.2;" x="0" xlink:href="#m2d948dc36a" y="360"/>
    </g>
   </g>
   <g id="line2d_14">
    <path clip-path="url(#pdd311c7b03)" d="M 69.218182 239.660936 
L 86.127273 246.114095 
L 103.036364 239.532477 
L 119.945455 207.596865 
L 136.854545 159.339974 
L 153.763636 121.821283 
L 170.672727 118.103887 
L 187.581818 149.011108 
L 204.490909 196.043793 
L 221.4 237.816438 
L 238.309091 264.302822 
L 255.218182 275.854454 
L 272.127273 276.335165 
L 289.036364 271.275205 
L 305.945455 263.493028 
L 322.854545 256.691983 
L 339.763636 252.636222 
L 356.672727 251.098323 
L 373.581818 251.446945 
" style="fill:none;stroke:#1f77b4;stroke-linecap:round;stroke-width:2;"/>
    <defs>
     <path d="M -3 3 
L 3 3 
L 3 -3 
L -3 -3 
z
" id="mff9856f94a" style="stroke:#ffffff;stroke-linejoin:miter;stroke-width:0.75;"/>
    </defs>
    <g clip-path="url(#pdd311c7b03)">
     <use style="fill:#1f77b4;stroke:#ffffff;stroke-linejoin:miter;stroke-width:0.75;" x="69.218182" xlink:href="#mff9856f94a" y="239.660936"/>
     <use style="fill:#1f77b4;stroke:#ffffff;stroke-linejoin:miter;stroke-width:0.75;" x="86.127273" xlink:href="#mff9856f94a" y="246.114095"/>
     <use style="fill:#1f77b4;stroke:#ffffff;stroke-linejoin:miter;stroke-width:0.75;" x="103.036364" xlink:href="#mff9856f94a" y="239.532477"/>
     <use style="fill:#1f77b4;stroke:#ffffff;stroke-linejoin:miter;stroke-width:0.75;" x="119.945455" xlink:href="#mff9856f94a" y="207.596865"/>
     <use style="fill:#1f77b4;stroke:#ffffff;stroke-linejoin:miter;stroke-width:0.75;" x="136.854545" xlink:href="#mff9856f94a" y="159.339974"/>
     <use style="fill:#1f77b4;stroke:#ffffff;stroke-linejoin:miter;stroke-width:0.75;" x="153.763636" xlink:href="#mff9856f94a" y="121.821283"/>
     <use style="fill:#1f77b4;stroke:#ffffff;stroke-linejoin:miter;stroke-width:0.75;" x="170.672727" xlink:href="#mff9856f94a" y="118.103887"/>
     <use style="fill:#1f77b4;stroke:#ffffff;stroke-linejoin:miter;stroke-width:0.75;" x="187.581818" xlink:href="#mff9856f94a" y="149.011108"/>
     <use style="fill:#1f77b4;stroke:#ffffff;stroke-linejoin:miter;stroke-width:0.75;" x="204.490909" xlink:href="#mff9856f94a" y="196.043793"/>
     <use style="fill:#1f77b4;stroke:#ffffff;stroke-linejoin:miter;stroke-width:0.75;" x="221.4" xlink:href="#mff9856f94a" y="237.816438"/>
     <use style="fill:#1f77b4;stroke:#ffffff;stroke-linejoin:miter;stroke-width:0.75;" x="238.309091" xlink:href="#mff9856f94a" y="264.302822"/>
     <use style="fill:#1f77b4;stroke:#ffffff;stroke-linejoin:miter;stroke-width:0.75;" x="255.218182" xlink:href="#mff9856f94a" y="275.854454"/>
     <use style="fill:#1f77b4;stroke:#ffffff;stroke-linejoin:miter;stroke-width:0.75;" x="272.127273" xlink:href="#mff9856f94a" y="276.335165"/>
     <use style="fill:#1f77b4;stroke:#ffffff;stroke-linejoin:miter;stroke-width:0.75;" x="289.036364" xlink:href="#mff9856f94a" y="271.275205"/>
     <use style="fill:#1f77b4;stroke:#ffffff;stroke-linejoin:miter;stroke-width:0.75;" x="305.945455" xlink:href="#mff9856f94a" y="263.493028"/>
     <use style="fill:#1f77b4;stroke:#ffffff;stroke-linejoin:miter;stroke-width:0.75;" x="322.854545" xlink:href="#mff9856f94a" y="256.691983"/>
     <use style="fill:#1f77b4;stroke:#ffffff;stroke-linejoin:miter;stroke-width:0.75;" x="339.763636" xlink:href="#mff9856f94a" y="252.636222"/>
     <use style="fill:#1f77b4;stroke:#ffffff;stroke-linejoin:miter;stroke-width:0.75;" x="356.672727" xlink:href="#mff9856f94a" y="251.098323"/>
     <use style="fill:#1f77b4;stroke:#ffffff;stroke-linejoin:miter;stroke-width:0.75;" x="373.581818" xlink:href="#mff9856f94a" y="251.446945"/>
    </g>
   </g>
   <g id="line2d_15">
    <path clip-path="url(#pdd311c7b03)" d="M 69.218182 241.153923 
L 86.127273 243.060022 
L 103.036364 237.485032 
L 119.945455 221.991829 
L 136.854545 206.352626 
L 153.763636 204.248518 
L 170.672727 218.199713 
L 187.581818 239.26813 
L 204.490909 254.619619 
L 221.4 258.413254 
L 238.309091 253.621068 
L 255.218182 246.589439 
L 272.127273 240.426991 
L 289.036364 236.472382 
L 305.945455 234.359846 
L 322.854545 233.362361 
L 339.763636 233.944632 
L 356.672727 234.433802 
L 373.581818 234.585703 
" style="fill:none;stroke:#1f77b4;stroke-dasharray:8,3;stroke-dashoffset:0;stroke-width:2;"/>
    <defs>
     <path d="M 0 3 
C 0.795609 3 1.55874 2.683901 2.12132 2.12132 
C 2.683901 1.55874 3 0.795609 3 0 
C 3 -0.795609 2.683901 -1.55874 2.12132 -2.12132 
C 1.55874 -2.683901 0.795609 -3 0 -3 
C -0.795609 -3 -1.55874 -2.683901 -2.12132 -2.12132 
C -2.683901 -1.55874 -3 -0.795609 -3 0 
C -3 0.795609 -2.683901 1.55874 -2.12132 2.12132 
C -1.55874 2.683901 -0.795609 3 0 3 
z
" id="m709b114abf" style="stroke:#ffffff;stroke-width:0.75;"/>
    </defs>
    <g clip-path="url(#pdd311c7b03)">
     <use style="fill:#1f77b4;stroke:#ffffff;stroke-width:0.75;" x="69.218182" xlink:href="#m709b114abf" y="241.153923"/>
     <use style="fill:#1f77b4;stroke:#ffffff;stroke-width:0.75;" x="86.127273" xlink:href="#m709b114abf" y="243.060022"/>
     <use style="fill:#1f77b4;stroke:#ffffff;stroke-width:0.75;" x="103.036364" xlink:href="#m709b114abf" y="237.485032"/>
     <use style="fill:#1f77b4;stroke:#ffffff;stroke-width:0.75;" x="119.945455" xlink:href="#m709b114abf" y="221.991829"/>
     <use style="fill:#1f77b4;stroke:#ffffff;stroke-width:0.75;" x="136.854545" xlink:href="#m709b114abf" y="206.352626"/>
     <use style="fill:#1f77b4;stroke:#ffffff;stroke-width:0.75;" x="153.763636" xlink:href="#m709b114abf" y="204.248518"/>
     <use style="fill:#1f77b4;stroke:#ffffff;stroke-width:0.75;" x="170.672727" xlink:href="#m709b114abf" y="218.199713"/>
     <use style="fill:#1f77b4;stroke:#ffffff;stroke-width:0.75;" x="187.581818" xlink:href="#m709b114abf" y="239.26813"/>
     <use style="fill:#1f77b4;stroke:#ffffff;stroke-width:0.75;" x="204.490909" xlink:href="#m709b114abf" y="254.619619"/>
     <use style="fill:#1f77b4;stroke:#ffffff;stroke-width:0.75;" x="221.4" xlink:href="#m709b114abf" y="258.413254"/>
     <use style="fill:#1f77b4;stroke:#ffffff;stroke-width:0.75;" x="238.309091" xlink:href="#m709b114abf" y="253.621068"/>
     <use style="fill:#1f77b4;stroke:#ffffff;stroke-width:0.75;" x="255.218182" xlink:href="#m709b114abf" y="246.589439"/>
     <use style="fill:#1f77b4;stroke:#ffffff;stroke-width:0.75;" x="272.127273" xlink:href="#m709b114abf" y="240.426991"/>
     <use style="fill:#1f77b4;stroke:#ffffff;stroke-width:0.75;" x="289.036364" xlink:href="#m709b114abf" y="236.472382"/>
     <use style="fill:#1f77b4;stroke:#ffffff;stroke-width:0.75;" x="305.945455" xlink:href="#m709b114abf" y="234.359846"/>
     <use style="fill:#1f77b4;stroke:#ffffff;stroke-width:0.75;" x="322.854545" xlink:href="#m709b114abf" y="233.362361"/>
     <use style="fill:#1f77b4;stroke:#ffffff;stroke-width:0.75;" x="339.763636" xlink:href="#m709b114abf" y="233.944632"/>
     <use style="fill:#1f77b4;stroke:#ffffff;stroke-width:0.75;" x="356.672727" xlink:href="#m709b114abf" y="234.433802"/>
     <use style="fill:#1f77b4;stroke:#ffffff;stroke-width:0.75;" x="373.581818" xlink:href="#m709b114abf" y="234.585703"/>
    </g>
   </g>
   <g id="line2d_16"/>
   <g id="line2d_17"/>
   <g id="line2d_18"/>
   <g id="patch_3">
    <path d="M 54 315 
L 54 43.2 
" style="fill:none;stroke:#262626;stroke-linecap:square;stroke-linejoin:miter;stroke-width:1.25;"/>
   </g>
   <g id="patch_4">
    <path d="M 54 315 
L 388.8 315 
" style="fill:none;stroke:#262626;stroke-linecap:square;stroke-linejoin:miter;stroke-width:1.25;"/>
   </g>
   <g id="legend_1">
    <g id="patch_5">
     <path d="M 296.753444 114.174887 
L 379.252 114.174887 
Q 381.98 114.174887 381.98 111.446887 
L 381.98 52.748 
Q 381.98 50.02 379.252 50.02 
L 296.753444 50.02 
Q 294.025444 50.02 294.025444 52.748 
L 294.025444 111.446887 
Q 294.025444 114.174887 296.753444 114.174887 
z
" style="fill:#ffffff;opacity:0.8;stroke:#cccccc;stroke-linejoin:miter;"/>
    </g>
    <g id="line2d_19">
     <path d="M 299.481444 61.066269 
L 326.761444 61.066269 
" style="fill:none;"/>
    </g>
    <g id="line2d_20"/>
    <g id="text_16">
     <!-- event -->
     <defs>
      <path d="M 2.984375 54.6875 
L 12.5 54.6875 
L 29.59375 8.796875 
L 46.6875 54.6875 
L 56.203125 54.6875 
L 35.6875 0 
L 23.484375 0 
z
" id="DejaVuSans-118"/>
     </defs>
     <g style="fill:#262626;" transform="translate(337.673444 65.840269)scale(0.1364 -0.1364)">
      <use xlink:href="#DejaVuSans-101"/>
      <use x="61.523438" xlink:href="#DejaVuSans-118"/>
      <use x="120.703125" xlink:href="#DejaVuSans-101"/>
      <use x="182.226562" xlink:href="#DejaVuSans-110"/>
      <use x="245.605469" xlink:href="#DejaVuSans-116"/>
     </g>
    </g>
    <g id="line2d_21">
     <path d="M 299.481444 81.087231 
L 326.761444 81.087231 
" style="fill:none;stroke:#333333;stroke-linecap:round;stroke-width:2;"/>
    </g>
    <g id="line2d_22">
     <defs>
      <path d="M -3 3 
L 3 3 
L 3 -3 
L -3 -3 
z
" id="meead8e7370" style="stroke:#333333;stroke-linejoin:miter;"/>
     </defs>
     <g>
      <use style="fill:#333333;stroke:#333333;stroke-linejoin:miter;" x="313.121444" xlink:href="#meead8e7370" y="81.087231"/>
     </g>
    </g>
    <g id="text_17">
     <!-- stim -->
     <g style="fill:#262626;" transform="translate(337.673444 85.861231)scale(0.1364 -0.1364)">
      <use xlink:href="#DejaVuSans-115"/>
      <use x="52.099609" xlink:href="#DejaVuSans-116"/>
      <use x="91.308594" xlink:href="#DejaVuSans-105"/>
      <use x="119.091797" xlink:href="#DejaVuSans-109"/>
     </g>
    </g>
    <g id="line2d_23">
     <path d="M 299.481444 101.108194 
L 326.761444 101.108194 
" style="fill:none;stroke:#333333;stroke-dasharray:8,3;stroke-dashoffset:0;stroke-width:2;"/>
    </g>
    <g id="line2d_24">
     <defs>
      <path d="M 0 3 
C 0.795609 3 1.55874 2.683901 2.12132 2.12132 
C 2.683901 1.55874 3 0.795609 3 0 
C 3 -0.795609 2.683901 -1.55874 2.12132 -2.12132 
C 1.55874 -2.683901 0.795609 -3 0 -3 
C -0.795609 -3 -1.55874 -2.683901 -2.12132 -2.12132 
C -2.683901 -1.55874 -3 -0.795609 -3 0 
C -3 0.795609 -2.683901 1.55874 -2.12132 2.12132 
C -1.55874 2.683901 -0.795609 3 0 3 
z
" id="m12d4355be3" style="stroke:#333333;"/>
     </defs>
     <g>
      <use style="fill:#333333;stroke:#333333;" x="313.121444" xlink:href="#m12d4355be3" y="101.108194"/>
     </g>
    </g>
    <g id="text_18">
     <!-- cue -->
     <defs>
      <path d="M 48.78125 52.59375 
L 48.78125 44.1875 
Q 44.96875 46.296875 41.140625 47.34375 
Q 37.3125 48.390625 33.40625 48.390625 
Q 24.65625 48.390625 19.8125 42.84375 
Q 14.984375 37.3125 14.984375 27.296875 
Q 14.984375 17.28125 19.8125 11.734375 
Q 24.65625 6.203125 33.40625 6.203125 
Q 37.3125 6.203125 41.140625 7.25 
Q 44.96875 8.296875 48.78125 10.40625 
L 48.78125 2.09375 
Q 45.015625 0.34375 40.984375 -0.53125 
Q 36.96875 -1.421875 32.421875 -1.421875 
Q 20.0625 -1.421875 12.78125 6.34375 
Q 5.515625 14.109375 5.515625 27.296875 
Q 5.515625 40.671875 12.859375 48.328125 
Q 20.21875 56 33.015625 56 
Q 37.15625 56 41.109375 55.140625 
Q 45.0625 54.296875 48.78125 52.59375 
z
" id="DejaVuSans-99"/>
     </defs>
     <g style="fill:#262626;" transform="translate(337.673444 105.882194)scale(0.1364 -0.1364)">
      <use xlink:href="#DejaVuSans-99"/>
      <use x="54.980469" xlink:href="#DejaVuSans-117"/>
      <use x="118.359375" xlink:href="#DejaVuSans-101"/>
     </g>
    </g>
   </g>
  </g>
 </g>
 <defs>
  <clipPath id="pdd311c7b03">
   <rect height="271.8" width="334.8" x="54" y="43.2"/>
  </clipPath>
 </defs>
</svg>
