<?xml version="1.0" encoding="utf-8" standalone="no"?>
<!DOCTYPE svg PUBLIC "-//W3C//DTD SVG 1.1//EN"
  "http://www.w3.org/Graphics/SVG/1.1/DTD/svg11.dtd">
<!-- Created with matplotlib (http://matplotlib.org/) -->
<svg height="112pt" version="1.1" viewBox="0 0 308 112" width="308pt" xmlns="http://www.w3.org/2000/svg" xmlns:xlink="http://www.w3.org/1999/xlink">
 <defs>
  <style type="text/css">
*{stroke-linecap:butt;stroke-linejoin:round;}
  </style>
 </defs>
 <g id="figure_1">
  <g id="patch_1">
   <path d="M 0 112.432118 
L 308.09445 112.432118 
L 308.09445 0 
L 0 0 
z
" style="fill:none;"/>
  </g>
  <g id="axes_1">
   <g id="patch_2">
    <path d="M 32.03445 81.295168 
L 144.44445 81.295168 
L 144.44445 13.242848 
L 32.03445 13.242848 
z
" style="fill:none;"/>
   </g>
   <g id="matplotlib.axis_1">
    <g id="xtick_1">
     <g id="line2d_1">
      <defs>
       <path d="M 0 0 
L 0 2.5 
" id="ma0db0a0118" style="stroke:#000000;stroke-width:0.8;"/>
      </defs>
      <g>
       <use style="stroke:#000000;stroke-width:0.8;" x="37.143995" xlink:href="#ma0db0a0118" y="81.295168"/>
      </g>
     </g>
     <g id="text_1">
      <!-- 0.0 -->
      <defs>
       <path d="M 4.15625 35.296875 
Q 4.15625 48 6.765625 55.734375 
Q 9.375 63.484375 14.515625 67.671875 
Q 19.671875 71.875 27.484375 71.875 
Q 33.25 71.875 37.59375 69.546875 
Q 41.9375 67.234375 44.765625 62.859375 
Q 47.609375 58.5 49.21875 52.21875 
Q 50.828125 45.953125 50.828125 35.296875 
Q 50.828125 22.703125 48.234375 14.96875 
Q 45.65625 7.234375 40.5 3 
Q 35.359375 -1.21875 27.484375 -1.21875 
Q 17.140625 -1.21875 11.234375 6.203125 
Q 4.15625 15.140625 4.15625 35.296875 
M 13.1875 35.296875 
Q 13.1875 17.671875 17.3125 11.828125 
Q 21.4375 6 27.484375 6 
Q 33.546875 6 37.671875 11.859375 
Q 41.796875 17.71875 41.796875 35.296875 
Q 41.796875 52.984375 37.671875 58.78125 
Q 33.546875 64.59375 27.390625 64.59375 
Q 21.34375 64.59375 17.71875 59.46875 
Q 13.1875 52.9375 13.1875 35.296875 
" id="ArialMT-30"/>
       <path d="M 9.078125 0 
L 9.078125 10.015625 
L 19.09375 10.015625 
L 19.09375 0 
z
" id="ArialMT-2e"/>
      </defs>
      <g transform="translate(30.471995 92.666668)scale(0.096 -0.096)">
       <use xlink:href="#ArialMT-30"/>
       <use x="55.615234" xlink:href="#ArialMT-2e"/>
       <use x="83.398438" xlink:href="#ArialMT-30"/>
      </g>
     </g>
    </g>
    <g id="xtick_2">
     <g id="line2d_2">
      <g>
       <use style="stroke:#000000;stroke-width:0.8;" x="88.23945" xlink:href="#ma0db0a0118" y="81.295168"/>
      </g>
     </g>
     <g id="text_2">
      <!-- 0.1 -->
      <defs>
       <path d="M 37.25 0 
L 28.46875 0 
L 28.46875 56 
Q 25.296875 52.984375 20.140625 49.953125 
Q 14.984375 46.921875 10.890625 45.40625 
L 10.890625 53.90625 
Q 18.265625 57.375 23.78125 62.296875 
Q 29.296875 67.234375 31.59375 71.875 
L 37.25 71.875 
z
" id="ArialMT-31"/>
      </defs>
      <g transform="translate(81.56745 92.666668)scale(0.096 -0.096)">
       <use xlink:href="#ArialMT-30"/>
       <use x="55.615234" xlink:href="#ArialMT-2e"/>
       <use x="83.398438" xlink:href="#ArialMT-31"/>
      </g>
     </g>
    </g>
    <g id="xtick_3">
     <g id="line2d_3">
      <g>
       <use style="stroke:#000000;stroke-width:0.8;" x="139.334905" xlink:href="#ma0db0a0118" y="81.295168"/>
      </g>
     </g>
     <g id="text_3">
      <!-- 0.2 -->
      <defs>
       <path d="M 50.34375 8.453125 
L 50.34375 0 
L 3.03125 0 
Q 2.9375 3.171875 4.046875 6.109375 
Q 5.859375 10.9375 9.828125 15.625 
Q 13.8125 20.3125 21.34375 26.46875 
Q 33.015625 36.03125 37.109375 41.625 
Q 41.21875 47.21875 41.21875 52.203125 
Q 41.21875 57.421875 37.46875 61 
Q 33.734375 64.59375 27.734375 64.59375 
Q 21.390625 64.59375 17.578125 60.78125 
Q 13.765625 56.984375 13.71875 50.25 
L 4.6875 51.171875 
Q 5.609375 61.28125 11.65625 66.578125 
Q 17.71875 71.875 27.9375 71.875 
Q 38.234375 71.875 44.234375 66.15625 
Q 50.25 60.453125 50.25 52 
Q 50.25 47.703125 48.484375 43.546875 
Q 46.734375 39.40625 42.65625 34.8125 
Q 38.578125 30.21875 29.109375 22.21875 
Q 21.1875 15.578125 18.9375 13.203125 
Q 16.703125 10.84375 15.234375 8.453125 
z
" id="ArialMT-32"/>
      </defs>
      <g transform="translate(132.662905 92.666668)scale(0.096 -0.096)">
       <use xlink:href="#ArialMT-30"/>
       <use x="55.615234" xlink:href="#ArialMT-2e"/>
       <use x="83.398438" xlink:href="#ArialMT-32"/>
      </g>
     </g>
    </g>
    <g id="text_4">
     <!-- $\sigma_r$ -->
     <defs>
      <path d="M 62.5 45.296875 
L 60.796875 38.203125 
L 43.5 38.203125 
Q 49.203125 33.203125 49.203125 25.59375 
Q 49.203125 21.5 47.34375 17 
Q 45.5 12.5 42.140625 8.390625 
Q 38.796875 4.296875 33.390625 1.640625 
Q 28 -1 21.59375 -1 
Q 13.703125 -1 9.09375 3.546875 
Q 4.5 8.09375 4.5 15.59375 
Q 4.5 21.203125 7.046875 27.09375 
Q 9.59375 33 13.296875 36.703125 
Q 17.59375 41 23 43.140625 
Q 28.40625 45.296875 33 45.296875 
z
M 41.09375 23.703125 
Q 41.09375 28.796875 37.9375 32.5 
Q 34.796875 36.203125 30.59375 38.203125 
Q 23 38.203125 17.890625 31.953125 
Q 12.796875 25.703125 12.796875 17.703125 
Q 12.796875 12.40625 15.640625 9.25 
Q 18.5 6.09375 23.5 6.09375 
Q 31.296875 6.09375 36.1875 11.6875 
Q 41.09375 17.296875 41.09375 23.703125 
" id="STIXNonUnicode-Italic-e1ea"/>
      <path d="M 43.90625 44.703125 
L 42.09375 37.703125 
L 40.09375 37.703125 
Q 39.796875 38.40625 38.59375 38.796875 
Q 37.40625 39.203125 36.59375 39.203125 
Q 32.296875 39.203125 27.890625 35 
Q 23.5 30.796875 20 23.40625 
L 14.203125 0 
L 6.296875 0 
L 17.203125 44 
L 24.796875 46.40625 
L 25.59375 45.90625 
L 24.203125 39.5 
Q 30.59375 46.296875 38.59375 46.296875 
Q 42.296875 46.296875 43.90625 44.703125 
" id="STIXGeneral-Italic-1d633"/>
     </defs>
     <g transform="translate(83.59305 103.133318)scale(0.1056 -0.1056)">
      <use transform="translate(0 0.703125)" xlink:href="#STIXNonUnicode-Italic-e1ea"/>
      <use transform="translate(61.492692 -12.885937)scale(0.7)" xlink:href="#STIXGeneral-Italic-1d633"/>
     </g>
    </g>
   </g>
   <g id="matplotlib.axis_2">
    <g id="ytick_1">
     <g id="line2d_4">
      <defs>
       <path d="M 0 0 
L -2.5 0 
" id="m588816b47b" style="stroke:#000000;stroke-width:0.8;"/>
      </defs>
      <g>
       <use style="stroke:#000000;stroke-width:0.8;" x="32.03445" xlink:href="#m588816b47b" y="81.295168"/>
      </g>
     </g>
     <g id="text_5">
      <!-- 0 -->
      <g transform="translate(23.19595 84.730918)scale(0.096 -0.096)">
       <use xlink:href="#ArialMT-30"/>
      </g>
     </g>
    </g>
    <g id="ytick_2">
     <g id="line2d_5">
      <g>
       <use style="stroke:#000000;stroke-width:0.8;" x="32.03445" xlink:href="#m588816b47b" y="64.282088"/>
      </g>
     </g>
     <g id="text_6">
      <!-- 3 -->
      <defs>
       <path d="M 4.203125 18.890625 
L 12.984375 20.0625 
Q 14.5 12.59375 18.140625 9.296875 
Q 21.78125 6 27 6 
Q 33.203125 6 37.46875 10.296875 
Q 41.75 14.59375 41.75 20.953125 
Q 41.75 27 37.796875 30.921875 
Q 33.84375 34.859375 27.734375 34.859375 
Q 25.25 34.859375 21.53125 33.890625 
L 22.515625 41.609375 
Q 23.390625 41.5 23.921875 41.5 
Q 29.546875 41.5 34.03125 44.421875 
Q 38.53125 47.359375 38.53125 53.46875 
Q 38.53125 58.296875 35.25 61.46875 
Q 31.984375 64.65625 26.8125 64.65625 
Q 21.6875 64.65625 18.265625 61.421875 
Q 14.84375 58.203125 13.875 51.765625 
L 5.078125 53.328125 
Q 6.6875 62.15625 12.390625 67.015625 
Q 18.109375 71.875 26.609375 71.875 
Q 32.46875 71.875 37.390625 69.359375 
Q 42.328125 66.84375 44.9375 62.5 
Q 47.5625 58.15625 47.5625 53.265625 
Q 47.5625 48.640625 45.0625 44.828125 
Q 42.578125 41.015625 37.703125 38.765625 
Q 44.046875 37.3125 47.5625 32.6875 
Q 51.078125 28.078125 51.078125 21.140625 
Q 51.078125 11.765625 44.234375 5.25 
Q 37.40625 -1.265625 26.953125 -1.265625 
Q 17.53125 -1.265625 11.296875 4.34375 
Q 5.078125 9.96875 4.203125 18.890625 
" id="ArialMT-33"/>
      </defs>
      <g transform="translate(23.19595 67.717838)scale(0.096 -0.096)">
       <use xlink:href="#ArialMT-33"/>
      </g>
     </g>
    </g>
    <g id="ytick_3">
     <g id="line2d_6">
      <g>
       <use style="stroke:#000000;stroke-width:0.8;" x="32.03445" xlink:href="#m588816b47b" y="47.269008"/>
      </g>
     </g>
     <g id="text_7">
      <!-- 6 -->
      <defs>
       <path d="M 49.75 54.046875 
L 41.015625 53.375 
Q 39.84375 58.546875 37.703125 60.890625 
Q 34.125 64.65625 28.90625 64.65625 
Q 24.703125 64.65625 21.53125 62.3125 
Q 17.390625 59.28125 14.984375 53.46875 
Q 12.59375 47.65625 12.5 36.921875 
Q 15.671875 41.75 20.265625 44.09375 
Q 24.859375 46.4375 29.890625 46.4375 
Q 38.671875 46.4375 44.84375 39.96875 
Q 51.03125 33.5 51.03125 23.25 
Q 51.03125 16.5 48.125 10.71875 
Q 45.21875 4.9375 40.140625 1.859375 
Q 35.0625 -1.21875 28.609375 -1.21875 
Q 17.625 -1.21875 10.6875 6.859375 
Q 3.765625 14.9375 3.765625 33.5 
Q 3.765625 54.25 11.421875 63.671875 
Q 18.109375 71.875 29.4375 71.875 
Q 37.890625 71.875 43.28125 67.140625 
Q 48.6875 62.40625 49.75 54.046875 
M 13.875 23.1875 
Q 13.875 18.65625 15.796875 14.5 
Q 17.71875 10.359375 21.1875 8.171875 
Q 24.65625 6 28.46875 6 
Q 34.03125 6 38.03125 10.484375 
Q 42.046875 14.984375 42.046875 22.703125 
Q 42.046875 30.125 38.078125 34.390625 
Q 34.125 38.671875 28.125 38.671875 
Q 22.171875 38.671875 18.015625 34.390625 
Q 13.875 30.125 13.875 23.1875 
" id="ArialMT-36"/>
      </defs>
      <g transform="translate(23.19595 50.704758)scale(0.096 -0.096)">
       <use xlink:href="#ArialMT-36"/>
      </g>
     </g>
    </g>
    <g id="ytick_4">
     <g id="line2d_7">
      <g>
       <use style="stroke:#000000;stroke-width:0.8;" x="32.03445" xlink:href="#m588816b47b" y="30.255928"/>
      </g>
     </g>
     <g id="text_8">
      <!-- 9 -->
      <defs>
       <path d="M 5.46875 16.546875 
L 13.921875 17.328125 
Q 14.984375 11.375 18.015625 8.6875 
Q 21.046875 6 25.78125 6 
Q 29.828125 6 32.875 7.859375 
Q 35.9375 9.71875 37.890625 12.8125 
Q 39.84375 15.921875 41.15625 21.1875 
Q 42.484375 26.46875 42.484375 31.9375 
Q 42.484375 32.515625 42.4375 33.6875 
Q 39.796875 29.5 35.234375 26.875 
Q 30.671875 24.265625 25.34375 24.265625 
Q 16.453125 24.265625 10.296875 30.703125 
Q 4.15625 37.15625 4.15625 47.703125 
Q 4.15625 58.59375 10.578125 65.234375 
Q 17 71.875 26.65625 71.875 
Q 33.640625 71.875 39.421875 68.109375 
Q 45.21875 64.359375 48.21875 57.390625 
Q 51.21875 50.4375 51.21875 37.25 
Q 51.21875 23.53125 48.234375 15.40625 
Q 45.265625 7.28125 39.375 3.03125 
Q 33.5 -1.21875 25.59375 -1.21875 
Q 17.1875 -1.21875 11.859375 3.4375 
Q 6.546875 8.109375 5.46875 16.546875 
M 41.453125 48.140625 
Q 41.453125 55.71875 37.421875 60.15625 
Q 33.40625 64.59375 27.734375 64.59375 
Q 21.875 64.59375 17.53125 59.8125 
Q 13.1875 55.03125 13.1875 47.40625 
Q 13.1875 40.578125 17.3125 36.296875 
Q 21.4375 32.03125 27.484375 32.03125 
Q 33.59375 32.03125 37.515625 36.296875 
Q 41.453125 40.578125 41.453125 48.140625 
" id="ArialMT-39"/>
      </defs>
      <g transform="translate(23.19595 33.691678)scale(0.096 -0.096)">
       <use xlink:href="#ArialMT-39"/>
      </g>
     </g>
    </g>
    <g id="ytick_5">
     <g id="line2d_8">
      <g>
       <use style="stroke:#000000;stroke-width:0.8;" x="32.03445" xlink:href="#m588816b47b" y="13.242848"/>
      </g>
     </g>
     <g id="text_9">
      <!-- 12 -->
      <g transform="translate(17.85745 16.678598)scale(0.096 -0.096)">
       <use xlink:href="#ArialMT-31"/>
       <use x="55.615234" xlink:href="#ArialMT-32"/>
      </g>
     </g>
    </g>
    <g id="text_10">
     <!-- % clones left -->
     <defs>
      <path d="M 5.8125 54.390625 
Q 5.8125 62.0625 9.671875 67.421875 
Q 13.53125 72.796875 20.84375 72.796875 
Q 27.59375 72.796875 32 67.984375 
Q 36.421875 63.1875 36.421875 53.859375 
Q 36.421875 44.78125 31.953125 39.875 
Q 27.484375 34.96875 20.953125 34.96875 
Q 14.453125 34.96875 10.125 39.796875 
Q 5.8125 44.625 5.8125 54.390625 
M 21.09375 66.75 
Q 17.828125 66.75 15.65625 63.90625 
Q 13.484375 61.078125 13.484375 53.515625 
Q 13.484375 46.625 15.671875 43.8125 
Q 17.875 41.015625 21.09375 41.015625 
Q 24.421875 41.015625 26.59375 43.84375 
Q 28.765625 46.6875 28.765625 54.203125 
Q 28.765625 61.140625 26.5625 63.9375 
Q 24.359375 66.75 21.09375 66.75 
M 21.140625 -2.640625 
L 60.296875 72.796875 
L 67.4375 72.796875 
L 28.421875 -2.640625 
z
M 52.09375 16.796875 
Q 52.09375 24.515625 55.953125 29.859375 
Q 59.8125 35.203125 67.1875 35.203125 
Q 73.921875 35.203125 78.34375 30.390625 
Q 82.765625 25.59375 82.765625 16.265625 
Q 82.765625 7.171875 78.296875 2.265625 
Q 73.828125 -2.640625 67.234375 -2.640625 
Q 60.75 -2.640625 56.421875 2.21875 
Q 52.09375 7.078125 52.09375 16.796875 
M 67.4375 29.15625 
Q 64.109375 29.15625 61.9375 26.3125 
Q 59.765625 23.484375 59.765625 15.921875 
Q 59.765625 9.078125 61.953125 6.25 
Q 64.15625 3.421875 67.390625 3.421875 
Q 70.75 3.421875 72.921875 6.25 
Q 75.09375 9.078125 75.09375 16.609375 
Q 75.09375 23.53125 72.890625 26.34375 
Q 70.703125 29.15625 67.4375 29.15625 
" id="ArialMT-25"/>
      <path id="ArialMT-20"/>
      <path d="M 40.4375 19 
L 49.078125 17.875 
Q 47.65625 8.9375 41.8125 3.875 
Q 35.984375 -1.171875 27.484375 -1.171875 
Q 16.84375 -1.171875 10.375 5.78125 
Q 3.90625 12.75 3.90625 25.734375 
Q 3.90625 34.125 6.6875 40.421875 
Q 9.46875 46.734375 15.15625 49.875 
Q 20.84375 53.03125 27.546875 53.03125 
Q 35.984375 53.03125 41.359375 48.75 
Q 46.734375 44.484375 48.25 36.625 
L 39.703125 35.296875 
Q 38.484375 40.53125 35.375 43.15625 
Q 32.28125 45.796875 27.875 45.796875 
Q 21.234375 45.796875 17.078125 41.03125 
Q 12.9375 36.28125 12.9375 25.984375 
Q 12.9375 15.53125 16.9375 10.796875 
Q 20.953125 6.0625 27.390625 6.0625 
Q 32.5625 6.0625 36.03125 9.234375 
Q 39.5 12.40625 40.4375 19 
" id="ArialMT-63"/>
      <path d="M 6.390625 0 
L 6.390625 71.578125 
L 15.1875 71.578125 
L 15.1875 0 
z
" id="ArialMT-6c"/>
      <path d="M 3.328125 25.921875 
Q 3.328125 40.328125 11.328125 47.265625 
Q 18.015625 53.03125 27.640625 53.03125 
Q 38.328125 53.03125 45.109375 46.015625 
Q 51.90625 39.015625 51.90625 26.65625 
Q 51.90625 16.65625 48.90625 10.90625 
Q 45.90625 5.171875 40.15625 2 
Q 34.421875 -1.171875 27.640625 -1.171875 
Q 16.75 -1.171875 10.03125 5.8125 
Q 3.328125 12.796875 3.328125 25.921875 
M 12.359375 25.921875 
Q 12.359375 15.96875 16.703125 11.015625 
Q 21.046875 6.0625 27.640625 6.0625 
Q 34.1875 6.0625 38.53125 11.03125 
Q 42.875 16.015625 42.875 26.21875 
Q 42.875 35.84375 38.5 40.796875 
Q 34.125 45.75 27.640625 45.75 
Q 21.046875 45.75 16.703125 40.8125 
Q 12.359375 35.890625 12.359375 25.921875 
" id="ArialMT-6f"/>
      <path d="M 6.59375 0 
L 6.59375 51.859375 
L 14.5 51.859375 
L 14.5 44.484375 
Q 20.21875 53.03125 31 53.03125 
Q 35.6875 53.03125 39.625 51.34375 
Q 43.5625 49.65625 45.515625 46.921875 
Q 47.46875 44.1875 48.25 40.4375 
Q 48.734375 37.984375 48.734375 31.890625 
L 48.734375 0 
L 39.9375 0 
L 39.9375 31.546875 
Q 39.9375 36.921875 38.90625 39.578125 
Q 37.890625 42.234375 35.28125 43.8125 
Q 32.671875 45.40625 29.15625 45.40625 
Q 23.53125 45.40625 19.453125 41.84375 
Q 15.375 38.28125 15.375 28.328125 
L 15.375 0 
z
" id="ArialMT-6e"/>
      <path d="M 42.09375 16.703125 
L 51.171875 15.578125 
Q 49.03125 7.625 43.21875 3.21875 
Q 37.40625 -1.171875 28.375 -1.171875 
Q 17 -1.171875 10.328125 5.828125 
Q 3.65625 12.84375 3.65625 25.484375 
Q 3.65625 38.578125 10.390625 45.796875 
Q 17.140625 53.03125 27.875 53.03125 
Q 38.28125 53.03125 44.875 45.953125 
Q 51.46875 38.875 51.46875 26.03125 
Q 51.46875 25.25 51.421875 23.6875 
L 12.75 23.6875 
Q 13.234375 15.140625 17.578125 10.59375 
Q 21.921875 6.0625 28.421875 6.0625 
Q 33.25 6.0625 36.671875 8.59375 
Q 40.09375 11.140625 42.09375 16.703125 
M 13.234375 30.90625 
L 42.1875 30.90625 
Q 41.609375 37.453125 38.875 40.71875 
Q 34.671875 45.796875 27.984375 45.796875 
Q 21.921875 45.796875 17.796875 41.75 
Q 13.671875 37.703125 13.234375 30.90625 
" id="ArialMT-65"/>
      <path d="M 3.078125 15.484375 
L 11.765625 16.84375 
Q 12.5 11.625 15.84375 8.84375 
Q 19.1875 6.0625 25.203125 6.0625 
Q 31.25 6.0625 34.171875 8.515625 
Q 37.109375 10.984375 37.109375 14.3125 
Q 37.109375 17.28125 34.515625 19 
Q 32.71875 20.171875 25.53125 21.96875 
Q 15.875 24.421875 12.140625 26.203125 
Q 8.40625 27.984375 6.46875 31.125 
Q 4.546875 34.28125 4.546875 38.09375 
Q 4.546875 41.546875 6.125 44.5 
Q 7.71875 47.46875 10.453125 49.421875 
Q 12.5 50.921875 16.03125 51.96875 
Q 19.578125 53.03125 23.640625 53.03125 
Q 29.734375 53.03125 34.34375 51.265625 
Q 38.96875 49.515625 41.15625 46.5 
Q 43.359375 43.5 44.1875 38.484375 
L 35.59375 37.3125 
Q 35.015625 41.3125 32.203125 43.546875 
Q 29.390625 45.796875 24.265625 45.796875 
Q 18.21875 45.796875 15.625 43.796875 
Q 13.03125 41.796875 13.03125 39.109375 
Q 13.03125 37.40625 14.109375 36.03125 
Q 15.1875 34.625 17.484375 33.6875 
Q 18.796875 33.203125 25.25 31.453125 
Q 34.578125 28.953125 38.25 27.359375 
Q 41.9375 25.78125 44.03125 22.75 
Q 46.140625 19.734375 46.140625 15.234375 
Q 46.140625 10.84375 43.578125 6.953125 
Q 41.015625 3.078125 36.171875 0.953125 
Q 31.34375 -1.171875 25.25 -1.171875 
Q 15.140625 -1.171875 9.84375 3.03125 
Q 4.546875 7.234375 3.078125 15.484375 
" id="ArialMT-73"/>
      <path d="M 8.6875 0 
L 8.6875 45.015625 
L 0.921875 45.015625 
L 0.921875 51.859375 
L 8.6875 51.859375 
L 8.6875 57.375 
Q 8.6875 62.59375 9.625 65.140625 
Q 10.890625 68.5625 14.078125 70.671875 
Q 17.28125 72.796875 23.046875 72.796875 
Q 26.765625 72.796875 31.25 71.921875 
L 29.9375 64.265625 
Q 27.203125 64.75 24.75 64.75 
Q 20.75 64.75 19.09375 63.03125 
Q 17.4375 61.328125 17.4375 56.640625 
L 17.4375 51.859375 
L 27.546875 51.859375 
L 27.546875 45.015625 
L 17.4375 45.015625 
L 17.4375 0 
z
" id="ArialMT-66"/>
      <path d="M 25.78125 7.859375 
L 27.046875 0.09375 
Q 23.34375 -0.6875 20.40625 -0.6875 
Q 15.625 -0.6875 12.984375 0.828125 
Q 10.359375 2.34375 9.28125 4.8125 
Q 8.203125 7.28125 8.203125 15.1875 
L 8.203125 45.015625 
L 1.765625 45.015625 
L 1.765625 51.859375 
L 8.203125 51.859375 
L 8.203125 64.703125 
L 16.9375 69.96875 
L 16.9375 51.859375 
L 25.78125 51.859375 
L 25.78125 45.015625 
L 16.9375 45.015625 
L 16.9375 14.703125 
Q 16.9375 10.9375 17.40625 9.859375 
Q 17.875 8.796875 18.921875 8.15625 
Q 19.96875 7.515625 21.921875 7.515625 
Q 23.390625 7.515625 25.78125 7.859375 
" id="ArialMT-74"/>
     </defs>
     <g transform="translate(14.75865 77.202483)rotate(-90)scale(0.1056 -0.1056)">
      <use xlink:href="#ArialMT-25"/>
      <use x="88.916016" xlink:href="#ArialMT-20"/>
      <use x="116.699219" xlink:href="#ArialMT-63"/>
      <use x="166.699219" xlink:href="#ArialMT-6c"/>
      <use x="188.916016" xlink:href="#ArialMT-6f"/>
      <use x="244.53125" xlink:href="#ArialMT-6e"/>
      <use x="300.146484" xlink:href="#ArialMT-65"/>
      <use x="355.761719" xlink:href="#ArialMT-73"/>
      <use x="405.761719" xlink:href="#ArialMT-20"/>
      <use x="433.544922" xlink:href="#ArialMT-6c"/>
      <use x="455.761719" xlink:href="#ArialMT-65"/>
      <use x="511.376953" xlink:href="#ArialMT-66"/>
      <use x="539.160156" xlink:href="#ArialMT-74"/>
     </g>
    </g>
   </g>
   <g id="PolyCollection_1">
    <defs>
     <path d="M 37.143995 -89.481882 
L 37.143995 -91.075793 
L 49.917859 -89.780783 
L 62.691723 -85.621429 
L 75.465586 -81.376212 
L 88.23945 -76.380879 
L 101.013314 -70.587785 
L 113.787177 -65.828762 
L 126.561041 -62.200589 
L 139.334905 -59.958885 
L 139.334905 -57.454454 
L 139.334905 -57.454454 
L 126.561041 -60.786026 
L 113.787177 -64.442989 
L 101.013314 -68.330812 
L 88.23945 -73.742628 
L 75.465586 -78.979555 
L 62.691723 -83.770243 
L 49.917859 -88.306366 
L 37.143995 -89.481882 
z
" id="m51cdf4706a" style="stroke:#ff0000;stroke-opacity:0.2;stroke-width:0.24;"/>
    </defs>
    <g clip-path="url(#pec15c8995a)">
     <use style="fill:#ff0000;fill-opacity:0.2;stroke:#ff0000;stroke-opacity:0.2;stroke-width:0.24;" x="0" xlink:href="#m51cdf4706a" y="112.432118"/>
    </g>
   </g>
   <g id="PolyCollection_2">
    <defs>
     <path d="M 37.143995 -59.255637 
L 37.143995 -60.871392 
L 49.917859 -57.728354 
L 62.691723 -50.799259 
L 75.465586 -45.736495 
L 88.23945 -41.951996 
L 101.013314 -39.473333 
L 113.787177 -38.030724 
L 126.561041 -37.572643 
L 139.334905 -36.887191 
L 139.334905 -35.64815 
L 139.334905 -35.64815 
L 126.561041 -36.382765 
L 113.787177 -37.130768 
L 101.013314 -38.800633 
L 88.23945 -40.387641 
L 75.465586 -44.345423 
L 62.691723 -49.193947 
L 49.917859 -56.212631 
L 37.143995 -59.255637 
z
" id="ma2c7eb3021" style="stroke:#008000;stroke-opacity:0.2;stroke-width:0.24;"/>
    </defs>
    <g clip-path="url(#pec15c8995a)">
     <use style="fill:#008000;fill-opacity:0.2;stroke:#008000;stroke-opacity:0.2;stroke-width:0.24;" x="0" xlink:href="#ma2c7eb3021" y="112.432118"/>
    </g>
   </g>
   <g id="PolyCollection_3">
    <defs>
     <path d="M 37.143995 -50.361711 
L 37.143995 -51.4698 
L 49.917859 -46.687191 
L 62.691723 -40.3241 
L 75.465586 -37.27921 
L 88.23945 -35.458919 
L 101.013314 -34.751301 
L 113.787177 -34.26143 
L 126.561041 -33.803316 
L 139.334905 -33.685829 
L 139.334905 -33.003895 
L 139.334905 -33.003895 
L 126.561041 -33.382459 
L 113.787177 -33.400943 
L 101.013314 -34.097702 
L 88.23945 -34.518357 
L 75.465586 -36.189873 
L 62.691723 -39.029507 
L 49.917859 -45.651271 
L 37.143995 -50.361711 
z
" id="mcee1098629" style="stroke:#bfbf00;stroke-opacity:0.2;stroke-width:0.24;"/>
    </defs>
    <g clip-path="url(#pec15c8995a)">
     <use style="fill:#bfbf00;fill-opacity:0.2;stroke:#bfbf00;stroke-opacity:0.2;stroke-width:0.24;" x="0" xlink:href="#mcee1098629" y="112.432118"/>
    </g>
   </g>
   <g id="line2d_9">
    <path clip-path="url(#pec15c8995a)" d="M 37.143995 22.15328 
L 49.917859 23.388544 
L 62.691723 27.736282 
L 75.465586 32.254234 
L 88.23945 37.370365 
L 101.013314 42.97282 
L 113.787177 47.296242 
L 126.561041 50.938811 
L 139.334905 53.725448 
" style="fill:none;stroke:#ff0000;stroke-linecap:round;stroke-width:1.25;"/>
    <defs>
     <path d="M 0 2 
C 0.530406 2 1.03916 1.789267 1.414214 1.414214 
C 1.789267 1.03916 2 0.530406 2 0 
C 2 -0.530406 1.789267 -1.03916 1.414214 -1.414214 
C 1.03916 -1.789267 0.530406 -2 0 -2 
C -0.530406 -2 -1.03916 -1.789267 -1.414214 -1.414214 
C -1.789267 -1.03916 -2 -0.530406 -2 0 
C -2 0.530406 -1.789267 1.03916 -1.414214 1.414214 
C -1.03916 1.789267 -0.530406 2 0 2 
z
" id="m4828f3c4c5"/>
    </defs>
    <g clip-path="url(#pec15c8995a)">
     <use style="fill:#ff0000;" x="37.143995" xlink:href="#m4828f3c4c5" y="22.15328"/>
     <use style="fill:#ff0000;" x="49.917859" xlink:href="#m4828f3c4c5" y="23.388544"/>
     <use style="fill:#ff0000;" x="62.691723" xlink:href="#m4828f3c4c5" y="27.736282"/>
     <use style="fill:#ff0000;" x="75.465586" xlink:href="#m4828f3c4c5" y="32.254234"/>
     <use style="fill:#ff0000;" x="88.23945" xlink:href="#m4828f3c4c5" y="37.370365"/>
     <use style="fill:#ff0000;" x="101.013314" xlink:href="#m4828f3c4c5" y="42.97282"/>
     <use style="fill:#ff0000;" x="113.787177" xlink:href="#m4828f3c4c5" y="47.296242"/>
     <use style="fill:#ff0000;" x="126.561041" xlink:href="#m4828f3c4c5" y="50.938811"/>
     <use style="fill:#ff0000;" x="139.334905" xlink:href="#m4828f3c4c5" y="53.725448"/>
    </g>
   </g>
   <g id="line2d_10">
    <path clip-path="url(#pec15c8995a)" d="M 37.143995 52.368604 
L 49.917859 55.461626 
L 62.691723 62.435515 
L 75.465586 67.391159 
L 88.23945 71.262299 
L 101.013314 73.295135 
L 113.787177 74.851372 
L 126.561041 75.454414 
L 139.334905 76.164448 
" style="fill:none;stroke:#008000;stroke-linecap:round;stroke-width:1.25;"/>
    <defs>
     <path d="M -2 2 
L 2 2 
L 2 -2 
L -2 -2 
z
" id="mea268f7aab"/>
    </defs>
    <g clip-path="url(#pec15c8995a)">
     <use style="fill:#008000;" x="37.143995" xlink:href="#mea268f7aab" y="52.368604"/>
     <use style="fill:#008000;" x="49.917859" xlink:href="#mea268f7aab" y="55.461626"/>
     <use style="fill:#008000;" x="62.691723" xlink:href="#mea268f7aab" y="62.435515"/>
     <use style="fill:#008000;" x="75.465586" xlink:href="#mea268f7aab" y="67.391159"/>
     <use style="fill:#008000;" x="88.23945" xlink:href="#mea268f7aab" y="71.262299"/>
     <use style="fill:#008000;" x="101.013314" xlink:href="#mea268f7aab" y="73.295135"/>
     <use style="fill:#008000;" x="113.787177" xlink:href="#mea268f7aab" y="74.851372"/>
     <use style="fill:#008000;" x="126.561041" xlink:href="#mea268f7aab" y="75.454414"/>
     <use style="fill:#008000;" x="139.334905" xlink:href="#mea268f7aab" y="76.164448"/>
    </g>
   </g>
   <g id="line2d_11">
    <path clip-path="url(#pec15c8995a)" d="M 37.143995 61.516362 
L 49.917859 66.262887 
L 62.691723 72.755315 
L 75.465586 75.697576 
L 88.23945 77.44348 
L 101.013314 78.007616 
L 113.787177 78.600932 
L 126.561041 78.839231 
L 139.334905 79.087256 
" style="fill:none;stroke:#bfbf00;stroke-linecap:round;stroke-width:1.25;"/>
    <defs>
     <path d="M -0 2 
L 2 -2 
L -2 -2 
z
" id="m10983cf7ea"/>
    </defs>
    <g clip-path="url(#pec15c8995a)">
     <use style="fill:#bfbf00;" x="37.143995" xlink:href="#m10983cf7ea" y="61.516362"/>
     <use style="fill:#bfbf00;" x="49.917859" xlink:href="#m10983cf7ea" y="66.262887"/>
     <use style="fill:#bfbf00;" x="62.691723" xlink:href="#m10983cf7ea" y="72.755315"/>
     <use style="fill:#bfbf00;" x="75.465586" xlink:href="#m10983cf7ea" y="75.697576"/>
     <use style="fill:#bfbf00;" x="88.23945" xlink:href="#m10983cf7ea" y="77.44348"/>
     <use style="fill:#bfbf00;" x="101.013314" xlink:href="#m10983cf7ea" y="78.007616"/>
     <use style="fill:#bfbf00;" x="113.787177" xlink:href="#m10983cf7ea" y="78.600932"/>
     <use style="fill:#bfbf00;" x="126.561041" xlink:href="#m10983cf7ea" y="78.839231"/>
     <use style="fill:#bfbf00;" x="139.334905" xlink:href="#m10983cf7ea" y="79.087256"/>
    </g>
   </g>
   <g id="patch_3">
    <path d="M 32.03445 81.295168 
L 32.03445 13.242848 
" style="fill:none;stroke:#000000;stroke-linecap:square;stroke-linejoin:miter;stroke-width:0.8;"/>
   </g>
   <g id="patch_4">
    <path d="M 37.143995 81.295168 
L 139.334905 81.295168 
" style="fill:none;stroke:#000000;stroke-linecap:square;stroke-linejoin:miter;stroke-width:0.8;"/>
   </g>
   <g id="legend_1">
    <g id="line2d_12">
     <path d="M 118.373558 13.578958 
L 130.868558 13.578958 
" style="fill:none;stroke:#ff0000;stroke-linecap:round;stroke-width:1.25;"/>
    </g>
    <g id="line2d_13">
     <defs>
      <path d="M 0 1.8 
C 0.477366 1.8 0.935244 1.610341 1.272792 1.272792 
C 1.610341 0.935244 1.8 0.477366 1.8 0 
C 1.8 -0.477366 1.610341 -0.935244 1.272792 -1.272792 
C 0.935244 -1.610341 0.477366 -1.8 0 -1.8 
C -0.477366 -1.8 -0.935244 -1.610341 -1.272792 -1.272792 
C -1.610341 -0.935244 -1.8 -0.477366 -1.8 0 
C -1.8 0.477366 -1.610341 0.935244 -1.272792 1.272792 
C -0.935244 1.610341 -0.477366 1.8 0 1.8 
z
" id="m4feb7e3f9e"/>
     </defs>
     <g>
      <use style="fill:#ff0000;" x="124.621058" xlink:href="#m4feb7e3f9e" y="13.578958"/>
     </g>
    </g>
    <g id="text_11">
     <!-- P10 -->
     <defs>
      <path d="M 7.71875 0 
L 7.71875 71.578125 
L 34.71875 71.578125 
Q 41.84375 71.578125 45.609375 70.90625 
Q 50.875 70.015625 54.4375 67.546875 
Q 58.015625 65.09375 60.1875 60.640625 
Q 62.359375 56.203125 62.359375 50.875 
Q 62.359375 41.75 56.546875 35.421875 
Q 50.734375 29.109375 35.546875 29.109375 
L 17.1875 29.109375 
L 17.1875 0 
z
M 17.1875 37.546875 
L 35.6875 37.546875 
Q 44.875 37.546875 48.734375 40.96875 
Q 52.59375 44.390625 52.59375 50.59375 
Q 52.59375 55.078125 50.3125 58.265625 
Q 48.046875 61.46875 44.34375 62.5 
Q 41.9375 63.140625 35.5 63.140625 
L 17.1875 63.140625 
z
" id="ArialMT-50"/>
     </defs>
     <g transform="translate(133.367558 16.494458)scale(0.0833 -0.0833)">
      <use xlink:href="#ArialMT-50"/>
      <use x="66.699219" xlink:href="#ArialMT-31"/>
      <use x="122.314453" xlink:href="#ArialMT-30"/>
     </g>
    </g>
    <g id="line2d_14">
     <path d="M 118.373558 22.863003 
L 130.868558 22.863003 
" style="fill:none;stroke:#008000;stroke-linecap:round;stroke-width:1.25;"/>
    </g>
    <g id="line2d_15">
     <defs>
      <path d="M -1.8 1.8 
L 1.8 1.8 
L 1.8 -1.8 
L -1.8 -1.8 
z
" id="m1f63cc2966"/>
     </defs>
     <g>
      <use style="fill:#008000;" x="124.621058" xlink:href="#m1f63cc2966" y="22.863003"/>
     </g>
    </g>
    <g id="text_12">
     <!-- P20 -->
     <g transform="translate(133.367558 25.778503)scale(0.0833 -0.0833)">
      <use xlink:href="#ArialMT-50"/>
      <use x="66.699219" xlink:href="#ArialMT-32"/>
      <use x="122.314453" xlink:href="#ArialMT-30"/>
     </g>
    </g>
    <g id="line2d_16">
     <path d="M 118.373558 32.147048 
L 130.868558 32.147048 
" style="fill:none;stroke:#bfbf00;stroke-linecap:round;stroke-width:1.25;"/>
    </g>
    <g id="line2d_17">
     <defs>
      <path d="M -0 1.8 
L 1.8 -1.8 
L -1.8 -1.8 
z
" id="m04067660f8"/>
     </defs>
     <g>
      <use style="fill:#bfbf00;" x="124.621058" xlink:href="#m04067660f8" y="32.147048"/>
     </g>
    </g>
    <g id="text_13">
     <!-- P30 -->
     <g transform="translate(133.367558 35.062548)scale(0.0833 -0.0833)">
      <use xlink:href="#ArialMT-50"/>
      <use x="66.699219" xlink:href="#ArialMT-33"/>
      <use x="122.314453" xlink:href="#ArialMT-30"/>
     </g>
    </g>
   </g>
  </g>
  <g id="axes_2">
   <g id="patch_5">
    <path d="M 185.48445 81.295168 
L 297.89445 81.295168 
L 297.89445 13.242848 
L 185.48445 13.242848 
z
" style="fill:none;"/>
   </g>
   <g id="matplotlib.axis_3">
    <g id="xtick_4">
     <g id="line2d_18">
      <g>
       <use style="stroke:#000000;stroke-width:0.8;" x="190.593995" xlink:href="#ma0db0a0118" y="81.295168"/>
      </g>
     </g>
     <g id="text_14">
      <!-- 0.0 -->
      <g transform="translate(183.921995 92.666668)scale(0.096 -0.096)">
       <use xlink:href="#ArialMT-30"/>
       <use x="55.615234" xlink:href="#ArialMT-2e"/>
       <use x="83.398438" xlink:href="#ArialMT-30"/>
      </g>
     </g>
    </g>
    <g id="xtick_5">
     <g id="line2d_19">
      <g>
       <use style="stroke:#000000;stroke-width:0.8;" x="241.68945" xlink:href="#ma0db0a0118" y="81.295168"/>
      </g>
     </g>
     <g id="text_15">
      <!-- 0.1 -->
      <g transform="translate(235.01745 92.666668)scale(0.096 -0.096)">
       <use xlink:href="#ArialMT-30"/>
       <use x="55.615234" xlink:href="#ArialMT-2e"/>
       <use x="83.398438" xlink:href="#ArialMT-31"/>
      </g>
     </g>
    </g>
    <g id="xtick_6">
     <g id="line2d_20">
      <g>
       <use style="stroke:#000000;stroke-width:0.8;" x="292.784905" xlink:href="#ma0db0a0118" y="81.295168"/>
      </g>
     </g>
     <g id="text_16">
      <!-- 0.2 -->
      <g transform="translate(286.112905 92.666668)scale(0.096 -0.096)">
       <use xlink:href="#ArialMT-30"/>
       <use x="55.615234" xlink:href="#ArialMT-2e"/>
       <use x="83.398438" xlink:href="#ArialMT-32"/>
      </g>
     </g>
    </g>
    <g id="text_17">
     <!-- $\sigma_r$ -->
     <g transform="translate(237.04305 103.133318)scale(0.1056 -0.1056)">
      <use transform="translate(0 0.703125)" xlink:href="#STIXNonUnicode-Italic-e1ea"/>
      <use transform="translate(61.492692 -12.885937)scale(0.7)" xlink:href="#STIXGeneral-Italic-1d633"/>
     </g>
    </g>
   </g>
   <g id="matplotlib.axis_4">
    <g id="ytick_6">
     <g id="line2d_21">
      <g>
       <use style="stroke:#000000;stroke-width:0.8;" x="185.48445" xlink:href="#m588816b47b" y="81.295168"/>
      </g>
     </g>
     <g id="text_18">
      <!-- 0.5 -->
      <defs>
       <path d="M 4.15625 18.75 
L 13.375 19.53125 
Q 14.40625 12.796875 18.140625 9.390625 
Q 21.875 6 27.15625 6 
Q 33.5 6 37.890625 10.78125 
Q 42.28125 15.578125 42.28125 23.484375 
Q 42.28125 31 38.0625 35.34375 
Q 33.84375 39.703125 27 39.703125 
Q 22.75 39.703125 19.328125 37.765625 
Q 15.921875 35.84375 13.96875 32.765625 
L 5.71875 33.84375 
L 12.640625 70.609375 
L 48.25 70.609375 
L 48.25 62.203125 
L 19.671875 62.203125 
L 15.828125 42.96875 
Q 22.265625 47.46875 29.34375 47.46875 
Q 38.71875 47.46875 45.15625 40.96875 
Q 51.609375 34.46875 51.609375 24.265625 
Q 51.609375 14.546875 45.953125 7.46875 
Q 39.0625 -1.21875 27.15625 -1.21875 
Q 17.390625 -1.21875 11.203125 4.25 
Q 5.03125 9.71875 4.15625 18.75 
" id="ArialMT-35"/>
      </defs>
      <g transform="translate(168.64045 84.730918)scale(0.096 -0.096)">
       <use xlink:href="#ArialMT-30"/>
       <use x="55.615234" xlink:href="#ArialMT-2e"/>
       <use x="83.398438" xlink:href="#ArialMT-35"/>
      </g>
     </g>
    </g>
    <g id="ytick_7">
     <g id="line2d_22">
      <g>
       <use style="stroke:#000000;stroke-width:0.8;" x="185.48445" xlink:href="#m588816b47b" y="64.282088"/>
      </g>
     </g>
     <g id="text_19">
      <!-- 0.6 -->
      <g transform="translate(168.64045 67.717838)scale(0.096 -0.096)">
       <use xlink:href="#ArialMT-30"/>
       <use x="55.615234" xlink:href="#ArialMT-2e"/>
       <use x="83.398438" xlink:href="#ArialMT-36"/>
      </g>
     </g>
    </g>
    <g id="ytick_8">
     <g id="line2d_23">
      <g>
       <use style="stroke:#000000;stroke-width:0.8;" x="185.48445" xlink:href="#m588816b47b" y="47.269008"/>
      </g>
     </g>
     <g id="text_20">
      <!-- 0.7 -->
      <defs>
       <path d="M 4.734375 62.203125 
L 4.734375 70.65625 
L 51.078125 70.65625 
L 51.078125 63.8125 
Q 44.234375 56.546875 37.515625 44.484375 
Q 30.8125 32.421875 27.15625 19.671875 
Q 24.515625 10.6875 23.78125 0 
L 14.75 0 
Q 14.890625 8.453125 18.0625 20.40625 
Q 21.234375 32.375 27.171875 43.484375 
Q 33.109375 54.59375 39.796875 62.203125 
z
" id="ArialMT-37"/>
      </defs>
      <g transform="translate(168.64045 50.704758)scale(0.096 -0.096)">
       <use xlink:href="#ArialMT-30"/>
       <use x="55.615234" xlink:href="#ArialMT-2e"/>
       <use x="83.398438" xlink:href="#ArialMT-37"/>
      </g>
     </g>
    </g>
    <g id="ytick_9">
     <g id="line2d_24">
      <g>
       <use style="stroke:#000000;stroke-width:0.8;" x="185.48445" xlink:href="#m588816b47b" y="30.255928"/>
      </g>
     </g>
     <g id="text_21">
      <!-- 0.8 -->
      <defs>
       <path d="M 17.671875 38.8125 
Q 12.203125 40.828125 9.5625 44.53125 
Q 6.9375 48.25 6.9375 53.421875 
Q 6.9375 61.234375 12.546875 66.546875 
Q 18.171875 71.875 27.484375 71.875 
Q 36.859375 71.875 42.578125 66.421875 
Q 48.296875 60.984375 48.296875 53.171875 
Q 48.296875 48.1875 45.671875 44.5 
Q 43.0625 40.828125 37.75 38.8125 
Q 44.34375 36.671875 47.78125 31.875 
Q 51.21875 27.09375 51.21875 20.453125 
Q 51.21875 11.28125 44.71875 5.03125 
Q 38.234375 -1.21875 27.640625 -1.21875 
Q 17.046875 -1.21875 10.546875 5.046875 
Q 4.046875 11.328125 4.046875 20.703125 
Q 4.046875 27.6875 7.59375 32.390625 
Q 11.140625 37.109375 17.671875 38.8125 
M 15.921875 53.71875 
Q 15.921875 48.640625 19.1875 45.40625 
Q 22.46875 42.1875 27.6875 42.1875 
Q 32.765625 42.1875 36.015625 45.375 
Q 39.265625 48.578125 39.265625 53.21875 
Q 39.265625 58.0625 35.90625 61.359375 
Q 32.5625 64.65625 27.59375 64.65625 
Q 22.5625 64.65625 19.234375 61.421875 
Q 15.921875 58.203125 15.921875 53.71875 
M 13.09375 20.65625 
Q 13.09375 16.890625 14.875 13.375 
Q 16.65625 9.859375 20.171875 7.921875 
Q 23.6875 6 27.734375 6 
Q 34.03125 6 38.125 10.046875 
Q 42.234375 14.109375 42.234375 20.359375 
Q 42.234375 26.703125 38.015625 30.859375 
Q 33.796875 35.015625 27.4375 35.015625 
Q 21.234375 35.015625 17.15625 30.90625 
Q 13.09375 26.8125 13.09375 20.65625 
" id="ArialMT-38"/>
      </defs>
      <g transform="translate(168.64045 33.691678)scale(0.096 -0.096)">
       <use xlink:href="#ArialMT-30"/>
       <use x="55.615234" xlink:href="#ArialMT-2e"/>
       <use x="83.398438" xlink:href="#ArialMT-38"/>
      </g>
     </g>
    </g>
    <g id="ytick_10">
     <g id="line2d_25">
      <g>
       <use style="stroke:#000000;stroke-width:0.8;" x="185.48445" xlink:href="#m588816b47b" y="13.242848"/>
      </g>
     </g>
     <g id="text_22">
      <!-- 0.9 -->
      <g transform="translate(168.64045 16.678598)scale(0.096 -0.096)">
       <use xlink:href="#ArialMT-30"/>
       <use x="55.615234" xlink:href="#ArialMT-2e"/>
       <use x="83.398438" xlink:href="#ArialMT-39"/>
      </g>
     </g>
    </g>
    <g id="text_23">
     <!-- Gini coefficient -->
     <defs>
      <path d="M 41.21875 28.078125 
L 41.21875 36.46875 
L 71.53125 36.53125 
L 71.53125 9.96875 
Q 64.546875 4.390625 57.125 1.578125 
Q 49.703125 -1.21875 41.890625 -1.21875 
Q 31.34375 -1.21875 22.71875 3.296875 
Q 14.109375 7.8125 9.71875 16.359375 
Q 5.328125 24.90625 5.328125 35.453125 
Q 5.328125 45.90625 9.6875 54.953125 
Q 14.0625 64.015625 22.265625 68.40625 
Q 30.46875 72.796875 41.15625 72.796875 
Q 48.921875 72.796875 55.1875 70.28125 
Q 61.46875 67.78125 65.03125 63.28125 
Q 68.609375 58.796875 70.453125 51.5625 
L 61.921875 49.21875 
Q 60.296875 54.6875 57.90625 57.8125 
Q 55.515625 60.9375 51.0625 62.8125 
Q 46.625 64.703125 41.21875 64.703125 
Q 34.71875 64.703125 29.984375 62.71875 
Q 25.25 60.75 22.34375 57.515625 
Q 19.4375 54.296875 17.828125 50.4375 
Q 15.09375 43.796875 15.09375 36.03125 
Q 15.09375 26.46875 18.390625 20.015625 
Q 21.6875 13.578125 27.984375 10.453125 
Q 34.28125 7.328125 41.359375 7.328125 
Q 47.515625 7.328125 53.375 9.6875 
Q 59.234375 12.0625 62.25 14.75 
L 62.25 28.078125 
z
" id="ArialMT-47"/>
      <path d="M 6.640625 61.46875 
L 6.640625 71.578125 
L 15.4375 71.578125 
L 15.4375 61.46875 
z
M 6.640625 0 
L 6.640625 51.859375 
L 15.4375 51.859375 
L 15.4375 0 
z
" id="ArialMT-69"/>
     </defs>
     <g transform="translate(165.54165 81.895908)rotate(-90)scale(0.1056 -0.1056)">
      <use xlink:href="#ArialMT-47"/>
      <use x="77.783203" xlink:href="#ArialMT-69"/>
      <use x="100" xlink:href="#ArialMT-6e"/>
      <use x="155.615234" xlink:href="#ArialMT-69"/>
      <use x="177.832031" xlink:href="#ArialMT-20"/>
      <use x="205.615234" xlink:href="#ArialMT-63"/>
      <use x="255.615234" xlink:href="#ArialMT-6f"/>
      <use x="311.230469" xlink:href="#ArialMT-65"/>
      <use x="366.845703" xlink:href="#ArialMT-66"/>
      <use x="394.613281" xlink:href="#ArialMT-66"/>
      <use x="422.396484" xlink:href="#ArialMT-69"/>
      <use x="444.613281" xlink:href="#ArialMT-63"/>
      <use x="494.613281" xlink:href="#ArialMT-69"/>
      <use x="516.830078" xlink:href="#ArialMT-65"/>
      <use x="572.445312" xlink:href="#ArialMT-6e"/>
      <use x="628.060547" xlink:href="#ArialMT-74"/>
     </g>
    </g>
   </g>
   <g id="PolyCollection_4">
    <defs>
     <path d="M 190.593995 -32.522031 
L 190.593995 -35.840527 
L 203.367859 -42.606437 
L 216.141723 -57.271465 
L 228.915586 -70.552615 
L 241.68945 -81.301668 
L 254.463314 -86.99136 
L 267.237177 -92.118773 
L 280.011041 -93.546881 
L 292.784905 -96.249842 
L 292.784905 -91.032842 
L 292.784905 -91.032842 
L 280.011041 -88.616334 
L 267.237177 -88.246223 
L 254.463314 -82.542176 
L 241.68945 -76.082988 
L 228.915586 -64.887408 
L 216.141723 -53.419389 
L 203.367859 -38.704084 
L 190.593995 -32.522031 
z
" id="mb5dfb7a72e" style="stroke:#ff0000;stroke-opacity:0.2;stroke-width:0.24;"/>
    </defs>
    <g clip-path="url(#pd4dff479cd)">
     <use style="fill:#ff0000;fill-opacity:0.2;stroke:#ff0000;stroke-opacity:0.2;stroke-width:0.24;" x="0" xlink:href="#mb5dfb7a72e" y="112.432118"/>
    </g>
   </g>
   <g id="PolyCollection_5">
    <defs>
     <path d="M 190.593995 -28.857143 
L 190.593995 -31.410463 
L 203.367859 -50.518861 
L 216.141723 -76.869132 
L 228.915586 -89.472211 
L 241.68945 -93.791851 
L 254.463314 -94.439384 
L 267.237177 -96.495981 
L 280.011041 -94.120595 
L 292.784905 -95.074732 
L 292.784905 -88.984005 
L 292.784905 -88.984005 
L 280.011041 -88.167539 
L 267.237177 -88.491337 
L 254.463314 -86.143117 
L 241.68945 -88.796968 
L 228.915586 -82.027786 
L 216.141723 -70.603903 
L 203.367859 -44.69142 
L 190.593995 -28.857143 
z
" id="m54dd62ab4d" style="stroke:#008000;stroke-opacity:0.2;stroke-width:0.24;"/>
    </defs>
    <g clip-path="url(#pd4dff479cd)">
     <use style="fill:#008000;fill-opacity:0.2;stroke:#008000;stroke-opacity:0.2;stroke-width:0.24;" x="0" xlink:href="#m54dd62ab4d" y="112.432118"/>
    </g>
   </g>
   <g id="PolyCollection_6">
    <defs>
     <path d="M 190.593995 -25.178429 
L 190.593995 -30.361197 
L 203.367859 -61.80084 
L 216.141723 -89.147464 
L 228.915586 -93.735392 
L 241.68945 -92.010542 
L 254.463314 -93.219288 
L 267.237177 -98.157764 
L 280.011041 -94.147414 
L 292.784905 -92.138059 
L 292.784905 -81.531401 
L 292.784905 -81.531401 
L 280.011041 -78.633321 
L 267.237177 -83.932696 
L 254.463314 -81.440041 
L 241.68945 -86.210174 
L 228.915586 -86.055055 
L 216.141723 -78.32062 
L 203.367859 -55.566883 
L 190.593995 -25.178429 
z
" id="m97dcc7a208" style="stroke:#bfbf00;stroke-opacity:0.2;stroke-width:0.24;"/>
    </defs>
    <g clip-path="url(#pd4dff479cd)">
     <use style="fill:#bfbf00;fill-opacity:0.2;stroke:#bfbf00;stroke-opacity:0.2;stroke-width:0.24;" x="0" xlink:href="#m97dcc7a208" y="112.432118"/>
    </g>
   </g>
   <g id="line2d_26">
    <path clip-path="url(#pd4dff479cd)" d="M 190.593995 78.250839 
L 203.367859 71.776857 
L 216.141723 57.086691 
L 228.915586 44.712107 
L 241.68945 33.73979 
L 254.463314 27.66535 
L 267.237177 22.24962 
L 280.011041 21.35051 
L 292.784905 18.790776 
" style="fill:none;stroke:#ff0000;stroke-linecap:round;stroke-width:1.25;"/>
    <g clip-path="url(#pd4dff479cd)">
     <use style="fill:#ff0000;" x="190.593995" xlink:href="#m4828f3c4c5" y="78.250839"/>
     <use style="fill:#ff0000;" x="203.367859" xlink:href="#m4828f3c4c5" y="71.776857"/>
     <use style="fill:#ff0000;" x="216.141723" xlink:href="#m4828f3c4c5" y="57.086691"/>
     <use style="fill:#ff0000;" x="228.915586" xlink:href="#m4828f3c4c5" y="44.712107"/>
     <use style="fill:#ff0000;" x="241.68945" xlink:href="#m4828f3c4c5" y="33.73979"/>
     <use style="fill:#ff0000;" x="254.463314" xlink:href="#m4828f3c4c5" y="27.66535"/>
     <use style="fill:#ff0000;" x="267.237177" xlink:href="#m4828f3c4c5" y="22.24962"/>
     <use style="fill:#ff0000;" x="280.011041" xlink:href="#m4828f3c4c5" y="21.35051"/>
     <use style="fill:#ff0000;" x="292.784905" xlink:href="#m4828f3c4c5" y="18.790776"/>
    </g>
   </g>
   <g id="line2d_27">
    <path clip-path="url(#pd4dff479cd)" d="M 190.593995 68.876994 
L 241.68945 68.876994 
" style="fill:none;stroke:#ff0000;stroke-dasharray:2.2,2.2;stroke-dashoffset:0;stroke-width:0.5;"/>
   </g>
   <g id="line2d_28">
    <path clip-path="url(#pd4dff479cd)" d="M 190.593995 82.298315 
L 203.367859 64.826977 
L 216.141723 38.695601 
L 228.915586 26.682119 
L 241.68945 21.137709 
L 254.463314 22.140868 
L 267.237177 19.938459 
L 280.011041 21.288051 
L 292.784905 20.40275 
" style="fill:none;stroke:#008000;stroke-linecap:round;stroke-width:1.25;"/>
    <g clip-path="url(#pd4dff479cd)">
     <use style="fill:#008000;" x="190.593995" xlink:href="#mea268f7aab" y="82.298315"/>
     <use style="fill:#008000;" x="203.367859" xlink:href="#mea268f7aab" y="64.826977"/>
     <use style="fill:#008000;" x="216.141723" xlink:href="#mea268f7aab" y="38.695601"/>
     <use style="fill:#008000;" x="228.915586" xlink:href="#mea268f7aab" y="26.682119"/>
     <use style="fill:#008000;" x="241.68945" xlink:href="#mea268f7aab" y="21.137709"/>
     <use style="fill:#008000;" x="254.463314" xlink:href="#mea268f7aab" y="22.140868"/>
     <use style="fill:#008000;" x="267.237177" xlink:href="#mea268f7aab" y="19.938459"/>
     <use style="fill:#008000;" x="280.011041" xlink:href="#mea268f7aab" y="21.288051"/>
     <use style="fill:#008000;" x="292.784905" xlink:href="#mea268f7aab" y="20.40275"/>
    </g>
   </g>
   <g id="line2d_29">
    <path clip-path="url(#pd4dff479cd)" d="M 190.593995 50.656831 
L 241.68945 50.656831 
" style="fill:none;stroke:#008000;stroke-dasharray:2.2,2.2;stroke-dashoffset:0;stroke-width:0.5;"/>
   </g>
   <g id="line2d_30">
    <path clip-path="url(#pd4dff479cd)" d="M 190.593995 84.662305 
L 203.367859 53.748257 
L 216.141723 28.698076 
L 228.915586 22.536895 
L 241.68945 23.32176 
L 254.463314 25.102453 
L 267.237177 21.386888 
L 280.011041 26.04175 
L 292.784905 25.597388 
" style="fill:none;stroke:#bfbf00;stroke-linecap:round;stroke-width:1.25;"/>
    <g clip-path="url(#pd4dff479cd)">
     <use style="fill:#bfbf00;" x="190.593995" xlink:href="#m10983cf7ea" y="84.662305"/>
     <use style="fill:#bfbf00;" x="203.367859" xlink:href="#m10983cf7ea" y="53.748257"/>
     <use style="fill:#bfbf00;" x="216.141723" xlink:href="#m10983cf7ea" y="28.698076"/>
     <use style="fill:#bfbf00;" x="228.915586" xlink:href="#m10983cf7ea" y="22.536895"/>
     <use style="fill:#bfbf00;" x="241.68945" xlink:href="#m10983cf7ea" y="23.32176"/>
     <use style="fill:#bfbf00;" x="254.463314" xlink:href="#m10983cf7ea" y="25.102453"/>
     <use style="fill:#bfbf00;" x="267.237177" xlink:href="#m10983cf7ea" y="21.386888"/>
     <use style="fill:#bfbf00;" x="280.011041" xlink:href="#m10983cf7ea" y="26.04175"/>
     <use style="fill:#bfbf00;" x="292.784905" xlink:href="#m10983cf7ea" y="25.597388"/>
    </g>
   </g>
   <g id="line2d_31">
    <path clip-path="url(#pd4dff479cd)" d="M 190.593995 30.701021 
L 241.68945 30.701021 
" style="fill:none;stroke:#bfbf00;stroke-dasharray:2.2,2.2;stroke-dashoffset:0;stroke-width:0.5;"/>
   </g>
   <g id="patch_6">
    <path d="M 185.48445 81.295168 
L 185.48445 13.242848 
" style="fill:none;stroke:#000000;stroke-linecap:square;stroke-linejoin:miter;stroke-width:0.8;"/>
   </g>
   <g id="patch_7">
    <path d="M 190.593995 81.295168 
L 292.784905 81.295168 
" style="fill:none;stroke:#000000;stroke-linecap:square;stroke-linejoin:miter;stroke-width:0.8;"/>
   </g>
   <g id="legend_2">
    <g id="line2d_32">
     <path d="M 266.203058 54.061606 
L 278.698058 54.061606 
" style="fill:none;stroke:#ff0000;stroke-linecap:round;stroke-width:1.25;"/>
    </g>
    <g id="line2d_33">
     <g>
      <use style="fill:#ff0000;" x="272.450558" xlink:href="#m4feb7e3f9e" y="54.061606"/>
     </g>
    </g>
    <g id="text_24">
     <!-- P10 -->
     <g transform="translate(281.197058 56.977106)scale(0.0833 -0.0833)">
      <use xlink:href="#ArialMT-50"/>
      <use x="66.699219" xlink:href="#ArialMT-31"/>
      <use x="122.314453" xlink:href="#ArialMT-30"/>
     </g>
    </g>
    <g id="line2d_34">
     <path d="M 266.203058 63.345651 
L 278.698058 63.345651 
" style="fill:none;stroke:#008000;stroke-linecap:round;stroke-width:1.25;"/>
    </g>
    <g id="line2d_35">
     <g>
      <use style="fill:#008000;" x="272.450558" xlink:href="#m1f63cc2966" y="63.345651"/>
     </g>
    </g>
    <g id="text_25">
     <!-- P20 -->
     <g transform="translate(281.197058 66.261151)scale(0.0833 -0.0833)">
      <use xlink:href="#ArialMT-50"/>
      <use x="66.699219" xlink:href="#ArialMT-32"/>
      <use x="122.314453" xlink:href="#ArialMT-30"/>
     </g>
    </g>
    <g id="line2d_36">
     <path d="M 266.203058 72.629697 
L 278.698058 72.629697 
" style="fill:none;stroke:#bfbf00;stroke-linecap:round;stroke-width:1.25;"/>
    </g>
    <g id="line2d_37">
     <g>
      <use style="fill:#bfbf00;" x="272.450558" xlink:href="#m04067660f8" y="72.629697"/>
     </g>
    </g>
    <g id="text_26">
     <!-- P30 -->
     <g transform="translate(281.197058 75.545197)scale(0.0833 -0.0833)">
      <use xlink:href="#ArialMT-50"/>
      <use x="66.699219" xlink:href="#ArialMT-33"/>
      <use x="122.314453" xlink:href="#ArialMT-30"/>
     </g>
    </g>
   </g>
  </g>
 </g>
 <defs>
  <clipPath id="pec15c8995a">
   <rect height="68.05232" width="112.41" x="32.03445" y="13.242848"/>
  </clipPath>
  <clipPath id="pd4dff479cd">
   <rect height="68.05232" width="112.41" x="185.48445" y="13.242848"/>
  </clipPath>
 </defs>
</svg>
